<svg xmlns="http://www.w3.org/2000/svg" width="16.875" height="18.848" viewBox="0 0 16.875 18.848"><defs><style>.a,.b{fill:#8e8e8e;}.b{stroke:#8e8e8e;stroke-width:0.2px;}</style></defs><g transform="translate(-478.125 -145.204)"><g transform="translate(477 152.31)"><path class="a" d="M2,0H2A2,2,0,0,1,4,2V4A1,1,0,0,1,3,5H1A1,1,0,0,1,0,4V2A2,2,0,0,1,2,0Z" transform="translate(2 6.742)"/><path class="a" d="M2,0A1.9,1.9,0,0,1,4,1.778V7.112A.949.949,0,0,1,3,8H1a.949.949,0,0,1-1-.889V1.778A1.9,1.9,0,0,1,2,0Z" transform="translate(8 3.742)"/><path class="a" d="M2,0H2A2,2,0,0,1,4,2v9a1,1,0,0,1-1,1H1a1,1,0,0,1-1-1V2A2,2,0,0,1,2,0Z" transform="translate(14 -0.258)"/></g><g transform="matrix(0.996, 0.087, -0.087, 0.996, 479.241, 145.315)"><path class="b" d="M14.791.424A.4.4,0,0,0,14.368,0H11.911a.4.4,0,1,0,0,.806h1.505L9.433,4.789l-1.5-1.5a.4.4,0,0,0-.57,0L.118,10.53a.4.4,0,0,0,.57.57L7.646,4.142l1.5,1.5a.4.4,0,0,0,.57,0l4.268-4.268V2.738a.4.4,0,0,0,.806,0V.443C14.792.437,14.791.43,14.791.424Z"/></g></g></svg>