<svg xmlns="http://www.w3.org/2000/svg" width="50" height="50" viewBox="0 0 50 50"><defs><style>.a,.c{fill:#767676;}.a{opacity:0.1;}.b{fill:none;}</style></defs><g transform="translate(-54 -1423)"><path class="a" d="M25,0A25,25,0,1,1,0,25,25,25,0,0,1,25,0Z" transform="translate(54 1423)"/><g transform="translate(-6 -24)"><path class="b" d="M0,0H24V24H0Z" transform="translate(73 1460)"/><g transform="translate(73 1462)"><g transform="translate(16.441)"><path class="c" d="M301.722,2.42a1.238,1.238,0,0,0-.365-.881L300.182.365A1.274,1.274,0,0,0,299.293,0h-.071V2.492h2.5V2.42Z" transform="translate(-299.222 0)"/></g><g transform="translate(4)"><path class="c" d="M15.228,15.485a7.268,7.268,0,0,1,1.307-1.414V4.69h-4.47A.594.594,0,0,1,11.45,4.1V0H1.908A1.84,1.84,0,0,0,0,1.759V18.253a1.84,1.84,0,0,0,1.908,1.759h12.7a1.856,1.856,0,0,0,1.925-1.759V13.877l-.7.629a2.573,2.573,0,0,1-.989.562l-2.023.622-.308.015c-.509,0,1.652,1.256,1.352.874s-.014-.443.148-.889ZM3.18,10.553h6.34a.588.588,0,1,1,0,1.173H3.18a.588.588,0,1,1,0-1.173ZM2.544,8.794a.612.612,0,0,1,.636-.586h6.34a.588.588,0,1,1,0,1.173H3.18A.612.612,0,0,1,2.544,8.794Zm0,4.69A.612.612,0,0,1,3.18,12.9h6.34a.588.588,0,1,1,0,1.173H3.18A.612.612,0,0,1,2.544,13.484Zm9.521,2.931a.588.588,0,1,1,0,1.173H8.249a.588.588,0,1,1,0-1.173ZM3.18,7.035a.588.588,0,1,1,0-1.173h8.885a.588.588,0,1,1,0,1.173Z"/></g><g transform="translate(20.336 7.764)"><path class="c" d="M503.215,198.81h0l0,0Z" transform="translate(-503.215 -198.802)"/><path class="c" d="M503.3,198.679l0,0Z" transform="translate(-503.301 -198.673)"/><path class="c" d="M503.436,198.6Z" transform="translate(-503.43 -198.602)"/></g></g></g></g></svg>