<svg xmlns="http://www.w3.org/2000/svg" width="50" height="50" viewBox="0 0 50 50"><defs><style>.a,.c{fill:#767676;}.a{opacity:0.1;}.b{fill:none;}</style></defs><g transform="translate(-751 -1110)"><path class="a" d="M25,0A25,25,0,1,1,0,25,25,25,0,0,1,25,0Z" transform="translate(751 1110)"/><g transform="translate(-13 -15)"><path class="b" d="M0,0H24V24H0Z" transform="translate(777 1138)"/><g transform="translate(777 1138.999)"><path class="c" d="M0,0H24V2.044H0Z"/><path class="c" d="M8,37.952a1,1,0,0,0,1,1H17.98v1.993h-2v1.993h5.988V40.941h-2V38.948h8.982a1,1,0,0,0,1-1V24H8Zm6.986-2.99a3.981,3.981,0,0,1-1.609-.339l1.892-3.149h3.677A3.99,3.99,0,0,1,14.986,34.962Zm7.984,1.993a1,1,0,1,1,1-1A1,1,0,0,1,22.97,36.955Zm2.994,0a1,1,0,1,1,1-1A1,1,0,0,1,25.964,36.955Zm1-2.99H22.97V31.972h3.992Zm0-2.99h-4.99V28.983h4.99Zm-5.988-4.983h5.988v1.993H20.974Zm-1,8.969a1,1,0,1,1-1,1A1,1,0,0,1,19.976,34.962Zm-4.99-7.972a3.99,3.99,0,0,1,3.96,3.487H15.193l-2.654-2.65A3.977,3.977,0,0,1,14.986,26.99Zm-3.153,1.543,2.524,2.521L12.521,34.11a3.979,3.979,0,0,1-.688-5.578Z" transform="translate(-6.978 -20.934)"/></g></g></g></svg>