<svg xmlns="http://www.w3.org/2000/svg" width="50" height="50" viewBox="0 0 50 50"><defs><style>.a,.c{fill:#767676;}.a{opacity:0.1;}.b{fill:none;}</style></defs><g transform="translate(-751 -756)"><path class="a" d="M25,0A25,25,0,1,1,0,25,25,25,0,0,1,25,0Z" transform="translate(751 756)"/><g transform="translate(-8 -25)"><path class="b" d="M0,0H24V24H0Z" transform="translate(772 794)"/><g transform="translate(772 794)"><g transform="translate(9.009 8.32)"><path class="c" d="M198.991,181a2.991,2.991,0,1,0,2.991,2.991A2.994,2.994,0,0,0,198.991,181Z" transform="translate(-196 -181)"/></g><path class="c" d="M23.412,9.9l-1.868-.3a9.748,9.748,0,0,0-1.1-2.644l1.074-1.5a.7.7,0,0,0-.075-.906L19.458,2.554a.7.7,0,0,0-.906-.075l-1.5,1.074a9.747,9.747,0,0,0-2.644-1.1L14.1.588A.7.7,0,0,0,13.406,0H10.594A.7.7,0,0,0,9.9.588L9.6,2.456a9.748,9.748,0,0,0-2.644,1.1l-1.5-1.074a.7.7,0,0,0-.906.075L2.554,4.542a.7.7,0,0,0-.075.906l1.074,1.5A9.747,9.747,0,0,0,2.456,9.6L.588,9.9A.7.7,0,0,0,0,10.594v2.813a.7.7,0,0,0,.588.694l1.868.3a9.748,9.748,0,0,0,1.1,2.644l-1.074,1.5a.7.7,0,0,0,.075.906l1.989,1.989a.705.705,0,0,0,.906.075l1.5-1.074a9.748,9.748,0,0,0,2.644,1.1l.3,1.868a.7.7,0,0,0,.693.588h2.813a.7.7,0,0,0,.694-.588l.3-1.868a9.748,9.748,0,0,0,2.644-1.1l1.5,1.074a.706.706,0,0,0,.906-.075l1.989-1.989a.7.7,0,0,0,.075-.906l-1.074-1.5a9.748,9.748,0,0,0,1.1-2.644l1.868-.3A.7.7,0,0,0,24,13.406V10.594A.7.7,0,0,0,23.412,9.9ZM12,19.734A7.734,7.734,0,1,1,19.734,12,7.743,7.743,0,0,1,12,19.734Z"/><g transform="translate(7.018 13.759)"><path class="c" d="M164.491,297.732a4.426,4.426,0,0,1-6.908,0,5.275,5.275,0,0,0-1.528,2.4,6.647,6.647,0,0,0,9.965,0A5.274,5.274,0,0,0,164.491,297.732Z" transform="translate(-156.055 -297.732)"/></g></g></g></g></svg>