<svg id="Layer_1" data-name="Layer 1" xmlns="http://www.w3.org/2000/svg" viewBox="0 0 19.89 19.89"><defs><style>.cls-1{fill:#767676;}</style></defs><path class="cls-1" d="M18.73,4.08a.45.45,0,0,0-.12-.28L15.19.39a.48.48,0,0,0-.3-.13H3A1.31,1.31,0,0,0,1.66,1.54V18.61A1.31,1.31,0,0,0,3,19.89H17.4a1.31,1.31,0,0,0,1.33-1.28S18.74,4.1,18.73,4.08ZM15.32,1.72l1.95,2H15.32ZM17.4,19H3a.43.43,0,0,1-.47-.42V1.54A.45.45,0,0,1,3,1.11H14.46v3a.43.43,0,0,0,.43.43h3V18.61A.45.45,0,0,1,17.4,19ZM9.77,14.34H7.21V11.78a.43.43,0,0,0-.43-.43,3.42,3.42,0,1,0,3.42,3.42A.43.43,0,0,0,9.77,14.34Zm-3,3a2.56,2.56,0,0,1-.42-5.09v2.53a.42.42,0,0,0,.42.42H9.31A2.57,2.57,0,0,1,6.78,17.33ZM8.06,10.5a.42.42,0,0,0-.42.43v2.56a.42.42,0,0,0,.42.42h2.56a.42.42,0,0,0,.43-.42A3,3,0,0,0,8.06,10.5Zm.43,2.56V11.4a2.12,2.12,0,0,1,1.66,1.66ZM3.37,5.81a.43.43,0,0,1,.43-.43h9.38a.43.43,0,1,1,0,.85H3.8A.42.42,0,0,1,3.37,5.81ZM17,7.51a.42.42,0,0,1-.42.43H3.8a.43.43,0,1,1,0-.85H16.6A.42.42,0,0,1,17,7.51Zm0,1.71a.42.42,0,0,1-.42.43H3.8a.43.43,0,0,1-.43-.43.43.43,0,0,1,.43-.43H16.6A.43.43,0,0,1,17,9.22ZM3.8,4.53h9.38a.43.43,0,0,0,.43-.43V2.39A.42.42,0,0,0,13.18,2H3.8a.42.42,0,0,0-.43.42V4.1A.43.43,0,0,0,3.8,4.53Zm.42-1.71h8.54v.85H4.22Zm12.38,12H15.32V12.63a.42.42,0,0,0-.43-.42H13.18a.42.42,0,0,0-.42.42v1.28H11.48a.43.43,0,0,0-.43.43v3.41a.43.43,0,0,0,.43.43H16.6a.42.42,0,0,0,.42-.43V15.19A.42.42,0,0,0,16.6,14.77Zm-4.7,0h.86v2.56H11.9Zm1.71-.43V13.06h.85v4.27h-.85Zm2.56,3h-.85V15.62h.85Z"/></svg>