<svg id="Layer_1" data-name="Layer 1" xmlns="http://www.w3.org/2000/svg" viewBox="0 0 14 21"><path d="M13,6.65H12.7a2,2,0,1,0-2.93,0H7.09V4.46a.22.22,0,0,0-.22-.22H6a.21.21,0,0,0-.21.22V6.65H5.56V3.59a.22.22,0,0,0-.22-.22H4.47a.22.22,0,0,0-.22.22V6.65H4V5.12a.22.22,0,0,0-.22-.22H2.94a.21.21,0,0,0-.22.22V6.65H1.19a.87.87,0,0,0-.88.87v6.55a.87.87,0,0,0,.88.88h4.5l-.29.87H4.68a.21.21,0,0,0-.21.22v.44H2.28a.22.22,0,0,0,0,.44h9.61a.22.22,0,0,0,0-.44H9.71V16a.22.22,0,0,0-.22-.22H8.77L8.48,15H13a.87.87,0,0,0,.87-.88V7.52A.87.87,0,0,0,13,6.65ZM11.46,3.82a1.53,1.53,0,0,1,1.29,1.3H11.46Zm-.13,1.73h1.42A1.53,1.53,0,0,1,11,6.85a1.66,1.66,0,0,1-.7-.29ZM9.71,5.33A1.53,1.53,0,0,1,11,3.82V5.24l-1,1A1.58,1.58,0,0,1,9.71,5.33Zm-3.5-.65h.44V8.83H6.21Zm-.65,2.4h.22V8.83H5.56ZM4.68,3.8h.44v5H4.68ZM4,7.08h.22V8.83H4ZM3.15,5.33h.44v3.5H3.15ZM9.27,16.26v.22H4.9v-.22Zm-3.41-.44L6.15,15H8l.29.87Zm7.56-1.75a.43.43,0,0,1-.43.44H1.19a.44.44,0,0,1-.44-.44v-.43H13.42Zm0-.87H.75V7.52a.44.44,0,0,1,.44-.44H2.72V8.83H2.5V7.52a.22.22,0,0,0-.22-.22H1.41a.22.22,0,0,0-.22.22V9.05a.22.22,0,0,0,.22.22h7a.22.22,0,0,0,.22-.22V7.52A.22.22,0,0,0,8.4,7.3H7.52a.21.21,0,0,0-.21.22V8.83H7.09V7.08h3.25a2,2,0,0,0,1.8,0H13a.44.44,0,0,1,.43.44ZM2.06,7.74V8.83H1.62V7.74ZM7.74,8.83V7.74h.44V8.83Z"/><path d="M2.72,13.86H1.41a.22.22,0,1,0,0,.43H2.72a.22.22,0,1,0,0-.43Z"/><path d="M3.59,13.86H3.37a.22.22,0,1,0,0,.43h.22a.22.22,0,1,0,0-.43Z"/><path d="M9.49,8.83a.25.25,0,0,0,.16-.06L10.46,8h1.87a.22.22,0,1,0,0-.44h-2a.22.22,0,0,0-.15.06l-.87.88a.21.21,0,0,0,0,.31A.2.2,0,0,0,9.49,8.83Z"/><path d="M12.33,11.23a.68.68,0,0,0-.57.33L9.48,10.23a.66.66,0,0,0-1.29,0L5.89,12A.66.66,0,0,0,5,11.78a.67.67,0,0,0-.22.25l-2.28-.95a.65.65,0,0,0-.79-.48.65.65,0,1,0,.74.93l2.27,1a.65.65,0,0,0,.79.48A.64.64,0,0,0,6,12.44l2.31-1.72a.65.65,0,0,0,.9.19.63.63,0,0,0,.21-.22L11.69,12a.65.65,0,1,0,.64-.79Zm-10.27,0A.22.22,0,1,1,1.84,11a.21.21,0,0,1,.22.22Zm3.28,1.31a.23.23,0,0,1-.22-.22h0a.22.22,0,0,1,.22-.22.22.22,0,0,1,0,.44Zm3.5-2a.22.22,0,1,1,.21-.22A.22.22,0,0,1,8.84,10.58Zm3.49,1.53a.22.22,0,1,1,.22-.22A.22.22,0,0,1,12.33,12.11Z"/><path d="M10.58,12.55H9.05a.21.21,0,0,0-.21.21.21.21,0,0,0,.21.22h1.53a.22.22,0,0,0,.22-.22A.21.21,0,0,0,10.58,12.55Z"/><path d="M10.58,11.89H9.93a.22.22,0,1,0,0,.44h.65a.22.22,0,1,0,0-.44Z"/><path d="M1.41,9.92h2.4a.22.22,0,1,0,0-.43H1.41a.22.22,0,1,0,0,.43Z"/><path d="M4.47,9.92h.21a.22.22,0,1,0,0-.43H4.47a.21.21,0,0,0-.22.21A.21.21,0,0,0,4.47,9.92Z"/></svg>