<svg xmlns="http://www.w3.org/2000/svg" width="14.24" height="15.884" viewBox="0 0 14.24 15.884"><defs><style>.a{fill:#767676;}</style></defs><path class="a" d="M6.67,15.263a.62.62,0,0,1-.62.62H2.482A2.485,2.485,0,0,1,0,13.4V2.482A2.485,2.485,0,0,1,2.482,0H10.11a2.485,2.485,0,0,1,2.482,2.482V9.059a.62.62,0,0,1-1.241,0V2.482A1.242,1.242,0,0,0,10.11,1.241H2.482A1.242,1.242,0,0,0,1.241,2.482V13.4a1.242,1.242,0,0,0,1.241,1.241H6.049a.62.62,0,0,1,.62.62Zm7.31-5.158a.621.621,0,0,0-.866.143l-3.058,4.272a.355.355,0,0,1-.51.026l-1.98-1.9a.62.62,0,0,0-.859.9l1.982,1.9a1.6,1.6,0,0,0,1.1.44q.053,0,.105,0a1.6,1.6,0,0,0,1.137-.593l.021-.027,3.071-4.289a.62.62,0,0,0-.143-.866ZM9.49,3.723H3.1a.62.62,0,1,0,0,1.241H9.49a.62.62,0,1,0,0-1.241Zm.62,3.1a.62.62,0,0,0-.62-.62H3.1a.62.62,0,1,0,0,1.241H9.49A.62.62,0,0,0,10.11,6.825ZM3.1,8.686a.62.62,0,1,0,0,1.241H6.98a.62.62,0,0,0,0-1.241Zm0,0"/></svg>