<svg xmlns="http://www.w3.org/2000/svg" width="30.5" height="26.867" viewBox="0 0 30.5 26.867"><defs><style>.a{fill:#767676;stroke:#767676;stroke-width:0.5px;}</style></defs><path class="a" d="M29.127,3.516H21.152V2.637A2.64,2.64,0,0,0,18.516,0H11.484A2.64,2.64,0,0,0,8.848,2.637v.879H.879A.881.881,0,0,0,0,4.395V23.73a2.64,2.64,0,0,0,2.637,2.637H27.363A2.64,2.64,0,0,0,30,23.73V4.41A.853.853,0,0,0,29.127,3.516ZM10.605,2.637a.88.88,0,0,1,.879-.879h7.031a.88.88,0,0,1,.879.879v.879H10.605ZM26.037,14.017l-.864-.556a.877.877,0,0,1-.834.6H19.395v-.879a.879.879,0,0,0-.879-.879H11.484a.879.879,0,0,0-.879.879v.879H5.661a.877.877,0,0,1-.834-.6l-.94.6Zm-8.4.045V15.82h.286ZM28.242,23.73a.88.88,0,0,1-.879.879H2.637a.88.88,0,0,1-.879-.879V9.811l1.4,4.207a2.633,2.633,0,0,0,2.5,1.8h4.944V14.7c0,.485-.05,1.121.436,1.121h8.084c.485,0,.269-.636.269-1.121V15.82h4.944a2.633,2.633,0,0,0,2.5-1.8l1.4-4.207Zm0,0" transform="translate(0.25 0.25)"/></svg>