<svg xmlns="http://www.w3.org/2000/svg" width="59.313" height="36.906" viewBox="0 0 59.313 36.906"><defs><style>.a{opacity:0.35;}.b{fill:#fff;}.c{fill:#f6529d;}.d{fill:#f5509e;}</style></defs><g class="a"><path class="b" d="M19.77,94.028V105.4a1.977,1.977,0,0,1-.008.218,3.947,3.947,0,0,1-3.425,3.321,5.393,5.393,0,0,1-1.039.1H4.17a5.062,5.062,0,0,1-1.039-.107A3.608,3.608,0,0,1,0,105.644V94.028a4.624,4.624,0,0,1,3.716-4.214l1.77-.485a3.081,3.081,0,0,0,1.049-.507,2.193,2.193,0,0,0,.928-1.735v-2.22H12.31v2.221a2.16,2.16,0,0,0,.806,1.638,3.018,3.018,0,0,0,1.17.6l1.77.485a4.624,4.624,0,0,1,3.714,4.217Zm0,0" transform="translate(0 -73.459)"/><path class="b" d="M19.77,126.656v13.972c0,.09,0,.18-.008.268H0v-14.24a5.461,5.461,0,0,1,3.716-5.178l1.77-.6a2.888,2.888,0,0,0,1.049-.623,9.181,9.181,0,0,0,6.581-.119,2.872,2.872,0,0,0,1.17.742l1.77.6A5.461,5.461,0,0,1,19.77,126.656Zm0,0" transform="translate(0 -103.99)"/><path class="b" d="M60.351,84.867v1.786l-1.1.673a2.536,2.536,0,0,1-2.641,0l-1.1-.673V84.867Zm0,0" transform="translate(-48.042 -73.459)"/><path class="b" d="M47.763,2.931V8.816a2.541,2.541,0,0,1-1.219,2.171l-2.2,1.341a2.536,2.536,0,0,1-2.641,0l-2.2-1.341a2.545,2.545,0,0,1-1.219-2.171V2.931A2.928,2.928,0,0,1,41.216,0h3.623a2.928,2.928,0,0,1,2.924,2.931Zm0,0" transform="translate(-33.143 0)"/><path class="b" d="M68.2,0H65.98A2.928,2.928,0,0,1,68.9,2.931V8.816a2.541,2.541,0,0,1-1.219,2.171l-2.2,1.341a2.257,2.257,0,0,1-.211.113,2.535,2.535,0,0,0,2.43-.113l2.2-1.341a2.541,2.541,0,0,0,1.22-2.171V2.931A2.928,2.928,0,0,0,68.2,0Zm0,0" transform="translate(-56.498 0)"/><path class="b" d="M47.763,2.931V5.664L41.771,3.736a.729.729,0,0,0-.561.048L38.289,5.308V2.931A2.928,2.928,0,0,1,41.216,0h3.623a2.928,2.928,0,0,1,2.924,2.931Zm0,0" transform="translate(-33.143 0)"/><path class="b" d="M72.72,0H70.5a2.928,2.928,0,0,1,2.925,2.931V4.95l2.22.714V2.931A2.928,2.928,0,0,0,72.72,0Zm0,0" transform="translate(-61.022 0)"/><g transform="translate(3.13 16.835)"><path class="b" d="M25.37,173.2v12.724H23.293V173.2a1.039,1.039,0,1,1,2.077,0Zm0,0" transform="translate(-23.292 -165.855)"/><path class="b" d="M108.155,173.2v12.724h-2.077V173.2a1.039,1.039,0,0,1,2.077,0Zm0,0" transform="translate(-94.948 -165.855)"/><path class="c" d="M59.122,125.23l-2.092,10.9a.8.8,0,0,0,.191.687l1.332,1.486a.8.8,0,0,0,1.168.029l1.491-1.5a.8.8,0,0,0,.216-.731Zm0,0" transform="translate(-52.481 -125.23)"/></g><path class="b" d="M166.856,94.028V105.4a1.978,1.978,0,0,1-.008.218,3.947,3.947,0,0,1-3.425,3.321,5.393,5.393,0,0,1-1.039.1H151.256a5.063,5.063,0,0,1-1.039-.107,3.608,3.608,0,0,1-3.131-3.287V94.028a4.624,4.624,0,0,1,3.716-4.214l1.77-.485a3.082,3.082,0,0,0,1.049-.507,2.193,2.193,0,0,0,.928-1.735v-2.22H159.4v2.221a2.16,2.16,0,0,0,.806,1.638,3.017,3.017,0,0,0,1.17.6l1.77.485a4.624,4.624,0,0,1,3.714,4.217Zm0,0" transform="translate(-127.312 -73.459)"/><path class="b" d="M166.856,126.656v13.972c0,.09,0,.18-.008.268H147.086v-14.24a5.46,5.46,0,0,1,3.716-5.178l1.77-.6a2.891,2.891,0,0,0,1.048-.623,9.182,9.182,0,0,0,6.581-.119,2.872,2.872,0,0,0,1.17.742l1.77.6a5.461,5.461,0,0,1,3.715,5.178Zm0,0" transform="translate(-127.312 -103.99)"/><path class="b" d="M207.437,84.867v1.786l-1.1.673a2.536,2.536,0,0,1-2.641,0l-1.1-.673V84.867Zm0,0" transform="translate(-175.356 -73.459)"/><path class="b" d="M194.849,2.931V8.816a2.541,2.541,0,0,1-1.219,2.171l-2.2,1.341a2.536,2.536,0,0,1-2.641,0l-2.2-1.341a2.545,2.545,0,0,1-1.219-2.171V2.931A2.929,2.929,0,0,1,188.3,0h3.623A2.928,2.928,0,0,1,194.849,2.931Zm0,0" transform="translate(-160.455 0)"/><path class="b" d="M215.281,0h-2.22a2.928,2.928,0,0,1,2.925,2.931V8.816a2.543,2.543,0,0,1-1.219,2.171l-2.2,1.341a2.258,2.258,0,0,1-.211.113,2.535,2.535,0,0,0,2.43-.113l2.2-1.341a2.541,2.541,0,0,0,1.219-2.171V2.931A2.928,2.928,0,0,0,215.281,0Zm0,0" transform="translate(-183.812 0)"/><path class="b" d="M194.853,2.931V5.664L188.86,3.736a.729.729,0,0,0-.561.048l-2.92,1.525V2.931A2.928,2.928,0,0,1,188.3,0h3.623a2.928,2.928,0,0,1,2.93,2.931Zm0,0" transform="translate(-160.459 0)"/><path class="b" d="M219.806,0h-2.22a2.928,2.928,0,0,1,2.925,2.931V4.95l2.22.714V2.931A2.928,2.928,0,0,0,219.806,0Zm0,0" transform="translate(-188.337 0)"/><path class="b" d="M172.456,173.2v12.724h-2.077V173.2a1.038,1.038,0,0,1,2.077,0Zm0,0" transform="translate(-147.474 -149.02)"/><path class="b" d="M255.241,173.2v12.724h-2.077V173.2a1.039,1.039,0,1,1,2.077,0Zm0,0" transform="translate(-219.131 -149.02)"/><path class="d" d="M206.206,125.23l-2.092,10.9a.8.8,0,0,0,.191.687l1.332,1.486a.8.8,0,0,0,1.168.029l1.491-1.5a.8.8,0,0,0,.215-.731Zm0,0" transform="translate(-176.664 -108.396)"/><path class="b" d="M313.918,94.028V105.4a1.978,1.978,0,0,1-.008.218,3.947,3.947,0,0,1-3.425,3.321,5.393,5.393,0,0,1-1.039.1H298.318a5.064,5.064,0,0,1-1.039-.107,3.608,3.608,0,0,1-3.131-3.287V94.028a4.623,4.623,0,0,1,3.715-4.214l1.77-.485a3.082,3.082,0,0,0,1.048-.507,2.192,2.192,0,0,0,.928-1.735v-2.22h4.847v2.221a2.161,2.161,0,0,0,.806,1.638,3.017,3.017,0,0,0,1.17.6l1.77.485a4.624,4.624,0,0,1,3.716,4.217Zm0,0" transform="translate(-254.605 -73.459)"/><path class="b" d="M313.915,126.656v13.972c0,.09,0,.18-.008.268H294.145v-14.24a5.461,5.461,0,0,1,3.716-5.178l1.77-.6a2.888,2.888,0,0,0,1.049-.623,9.181,9.181,0,0,0,6.581-.119,2.87,2.87,0,0,0,1.171.742l1.77.6A5.461,5.461,0,0,1,313.915,126.656Zm0,0" transform="translate(-254.602 -103.99)"/><path class="b" d="M354.5,84.867v1.786l-1.1.673a2.535,2.535,0,0,1-2.641,0l-1.1-.673V84.867Zm0,0" transform="translate(-302.649 -73.459)"/><path class="b" d="M341.911,2.931V8.816a2.542,2.542,0,0,1-1.218,2.171l-2.2,1.341a2.535,2.535,0,0,1-2.641,0l-2.2-1.341a2.545,2.545,0,0,1-1.219-2.171V2.931A2.928,2.928,0,0,1,335.363,0h3.623A2.928,2.928,0,0,1,341.911,2.931Zm0,0" transform="translate(-287.748 0)"/><path class="b" d="M362.344,0h-2.22a2.928,2.928,0,0,1,2.925,2.931V8.816a2.542,2.542,0,0,1-1.218,2.171l-2.2,1.341a2.242,2.242,0,0,1-.21.113,2.534,2.534,0,0,0,2.43-.113l2.2-1.341a2.543,2.543,0,0,0,1.219-2.171V2.931A2.928,2.928,0,0,0,362.344,0Zm0,0" transform="translate(-311.105 0)"/><path class="b" d="M341.911,2.931V5.664l-5.993-1.929a.729.729,0,0,0-.561.048l-2.92,1.525V2.931A2.928,2.928,0,0,1,335.363,0h3.623A2.928,2.928,0,0,1,341.911,2.931Zm0,0" transform="translate(-287.748 0)"/><path class="b" d="M366.865,0h-2.22a2.928,2.928,0,0,1,2.925,2.931V4.95l2.22.714V2.931A2.928,2.928,0,0,0,366.865,0Zm0,0" transform="translate(-315.626 0)"/><path class="b" d="M319.515,173.2v12.724h-2.077V173.2a1.039,1.039,0,1,1,2.077,0Zm0,0" transform="translate(-274.764 -149.02)"/><path class="b" d="M402.3,173.2v12.724h-2.077V173.2a1.039,1.039,0,1,1,2.077,0Zm0,0" transform="translate(-346.421 -149.02)"/><path class="c" d="M353.268,125.23l-2.092,10.9a.8.8,0,0,0,.191.687L352.7,138.3a.8.8,0,0,0,1.167.029l1.491-1.5a.8.8,0,0,0,.215-.731Zm0,0" transform="translate(-303.957 -108.396)"/></g></svg>