<svg xmlns="http://www.w3.org/2000/svg" width="14" height="14" viewBox="0 0 14 14"><defs><style>.a{fill:#767676;opacity:0.8;}</style></defs><path class="a" d="M12.25,1.75h-.583V.583A.584.584,0,0,0,11.083,0H10.5a.584.584,0,0,0-.583.583V1.75H4.083V.583A.584.584,0,0,0,3.5,0H2.917a.584.584,0,0,0-.583.583V1.75H1.75A1.752,1.752,0,0,0,0,3.5v8.75A1.752,1.752,0,0,0,1.75,14h10.5A1.752,1.752,0,0,0,14,12.25V3.5A1.752,1.752,0,0,0,12.25,1.75Zm.583,10.5a.584.584,0,0,1-.583.583H1.75a.584.584,0,0,1-.583-.583V5.857H12.833Zm0,0"/></svg>