<svg xmlns="http://www.w3.org/2000/svg" width="17.997" height="18" viewBox="0 0 17.997 18"><defs><style>.a{fill:#8e8e8e;}</style></defs><g transform="translate(-0.04)"><path class="a" d="M7.511,125.151v-.481a5.232,5.232,0,0,0-.862-2.883,5.285,5.285,0,0,0-2.863-2.152v1.545l-3.746-2.9,3.746-2.9v1.448a7.885,7.885,0,0,1,3.229,1.432,7.986,7.986,0,0,1,.7.589Z" transform="translate(0 -111.152)"/><path class="a" d="M180.852,200.7v-.481a5.232,5.232,0,0,0-.862-2.883v-1.118a8.031,8.031,0,0,1,.2-1.81q.069-.3.16-.59a7.981,7.981,0,0,1,.7.59Z" transform="translate(-173.341 -186.701)"/><path class="a" d="M206.165,18V9.518a5.275,5.275,0,0,1,4.065-5.127v1.4l3.746-2.9L210.23,0V1.627a7.992,7.992,0,0,0-6.575,6.081,8.031,8.031,0,0,0-.2,1.81V18Z" transform="translate(-195.939)"/></g></svg>