<svg xmlns="http://www.w3.org/2000/svg" width="50" height="50" viewBox="0 0 50 50"><defs><style>.a,.b{fill:#4d4cac;}.a{opacity:0.1;}</style></defs><g transform="translate(-769 -415)"><path class="a" d="M25,0A25,25,0,1,1,0,25,25,25,0,0,1,25,0Z" transform="translate(769 415)"/><g transform="translate(782 428)"><path class="b" d="M1.548,22.452v-8.2l3.646-3.646a2.245,2.245,0,0,0,1.99,0l3.871,3.871a2.332,2.332,0,1,0,4.2.008L19.9,9.84a2.37,2.37,0,1,0-1.084-1.1l-4.645,4.645a2.245,2.245,0,0,0-1.99,0L8.307,9.515a2.334,2.334,0,1,0-4.2,0L1.548,12.07V0H0V23.226A.774.774,0,0,0,.774,24H24V22.452Z"/></g></g></svg>