<svg xmlns="http://www.w3.org/2000/svg" width="17" height="17" viewBox="0 0 17 17"><defs><style>.a{fill:#fff;opacity:0.89;}.b{fill:#ff8c96;}</style></defs><path class="a" d="M8.5,0A8.5,8.5,0,1,1,0,8.5,8.5,8.5,0,0,1,8.5,0Z"/><g transform="translate(4.269 3.633)"><g transform="translate(-0.269 0.366)"><path class="b" d="M58.086,18.7l-2.832-.263-1.125-2.612a.227.227,0,0,0-.417,0l-1.125,2.612-2.832.263a.227.227,0,0,0-.129.4l2.137,1.877-.625,2.775a.227.227,0,0,0,.337.245l2.446-1.452L56.366,24a.227.227,0,0,0,.337-.245l-.625-2.775L58.215,19.1A.227.227,0,0,0,58.086,18.7Z" transform="translate(-49.548 -15.692)"/><path class="b" d="M54.537,16.779l-.409-.95a.227.227,0,0,0-.417,0l-1.125,2.612-2.832.263a.227.227,0,0,0-.129.4l2.137,1.877-.625,2.775a.227.227,0,0,0,.337.245L51.8,23.8A17.62,17.62,0,0,1,54.537,16.779Z" transform="translate(-49.548 -15.692)"/></g></g></svg>