<svg xmlns="http://www.w3.org/2000/svg" width="14" height="14" viewBox="0 0 14 14"><defs><style>.a{opacity:0.8;}.b{fill:#767676;}.c{fill:#fff;}</style></defs><g class="a" transform="translate(-0.07 0.295)"><g transform="translate(0.07 -0.295)"><path class="b" d="M7,0a7,7,0,1,0,7,7A7.008,7.008,0,0,0,7,0ZM7,12.511A5.511,5.511,0,1,1,7,1.489c3.038,0-5.853-1.387-5.711,5.66S10.038,12.511,7,12.511Z" transform="translate(0 0)"/><path class="c" d="M48.345,21.169H45.213V17.4a.574.574,0,1,0-1.147,0v4.339a.574.574,0,0,0,.574.574h3.705a.574.574,0,1,0,0-1.147Z" transform="translate(-37.701 -14.398)"/></g></g></svg>