<svg xmlns="http://www.w3.org/2000/svg" width="37" height="25.462" viewBox="0 0 37 25.462"><defs><style>.a{fill:#4E52AC;}</style></defs><path class="a" d="M29.88,9.316a11.576,11.576,0,0,0-22.7-.007,8.1,8.1,0,0,0,.933,16.154H13.9a1.158,1.158,0,1,0,0-2.315H8.109a5.788,5.788,0,1,1,.068-11.576,1.157,1.157,0,0,0,1.151-1.03,9.261,9.261,0,0,1,18.4,0,1.227,1.227,0,0,0,1.219,1.03,5.788,5.788,0,1,1,0,11.576H23.158a1.158,1.158,0,0,0,0,2.315h5.788A8.1,8.1,0,0,0,29.88,9.316Zm0,0" transform="translate(0.001 0)"/></svg>