<svg xmlns="http://www.w3.org/2000/svg" width="48.258" height="47.489" viewBox="0 0 48.258 47.489"><defs><style>.a{opacity:0.35;}.b{fill:#fff;}.c{fill:#5ed0a5;}</style></defs><g class="a"><path class="b" d="M12.27,29.306c-.29-.2-10.007-7.481-10.8-7.127-.6-2.1-1.223-8.535,3.121-8.945a.754.754,0,0,0,.6-.418C5.625,11.947,7.186,10,12.334,10c0,0,8.9,0,10.513,4.826a12.413,12.413,0,0,1,.241,7.36Z" transform="translate(-1.006 -1.121)"/><path class="b" d="M42.862,22.8l-6.186,4.738a.417.417,0,0,1-.676-.33V22.8l3.218-.8Z" transform="translate(-7.844 -4.656)"/><rect class="b" width="21.37" height="18.996" rx="2.07" transform="translate(26.888)"/><path class="b" d="M19.87,37.14v9.54s-.8,3.218-6.435,3.218S7,46.68,7,46.68V37.14c.048.048.105.1.161.153,2.544,2.247,2.51,4.561,5.019,4.561h2.51c2.51,0,2.476-2.314,5.019-4.561a1.956,1.956,0,0,0,.161-.153Z" transform="translate(-2.172 -6.43)"/><path class="b" d="M3.461,25.547a2.24,2.24,0,0,0-2-.426c-.008.008-.024.008-.032.016C.477,25.587,1.4,28.7,1.4,28.7a5.125,5.125,0,0,0,2.7,2.687H20.426A5.125,5.125,0,0,0,23.12,28.7s.925-3.113-.024-3.563a.028.028,0,0,0-.016-.008,2.211,2.211,0,0,0-2.011.41v.008Z" transform="translate(-0.998 -4.064)"/><path class="b" d="M32.347,55.848H1.8a.8.8,0,0,1-.8-.8V49.027a.794.794,0,0,1,.579-.772L5.826,47s.724,2.9,5.631,3.193c2.616.161,5.879-.42,7.063-2.767A2.011,2.011,0,0,0,18.7,47l10.9,3.218S32.106,50.942,32.347,55.848Z" transform="translate(-0.998 -8.359)"/><path class="b" d="M30.739,55.848H1.8a.8.8,0,0,1-.8-.8V49.027a.794.794,0,0,1,.579-.772L5.826,47s.724,2.9,5.631,3.193c2.616.161,5.879-.42,7.063-2.767A2.011,2.011,0,0,0,18.7,47c3.556,1.054,1.528.36,9.291,3.218C27.988,50.218,30.5,50.942,30.739,55.848Z" transform="translate(-0.998 -8.359)"/><g transform="translate(30.568 4.052)"><path class="c" d="M50.675,5.609H37.8A.8.8,0,1,1,37.8,4H50.67a.8.8,0,1,1,0,1.609Z" transform="translate(-36.995 -4)"/><path class="c" d="M50.675,9.609H37.8A.8.8,0,1,1,37.8,8H50.67a.8.8,0,1,1,0,1.609Z" transform="translate(-36.995 -4.782)"/><path class="c" d="M50.675,13.609H37.8A.8.8,0,0,1,37.8,12H50.67a.8.8,0,1,1,0,1.609Z" transform="translate(-36.995 -5.565)"/><path class="c" d="M41.826,17.609H37.8A.8.8,0,1,1,37.8,16h4.022a.8.8,0,0,1,0,1.609Z" transform="translate(-36.995 -6.347)"/></g><path class="b" d="M21.025,30.01c.039,2.135.375,3.952-1.89,5.953-2.544,2.247-2.51,4.561-5.019,4.561h-2.51c-2.51,0-2.476-2.314-5.019-4.561-2.4-2.123-1.882-4.1-1.882-6.508C4.7,27.79,4.2,27,4.06,24.17c0,0,.6-3.531,2.461-5.4a2.264,2.264,0,0,1,1.5-.635c2.236-.145,8.647-.434,11.278.837,0,0,1.746,1.078,2.373,5.188C21.668,26.366,20.979,27.5,21.025,30.01Z" transform="translate(-1.597 -2.687)"/></g></svg>