<svg xmlns="http://www.w3.org/2000/svg" width="100%" height="100%" viewBox="0 0 103 102"><defs><style>.a{fill:#c6c6c6;}.b{fill:#fff;}</style></defs><g transform="translate(-5988 2555)"><ellipse class="a" cx="51.5" cy="51" rx="51.5" ry="51" transform="translate(5988 -2555)"/><g transform="translate(5999.315 -2544.236)"><path class="b" d="M294.507-1801.8c-.081.01-.4.045-.71.075-3.115.3-5.8,1.583-8.954,4.263-.883.756-2.41,2.189-3.024,2.845a17.726,17.726,0,0,0-4.622,10.009,27.881,27.881,0,0,0-.025,4.168,21.389,21.389,0,0,0,1.715,6.252c.152.341.274.626.274.631a1.168,1.168,0,0,1-.264-.05,1.421,1.421,0,0,0-.954.035,2.024,2.024,0,0,0-1,1.418,1.662,1.662,0,0,0,.137.731,7.076,7.076,0,0,1,.406,2.48,12.108,12.108,0,0,0,.375,2.9,14.437,14.437,0,0,0,1.527,2.49c.477.7,1.045,1.593,1.268,1.979a4.955,4.955,0,0,0,1.466,1.919,1.178,1.178,0,0,0,.928-.03,1.144,1.144,0,0,1,.264-.11,3.685,3.685,0,0,1,.431,1,11.736,11.736,0,0,1,.309,2.139,10.094,10.094,0,0,0,.609,2.971,15,15,0,0,1,.431,1.578,32.165,32.165,0,0,1,.076,6.187,2.908,2.908,0,0,1-1.355,2.179,15.532,15.532,0,0,1-6.838,3.181,69,69,0,0,0-7.305,2.289,84.431,84.431,0,0,0-8.548,3.487c-1.426.7-1.806.972-2.232,1.563a5.583,5.583,0,0,0-.969,3.231l-.025.676.72.776a53.135,53.135,0,0,0,25.233,15.2,53.747,53.747,0,0,0,10.866,1.728c1.116.065,4.748.065,5.875,0a53.477,53.477,0,0,0,18.238-4.283c1.05-.446,3.429-1.608,4.464-2.179a53.308,53.308,0,0,0,13.809-10.921l.746-.827.005-.376a5.541,5.541,0,0,0-.939-3.031c-.467-.646-.756-.842-2.537-1.7a96.446,96.446,0,0,0-11.287-4.388c-1.928-.641-2.176-.716-4.155-1.222a18.207,18.207,0,0,1-4.282-1.463,16.258,16.258,0,0,1-3.282-2.269c-.634-.631-.878-1.713-.878-3.882.005-1.3.086-3.131.172-3.732a11.554,11.554,0,0,1,.528-2,9.767,9.767,0,0,0,.553-2.83,10.348,10.348,0,0,1,.32-2.129,3.076,3.076,0,0,1,.431-.952,1.122,1.122,0,0,1,.233.1.982.982,0,0,0,1.238-.185,6.2,6.2,0,0,0,1.126-1.6c.238-.421.893-1.448,1.456-2.279s1.126-1.723,1.243-1.969a7.249,7.249,0,0,0,.5-3.006,7.706,7.706,0,0,1,.406-2.63,1.8,1.8,0,0,0,.152-.812,2.051,2.051,0,0,0-1-1.393,1.406,1.406,0,0,0-.939-.03,1,1,0,0,1-.264.045c0-.01.1-.255.228-.551a15.972,15.972,0,0,0,1.091-3.847,20.46,20.46,0,0,0,.081-4.068,20.277,20.277,0,0,0-2.217-7.279,13.262,13.262,0,0,0-2.785-3.913,4.353,4.353,0,0,0-2.4-1.568l-.4-.115-.167-.371a8.685,8.685,0,0,0-2.46-2.966,16.887,16.887,0,0,0-5.154-2.52,19.185,19.185,0,0,0-4.591-1.022C297.3-1801.825,294.857-1801.835,294.507-1801.8Z" transform="translate(-257.9 1801.821)"/></g></g></svg>