<svg xmlns="http://www.w3.org/2000/svg" width="23.65" height="36.718" viewBox="0 0 23.65 36.718"><defs><style>.a{opacity:0.7;}.b{fill:#fce8c0;}.c{fill:#feedca;}.d{fill:#ffe3ac;}.e{fill:#292c47;}.f{fill:#3d416b;}.g{fill:#cfbeb6;}.h{fill:#4d433d;}.i{fill:#eea886;}.j{fill:#eddad3;}.k{fill:#fcd5c1;}.l{fill:#faa146;}.m{fill:#23263d;}.n{fill:#323657;}.o{fill:#1d2133;}</style></defs><g class="a" transform="translate(0)"><g transform="translate(22.035 16.793) rotate(53.989)"><path class="b" d="M.109.654S.7.156.8.091A1.5,1.5,0,0,1,1.67.043a5.121,5.121,0,0,1,.978.129.307.307,0,0,1,.1.242.538.538,0,0,1-.1.29.312.312,0,0,1-.032.354.272.272,0,0,1-.1.338.247.247,0,0,1-.065.29,2.541,2.541,0,0,0-.467.078A8.992,8.992,0,0,1,.238,1.749S-.2,1.524.109.654Z"/></g><g transform="translate(22.02 18.022) rotate(53.989)"><path class="c" d="M.282,0A1.767,1.767,0,0,1,.009.4c-.1.065.644.533.644.533S.733.21.282,0Z"/></g><g transform="translate(22.579 17.806) rotate(53.989)"><path class="d" d="M1.4,0S.39.048.37.193A.221.221,0,0,0,.448.4L.048.6s-.193.258.193.37c0,0-.21.225.177.29,0,0-.065.21.113.258a3.428,3.428,0,0,0,.821,0s.145-.065.065-.29a.284.284,0,0,0,.1-.338A.484.484,0,0,0,1.578.45.376.376,0,0,0,1.513,0Z"/></g><g transform="translate(9.112 15.159)"><g transform="translate(7.017 17.037)"><path class="e" d="M195.965,267.028s.966.5,1.416.676c.435.177,2.141.21,2.3.354a.405.405,0,0,1-.161.643,15.751,15.751,0,0,1-3.026.113c-.692-.129-1.963.129-2.253.032-.29-.078-.129-1.448-.016-1.754S195.965,267.028,195.965,267.028Z" transform="translate(-194.079 -266.938)"/></g><g transform="translate(7.574 16.548)"><path class="f" d="M196.606,263.9l.048.58a5.586,5.586,0,0,1-1.754.065l.078-.58Z" transform="translate(-194.9 -263.9)"/></g><path class="e" d="M147.355,171.21a68.658,68.658,0,0,1,5.692,4.6,3.118,3.118,0,0,1,.144,2.415c-.09.39-1.82,7.931-1.863,8.591,0,0-1.442.515-1.845,0,0,0,.151-7.118.511-8.341.359-1.239-1.648-1.922-2.639-2.372s-5.448-3.253-5.361-4.235c.058-.676.156-1.32.156-1.32S143.13,169.746,147.355,171.21Z" transform="translate(-141.993 -170.33)"/></g><path class="e" d="M1.48.04S5.214.667,6.934.863c.545.065,5.665.4,5.874.435s.048,1.5.048,1.5S7.142,2.456,6.8,2.488A39.911,39.911,0,0,1,.658,1.875C.176,1.553-.195,1.038.112.523A1.312,1.312,0,0,1,1.48.04Z" transform="matrix(0.643, 0.766, -0.766, 0.643, 14.455, 6.282)"/><g transform="translate(9.041 5.013)"><path class="g" d="M147.515,108.121a10.081,10.081,0,0,1,.643,2.639,41.636,41.636,0,0,1-1.062,4.363,7.426,7.426,0,0,0,.545,3.2l-5.921,1.013a27.813,27.813,0,0,1-.145-3.331,26.252,26.252,0,0,1,.773-4.363,5.262,5.262,0,0,1,3.766-4.345Z" transform="translate(-141.572 -107.299)"/></g><g transform="translate(13.872 0.612)"><path class="b" d="M175.355,81.03s.531.885.273,1.013c-.225.113.258.982.322,1.127s-.4.242-.5.338-.39,1.207-.756,1.239a6.274,6.274,0,0,1-2.543-.918,4.356,4.356,0,0,1-.531-3.186C171.91,79.835,174.4,79.5,175.355,81.03Z" transform="translate(-171.521 -79.96)"/></g><g transform="translate(13.798 1.901)"><path class="b" d="M173.209,91.232l-.113.225-.1.193a1.886,1.886,0,0,0-.078.177,5.477,5.477,0,0,0-.4,1.078c-.048.435-1.416-1.835-1.416-1.835a18.432,18.432,0,0,0,1.078-2.8C172.646,86.758,173.209,91.232,173.209,91.232Z" transform="translate(-171.103 -87.958)"/></g><g transform="translate(13.389)"><path class="h" d="M172.991,78.021a1.246,1.246,0,0,0-.45-1.658c-1-.708-2.816.531-3.026.58s-1.336.113-.788,1.948c.5,1.658.58,1.529.58,1.529a3.6,3.6,0,0,1,.58-.935,2.337,2.337,0,0,1,1.062-.161s-.354-.821.193-.95C171.72,78.262,172.444,77.844,172.991,78.021Z" transform="translate(-168.578 -76.145)"/></g><g transform="translate(14.385 2.292)"><path class="i" d="M175.588,90.79c-.048-.113-.21-.6-.676-.322-.467.29.29,1.207.37,1.223C175.379,91.708,175.99,91.74,175.588,90.79Z" transform="translate(-174.761 -90.386)"/></g><g transform="translate(13.569 4.821)"><path class="j" d="M170.022,106.1a16.43,16.43,0,0,0,1.48,1.77l-.177.869-1.626-2.446Z" transform="translate(-169.699 -106.1)"/></g><path class="k" d="M177.236,105.028l-.113.225-.1.193A3.13,3.13,0,0,1,175.9,104.4a9.776,9.776,0,0,0,1.336.628Z" transform="translate(-161.332 -99.853)"/><path class="l" d="M180.145,117.4a3.011,3.011,0,0,1,.129.788c-.016.078-.273-.016-.273-.016Z" transform="translate(-164.772 -110.76)"/><path class="m" d="M148.087,172.78s-.161-.467-.21-.58l-5.778.966.065.628S146.385,173.118,148.087,172.78Z" transform="translate(-132.972 -156.741)"/><g transform="translate(3.112 15.201)"><path class="b" d="M104.725,172.6a.745.745,0,0,1,0-.273,2.03,2.03,0,0,0,.113-.273.229.229,0,0,0,.032-.1,1.172,1.172,0,0,1,.161-.483c.113-.193.612-.869.612-.869l.708.273.66.078a9.783,9.783,0,0,1,.016,1.558c-.016.016-.016.032-.032.048-.1.161-.242.242-.29.322-.016.032-.258.306-.37.306a.413.413,0,0,1-.338-.129.941.941,0,0,1-.483-.129.647.647,0,0,1-.45-.193C105.08,172.756,104.774,172.741,104.725,172.6Z" transform="translate(-104.713 -170.6)"/></g><path class="n" d="M118.983,110.862a43.48,43.48,0,0,0-4.635,3.654c-.39.4-2.72,4.458-2.865,4.619-.161.161-1.883-.322-1.883-.322s2.768-5.07,2.946-5.375a53.537,53.537,0,0,1,5.714-4.6c.612-.21.692.065,1.03.628a1.1,1.1,0,0,1-.306,1.4Z" transform="translate(-105.703 -103.515)"/><g transform="translate(0 5.015)"><g transform="translate(5.727 29.564)"><path class="e" d="M88.69,286.9s.918.563,1.336.773,2.108.37,2.269.515a.407.407,0,0,1-.225.628,14.4,14.4,0,0,1-3.026-.113c-.676-.177-1.98-.016-2.253-.129-.273-.1,0-1.448.145-1.754C87.065,286.533,88.69,286.9,88.69,286.9Z" transform="translate(-86.675 -286.712)"/></g><g transform="translate(6.069 29.093)"><path class="f" d="M90.6,283.9l-.129.545a4.7,4.7,0,0,1-1.674-.065l.145-.58Z" transform="translate(-88.8 -283.797)"/></g><path class="e" d="M12.621,2.841c-.129.316-.45.988-.788,1.7a4.606,4.606,0,0,0-.225.481c-.467.947-.918,1.825-.918,1.825-.676,1.169-2.253,3.679-3.026,4.117-1.03.591-5.6,6.821-5.6,6.821L0,17.6a43.954,43.954,0,0,1,3.171-5.7C4.217,10.747,5.842,9.237,6.02,7.961c.112-.794.758-3.295.758-3.295A13.267,13.267,0,0,1,9.193.041C9.608-.4,12.621,2.841,12.621,2.841Z" transform="translate(0 13.412) rotate(-19)"/><g transform="translate(8.355)"><path class="n" d="M144.14,111.453c-.129.322-.258.643-.37.966h0a21.625,21.625,0,0,0-.643,2.141c-.065.258-.129.5-.177.74a13.593,13.593,0,0,1-2.415,5.054,12.955,12.955,0,0,1-3.235-.58,38.148,38.148,0,0,1,1.013-6.6c.065-.258.129-.5.21-.74h0c.773-2.607,2.012-4.957,4.007-5.134C142.562,107.332,144.832,109.778,144.14,111.453Z" transform="translate(-137.3 -107.301)"/></g></g><path class="n" d="M129.861,145.3a12.351,12.351,0,0,1-2.543,5.921c-.273.354,3.154.821,3.154.821Z" transform="translate(-120.557 -134.17)"/><path class="o" d="M146.159,127.8c-.788.756-2.559,2.591-2.559,2.591.065-.258.129-.5.21-.74h0C144.421,129.071,146.143,127.816,146.159,127.8Z" transform="translate(-134.231 -119.487)"/><g transform="translate(6.746 7.173)"><path class="l" d="M136.055,120.942a2.717,2.717,0,0,1-2.382,2.237,13.679,13.679,0,0,0-5.311,1.558l-1.062.821.258-1.091s.756-1.722,6.084-1.513c0,0,1.626.273,2.156-2.253C135.814,120.717,136.088,120.845,136.055,120.942Z" transform="translate(-127.3 -120.702)"/></g></g></svg>