<svg xmlns="http://www.w3.org/2000/svg" width="50" height="50" viewBox="0 0 50 50"><defs><style>.a,.c{fill:#4d4cac;}.a{opacity:0.1;}.b{fill:none;}.d{fill:#ff4192;}</style></defs><g transform="translate(-751 -1445)"><path class="a" d="M25,0A25,25,0,1,1,0,25,25,25,0,0,1,25,0Z" transform="translate(751 1445)"/><g transform="translate(-12 6)"><path class="b" d="M0,0H24V24H0Z" transform="translate(776 1452)"/><g transform="translate(776 1452)"><g transform="translate(4.071 1)"><path class="c" d="M112.831,1.121h-1.863a1.248,1.248,0,0,0-2.484,0h-1.863a.624.624,0,0,0-.621.6V2.28A1.186,1.186,0,0,0,107.242,3.4h4.968a1.186,1.186,0,0,0,1.242-1.121V1.719A.624.624,0,0,0,112.831,1.121Z" transform="translate(-106)"/></g><g transform="translate(0 2.419)"><path class="c" d="M13.763,61h-1.19a2.611,2.611,0,0,1-2.419,2.738H5.394A2.58,2.58,0,0,1,3.014,61H1.825A1.966,1.966,0,0,0,0,63.053V79.481a2.01,2.01,0,0,0,1.825,2.1H13.763a1.98,1.98,0,0,0,1.785-2.1V63.053A1.936,1.936,0,0,0,13.763,61ZM2.594,66.275a.759.759,0,0,1,0-.968.541.541,0,0,1,.841,0l.769.885.769-.885a.541.541,0,0,1,.841,0,.759.759,0,0,1,0,.968l-.769.885.769.885a.759.759,0,0,1,0,.968.541.541,0,0,1-.841,0L4.2,68.128l-.769.885a.541.541,0,0,1-.841,0,.759.759,0,0,1,0-.968l.769-.885ZM7,75.858,4.625,78.6a.541.541,0,0,1-.841,0l-1.19-1.369a.759.759,0,0,1,0-.968.541.541,0,0,1,.841,0l.769.885L6.163,74.89a.541.541,0,0,1,.841,0A.759.759,0,0,1,7,75.858Zm0-4.791L4.625,73.8a.541.541,0,0,1-.841,0l-1.19-1.369a.759.759,0,0,1,0-.968.541.541,0,0,1,.841,0l.769.885L6.163,70.1A.541.541,0,0,1,7,70.1.759.759,0,0,1,7,71.067Zm5.568,6.361H8.964a.691.691,0,0,1,0-1.369h3.609a.691.691,0,0,1,0,1.369Zm0-4.791H8.964a.691.691,0,0,1,0-1.369h3.609a.691.691,0,0,1,0,1.369Zm0-4.791H8.964a.691.691,0,0,1,0-1.369h3.609a.691.691,0,0,1,0,1.369Z" transform="translate(0 -61)"/></g><g transform="translate(20.43 4.451)"><path class="c" d="M423.785,91A1.787,1.787,0,0,0,422,92.785V94.57h3.57V92.785A1.787,1.787,0,0,0,423.785,91Z" transform="translate(-422 -91)"/></g><g transform="translate(20.43 10.001)"><path class="d" d="M422,369.789Z" transform="translate(-422 -363.491)"/><path class="c" d="M422,211v6.3l.174-.174a2.281,2.281,0,0,1,3.221,0l.174.174V211Z" transform="translate(-422.001 -211)"/></g><g transform="translate(20.765 17.708)"><path class="c" d="M432.668,378.9a1.089,1.089,0,0,0-1.538,0l-.681.681.886,2.657a.595.595,0,0,0,1.128,0l.886-2.657Z" transform="translate(-430.449 -378.585)"/></g></g></g></g></svg>