<svg xmlns="http://www.w3.org/2000/svg" width="22" height="19.573" viewBox="0 0 22 19.573"><defs><style>.a{fill:#ff808b;}</style></defs><path class="a" d="M20.255,1.915A5.916,5.916,0,0,0,15.854,0,5.535,5.535,0,0,0,12.4,1.193,7.072,7.072,0,0,0,11,2.652,7.068,7.068,0,0,0,9.6,1.193,5.534,5.534,0,0,0,6.146,0a5.916,5.916,0,0,0-4.4,1.915A6.877,6.877,0,0,0,0,6.612a8.189,8.189,0,0,0,2.182,5.36A46.526,46.526,0,0,0,7.644,17.1c.757.645,1.615,1.376,2.505,2.155a1.292,1.292,0,0,0,1.7,0c.891-.779,1.749-1.51,2.506-2.156a46.5,46.5,0,0,0,5.462-5.126A8.188,8.188,0,0,0,22,6.612,6.876,6.876,0,0,0,20.255,1.915Zm0,0"/></svg>