<svg xmlns="http://www.w3.org/2000/svg" width="20" height="24" viewBox="0 0 20 24"><defs><style>.a{fill:#ff808b;}</style></defs><g transform="translate(-56.2 -2)"><path class="a" d="M73.582,17.06a22.021,22.021,0,0,0-4.2-1.021l-.35-1.545a8.255,8.255,0,0,1,1.592.723h0a.769.769,0,0,0,1-.165,8.362,8.362,0,0,0,1.742-5.16C73.376,5.539,70.157,2,66.2,2s-7.174,3.539-7.174,7.887a8.366,8.366,0,0,0,1.762,5.184.743.743,0,0,0,.961.161,8.057,8.057,0,0,1,1.617-.751l-.355,1.559a22.382,22.382,0,0,0-4.2,1.021A3.822,3.822,0,0,0,56.2,20.608v4.725a.686.686,0,0,0,.706.666H75.494a.686.686,0,0,0,.706-.666V20.608A3.82,3.82,0,0,0,73.582,17.06Zm-7.379-2.9c-1.477,0-2.718-1.488-2.889-3.388A9.968,9.968,0,0,0,66.7,7.652a10.571,10.571,0,0,0,2.243,1.385,4.822,4.822,0,0,1,.175,1.281C69.116,12.434,67.809,14.158,66.2,14.158Zm0,1.333a3.714,3.714,0,0,0,1.537-.345l.4,1.729c-.06.77-1.232,1.588-1.932,1.985-.761-.43-1.872-1.247-1.927-1.985l.39-1.72A3.671,3.671,0,0,0,66.2,15.491Zm-.32,4.73a.748.748,0,0,0,.636,0c.275-.132,2.473-1.224,2.939-2.816.581.09,1.156.2,1.722.345a5.007,5.007,0,0,1-9.952,0c.571-.142,1.146-.25,1.722-.345C63.409,18.992,65.607,20.089,65.882,20.221ZM61.567,13.78A7.142,7.142,0,0,1,60.44,9.891c0-3.615,2.583-6.554,5.762-6.554s5.762,2.939,5.762,6.554a7.6,7.6,0,0,1-.741,3.214c-.014.05-.507-.028-.7.276-.355-.184.091.093.109.661.576-.973.9.759.8-.545l1.35-5.065-.809-1.189a15.139,15.139,0,0,0-.541-1.832c-1.031-.435-.69-.419-1.511-1.19l-1.9-.884c-.335-.317-3.377-.211-3.6.186-.172.308-.655-.055-1.037.3-.326.4-.428.553-1.617,1.131l-.961,2.416A7.923,7.923,0,0,0,60.2,9.8l.243.09a11.39,11.39,0,0,0,.786,4.057C60.856,14.085,61.917,13.6,61.567,13.78ZM74.788,24.672H57.617V20.613a2.476,2.476,0,0,1,1.7-2.3c.17-.061-2.123.6-1.953.548.161,1.388-.934,4.329.251,5.812.962,1.221,6.8.158,8.586.158,1.657,0,6.854.881,8.782,0,1.341-.6-.057-4.2-.4-5.763.175.057-1.66-.816-1.49-.755a3.017,3.017,0,0,1,1.7,2.3v4.059Z" transform="translate(0)"/></g></svg>