<svg xmlns="http://www.w3.org/2000/svg" width="106.545" height="130.25" viewBox="0 0 106.545 130.25"><defs><style>.a{opacity:0.156;}.b{fill:#6e6e6e;}</style></defs><g class="a" transform="translate(0)"><path class="b" d="M209.508,46.785,201.066,55.1a26.216,26.216,0,0,0-35.932,1.978,25.24,25.24,0,0,0,.7,35.425,26.219,26.219,0,0,0,35.983.6,25.243,25.243,0,0,0,1.926-35.381l8.439-8.309,9.232,2.272a1.909,1.909,0,0,0,1.794-.489l14.12-13.9a1.839,1.839,0,0,0,.443-1.942,1.884,1.884,0,0,0-1.593-1.225l-10.14-.987-1-9.983a1.865,1.865,0,0,0-1.244-1.568,1.911,1.911,0,0,0-1.972.436l-14.12,13.9a1.841,1.841,0,0,0-.5,1.766Zm-2.681,27.624a22.434,22.434,0,0,1-17.781,21.857,22.807,22.807,0,0,1-25.509-12.388,22.136,22.136,0,0,1,6.794-27.193,22.984,22.984,0,0,1,28.435.676l-8.334,8.2a11.1,11.1,0,0,0-14.72,1.922,10.692,10.692,0,0,0,.674,14.6,11.111,11.111,0,0,0,14.836.6,10.7,10.7,0,0,0,1.887-14.5l8.33-8.2a22.012,22.012,0,0,1,5.387,14.419Zm-14.944,0a7.635,7.635,0,0,1-5.748,7.367,7.784,7.784,0,0,1-8.7-3.587,7.527,7.527,0,0,1,1.3-9.2,7.826,7.826,0,0,1,9.367-1.12L182.783,73.1a1.84,1.84,0,0,0,0,2.631,1.91,1.91,0,0,0,2.672,0l5.321-5.238a7.47,7.47,0,0,1,1.108,3.921ZM221.29,47.825,215.3,46.35l9.716-9.566,6.819.664Zm.376-20.385.675,6.713-9.716,9.566-1.5-5.9Z" transform="translate(-131.335 -18.673)"/><path class="b" d="M130.866,148.681a22.585,22.585,0,0,1,7.391,16.741v17.19a6.954,6.954,0,0,0,7,6.891h8.739v5.282a1.62,1.62,0,0,0,3.239,0V189.5h8.739a6.954,6.954,0,0,0,7-6.891V165.4a23.061,23.061,0,0,1,7.584-16.892,35.8,35.8,0,0,0,11.639-27.314A35.316,35.316,0,0,0,184.5,100.06a1.636,1.636,0,0,0-2.273-.278,1.578,1.578,0,0,0-.282,2.237,32.178,32.178,0,0,1,7.012,19.254,32.64,32.64,0,0,1-10.61,24.9,26.348,26.348,0,0,0-8.561,17.656H141.443a25.743,25.743,0,0,0-8.386-17.5,32.489,32.489,0,0,1-8.524-36.1A33.349,33.349,0,0,1,155.61,89.3h.314a33.378,33.378,0,0,1,19.645,6.554,1.636,1.636,0,0,0,2.267-.319,1.578,1.578,0,0,0-.324-2.232,36.629,36.629,0,0,0-21.558-7.191l-.344,0a36.587,36.587,0,0,0-34.1,22.953,35.645,35.645,0,0,0,9.351,39.614Zm35.105,37.634H145.255a3.737,3.737,0,0,1-3.76-3.7v-.684H160.05a1.594,1.594,0,1,0,0-3.189H141.495v-4.387h4.565a1.594,1.594,0,1,0,0-3.189h-4.565v-4.148h28.238v4.148h-18.1a1.594,1.594,0,1,0,0,3.189h18.1v4.387h-4.114a1.594,1.594,0,1,0,0,3.189h4.114v.684a3.737,3.737,0,0,1-3.761,3.7Z" transform="translate(-102.716 -66.129)"/><path class="b" d="M254.966,24.683a1.607,1.607,0,0,0,1.619-1.594V12.494a1.62,1.62,0,0,0-3.239,0V23.089A1.607,1.607,0,0,0,254.966,24.683Z" transform="translate(-200.791 -10.9)"/><path class="b" d="M400.357,200.9a1.594,1.594,0,1,0,0,3.188h10.761a1.594,1.594,0,1,0,0-3.188Z" transform="translate(-306.943 -150.415)"/><path class="b" d="M60.231,204.088H70.993a1.594,1.594,0,1,0,0-3.188H60.231a1.594,1.594,0,1,0,0,3.188Z" transform="translate(-58.612 -150.415)"/><path class="b" d="M117.294,71.7a1.637,1.637,0,0,0,2.29,0,1.577,1.577,0,0,0,0-2.255l-8.4-8.268a1.638,1.638,0,0,0-2.29,0,1.577,1.577,0,0,0,0,2.255Z" transform="translate(-94.979 -47.474)"/></g></svg>