<svg xmlns="http://www.w3.org/2000/svg" width="38" height="38" viewBox="0 0 38 38"><defs><style>.a,.b{fill:#4d4cac;}.a{opacity:0.1;}</style></defs><g transform="translate(-60 -1146)"><circle class="a" cx="19" cy="19" r="19" transform="translate(60 1146)"/><g transform="translate(69.001 1155)"><path class="b" d="M19.889,10.527H18.379a8.455,8.455,0,0,1-7.852,7.852v1.509H9.362V18.379a8.455,8.455,0,0,1-7.852-7.852H0V9.362H1.509A8.455,8.455,0,0,1,9.362,1.509V0h1.165V1.509a8.455,8.455,0,0,1,7.852,7.852h1.509ZM9.944,3.768a6.176,6.176,0,1,0,6.176,6.176A6.183,6.183,0,0,0,9.944,3.768Zm0,0"/><path class="b" d="M132.011,137.022a5.011,5.011,0,1,1,5.011-5.011A5.017,5.017,0,0,1,132.011,137.022Zm0-7.665a2.654,2.654,0,1,0,2.654,2.654A2.657,2.657,0,0,0,132.011,129.357Zm0,0" transform="translate(-122.067 -122.067)"/><path class="b" d="M219.157,220.646a1.489,1.489,0,1,1,1.489-1.489A1.491,1.491,0,0,1,219.157,220.646Zm0,0" transform="translate(-209.213 -209.213)"/></g></g></svg>