<svg xmlns="http://www.w3.org/2000/svg" xmlns:xlink="http://www.w3.org/1999/xlink" width="66" height="66" viewBox="0 0 66 66"><defs><style>.a{fill:#fff;}.b{fill:#767676;}.c{filter:url(#a);}</style><filter id="a" x="0" y="0" width="66" height="66" filterUnits="userSpaceOnUse"><feOffset dy="3" input="SourceAlpha"/><feGaussianBlur stdDeviation="5" result="b"/><feFlood flood-opacity="0.071"/><feComposite operator="in" in2="b"/><feComposite in="SourceGraphic"/></filter></defs><g transform="translate(-343 -347)"><g transform="translate(358 359)"><g class="c" transform="matrix(1, 0, 0, 1, -15, -12)"><circle class="a" cx="18" cy="18" r="18" transform="translate(15 12)"/></g></g><g transform="translate(368 369.258)"><g transform="translate(0 -0.258)"><path class="b" d="M0,77.677v3.316H3.316L13.1,71.209,9.784,67.893Z" transform="translate(0 -65.27)"/><path class="b" d="M263.606,2.326,261.539.259a.887.887,0,0,0-1.253,0l-1.62,1.62,3.32,3.32,1.62-1.62A.887.887,0,0,0,263.606,2.326Z" transform="translate(-248.189)"/></g></g></g></svg>