<svg xmlns="http://www.w3.org/2000/svg" width="20" height="15" viewBox="0 0 20 15"><defs><style>.a{fill:#767676;}</style></defs><g transform="translate(0 -64)"><g transform="translate(0 65.664)"><g transform="translate(0 0)"><path class="a" d="M9.981,106.673C4.857,106.673.29,112,.1,112.227a.415.415,0,0,0,0,.537A20.816,20.816,0,0,0,4.312,116.4l2.607-2.607a3.326,3.326,0,0,1,4.361-4.361l2.143-2.143A10.159,10.159,0,0,0,9.981,106.673Z" transform="translate(0 -106.673)"/></g></g><g transform="translate(2.496 64)"><g transform="translate(0 0)"><path class="a" d="M81.457,71.263a15.28,15.28,0,0,0-4.851-4.249l2.3-2.3a.417.417,0,0,0-.589-.589L64.149,78.288a.417.417,0,0,0,0,.589.413.413,0,0,0,.294.122.419.419,0,0,0,.3-.122l2.613-2.612a9.6,9.6,0,0,0,4.177,1.067c5.135,0,9.712-5.337,9.9-5.564A.418.418,0,0,0,81.457,71.263Zm-9.928,3.571a3.305,3.305,0,0,1-2.034-.711l4.657-4.656a3.3,3.3,0,0,1,.711,2.033A3.337,3.337,0,0,1,71.528,74.833Z" transform="translate(-64.027 -64)"/></g></g></g></svg>