<svg xmlns="http://www.w3.org/2000/svg" width="20" height="16.25" viewBox="0 0 20 16.25"><defs><style>.a{fill:#767676;}</style></defs><g transform="translate(0 -48)"><g transform="translate(0 48)"><path class="a" d="M19.375,59.25h-1.25V56.125A.625.625,0,0,0,17.5,55.5H10.625V53h1.25a.625.625,0,0,0,.625-.625v-3.75A.625.625,0,0,0,11.875,48H8.125a.625.625,0,0,0-.625.625v3.75A.625.625,0,0,0,8.125,53h1.25v2.5H2.5a.625.625,0,0,0-.625.625V59.25H.625A.625.625,0,0,0,0,59.875v3.75a.625.625,0,0,0,.625.625h3.75A.625.625,0,0,0,5,63.625v-3.75a.625.625,0,0,0-.625-.625H3.125v-2.5h6.25v2.5H8.125a.625.625,0,0,0-.625.625v3.75a.625.625,0,0,0,.625.625h3.75a.625.625,0,0,0,.625-.625v-3.75a.625.625,0,0,0-.625-.625h-1.25v-2.5h6.25v2.5h-1.25a.625.625,0,0,0-.625.625v3.75a.625.625,0,0,0,.625.625h3.75A.625.625,0,0,0,20,63.625v-3.75A.625.625,0,0,0,19.375,59.25Z" transform="translate(0 -48)"/></g></g></svg>