<svg xmlns="http://www.w3.org/2000/svg" width="12.314" height="12.314" viewBox="0 0 12.314 12.314"><defs><style>.a{fill:#4d4cac;opacity:0.8;}</style></defs><path class="a" d="M6.157,0a6.157,6.157,0,1,0,6.157,6.157A6.164,6.164,0,0,0,6.157,0Zm.4,9.81c-.293.049-.875.171-1.17.2a.72.72,0,0,1-.63-.328.769.769,0,0,1-.093-.7l1.164-3.2H4.618A1.447,1.447,0,0,1,5.757,4.427a4.456,4.456,0,0,1,1.17-.194.928.928,0,0,1,.63.328.769.769,0,0,1,.093.7l-1.164,3.2H7.7A1.362,1.362,0,0,1,6.558,9.81Zm.369-5.962a.77.77,0,1,1,.77-.77.77.77,0,0,1-.77.77Z"/></svg>