<svg xmlns="http://www.w3.org/2000/svg" width="30.118" height="37.259" viewBox="0 0 30.118 37.259"><defs><style>.a{fill:#767676;stroke:#767676;stroke-width:0.5px;}</style></defs><g transform="translate(0.059 0.05)"><path class="a" d="M49.755,43.231a.594.594,0,0,0-.55-.37H47.38V31.374a.594.594,0,0,0-.594-.594H44.7a11.538,11.538,0,0,0-4.02-3.36,5.642,5.642,0,0,0,1.252-3.545v-.491a2.654,2.654,0,0,0,0-5.175s-.014-.684-.034-.747c-.278-4.143-2.247-8.212-7.1-8.212H27.774a.594.594,0,0,0-.591.539,7.466,7.466,0,0,0,1.279,4.8,6.267,6.267,0,0,0-.8,3.067v.55a2.654,2.654,0,0,0,0,5.175v.492a5.642,5.642,0,0,0,1.252,3.546,11.54,11.54,0,0,0-4.02,3.36H22.809a.594.594,0,0,0-.594.594V42.861H20.392a.594.594,0,0,0-.415,1.018L22.4,46.24c.012.011.025.019.037.03a.593.593,0,0,0,.05.04.58.58,0,0,0,.055.03c.016.008.03.017.046.024a.587.587,0,0,0,.066.02c.015,0,.029.01.045.013a.6.6,0,0,0,.115.012H46.786A.6.6,0,0,0,46.9,46.4c.015,0,.03-.009.045-.013a.586.586,0,0,0,.066-.02c.016-.007.031-.016.046-.024a.578.578,0,0,0,.055-.03.59.59,0,0,0,.05-.04c.012-.01.025-.018.037-.03l2.419-2.361a.594.594,0,0,0,.135-.649ZM43.16,30.78H39.148l1.993-1.721A10.343,10.343,0,0,1,43.16,30.78Zm-9.823-1.233h.085l-1.16,1.23-2.713-2.342c.088-.043.177-.081.266-.121A5.639,5.639,0,0,0,33.337,29.547Zm6.445-1.234c.089.04.179.078.266.121l-2.713,2.342-1.16-1.229h.085a5.639,5.639,0,0,0,3.522-1.233ZM34.674,30.78l-.271-.543.4-.418.4.42-.271.543ZM42.807,20.8a1.47,1.47,0,0,1-.876,1.341V19.453A1.47,1.47,0,0,1,42.807,20.8ZM38.09,14.029c.887,2.414,2.371.7,2.6,3.223l-.131-.129c.263-2.07-3.009-1.983-4.812-1.978H32.433c-1.245,0,2.535.214,1.159,0,1.326-.135,6.523,2.794,7.1,1.978ZM26.79,20.8a1.47,1.47,0,0,1,.876-1.341v2.683A1.47,1.47,0,0,1,26.79,20.8Zm2.063-3.138a5.085,5.085,0,0,1,.5-2.212,5.178,5.178,0,0,0,3.075.887h3.311a5.619,5.619,0,0,1,3.977,1.635l1.023,1.012v4.9a4.489,4.489,0,0,1-4.484,4.484H33.337a4.489,4.489,0,0,1-4.484-4.484Zm-.4,11.4,1.993,1.721H26.437a10.35,10.35,0,0,1,2.018-1.722ZM22.217,44.049v.357l-.366-.357Zm23.975,1.173h0v0Zm1.188-.814V44.05h.366Z" transform="translate(-19.799 -9.25)"/><path class="b" d="M57.5,49.637a2.182,2.182,0,0,0,4.361,0,.587.587,0,0,0-1.175,0,1.007,1.007,0,0,1-2.012,0,.587.587,0,0,0-1.175,0Z" transform="translate(-44.681 -35.532)"/><path class="b" d="M54.521,39.373a.968.968,0,1,0-.968-.968A.968.968,0,0,0,54.521,39.373Z" transform="translate(-42.09 -27.866)"/><path class="b" d="M69.647,39.373a.968.968,0,1,0-.968-.968A.968.968,0,0,0,69.647,39.373Z" transform="translate(-52.078 -27.866)"/><path class="c" d="M61.969,91a2.691,2.691,0,1,0,2.691,2.691A2.691,2.691,0,0,0,61.969,91Zm0,3.388a.7.7,0,1,1,.7-.7A.7.7,0,0,1,61.969,94.388Z" transform="translate(-46.905 -64.198)"/></g></svg>