<?xml version="1.0" encoding="utf-8"?>
<!-- Generator: Adobe Illustrator 24.0.1, SVG Export Plug-In . SVG Version: 6.00 Build 0)  -->
<svg version="1.1" id="Layer_1" xmlns="http://www.w3.org/2000/svg" xmlns:xlink="http://www.w3.org/1999/xlink" x="0px" y="0px"
	 viewBox="0 0 190 47" style="enable-background:new 0 0 190 47;" xml:space="preserve">
<style type="text/css">
	.st0{opacity:0.3;fill:#BDA4FC;enable-background:new    ;}
	.st1{fill:#FF808B;}
	.st2{enable-background:new    ;}
</style>
<rect y="36" class="st0" width="79" height="11"/>
<path class="st1" d="M167.4,13.3L190,3.6l-11.5,20.8l-2.7-8L167.4,13.3z"/>
<g class="st2">
	<path class="st1" d="M15,22.7v3.8h6.2v3.4H15V34h7v3.6H10.5V19.1H22v3.5H15z"/>
	<path class="st1" d="M28.9,34.1h5.9v3.4H24.5V19.1h4.4V34.1z"/>
	<path class="st1" d="M56.3,20.8c1.5,1.2,2.5,2.9,3,5h-4.7c-0.3-0.8-0.9-1.5-1.6-2c-0.7-0.5-1.6-0.7-2.6-0.7c-1.3,0-2.3,0.5-3.1,1.4
		c-0.8,1-1.2,2.2-1.2,3.8s0.4,2.9,1.2,3.8c0.8,0.9,1.8,1.4,3.1,1.4c1,0,1.8-0.2,2.6-0.7c0.7-0.5,1.3-1.1,1.6-2h4.7
		c-0.5,2.1-1.4,3.7-3,5c-1.5,1.2-3.5,1.9-5.8,1.9c-1.8,0-3.4-0.4-4.7-1.2c-1.4-0.8-2.4-1.9-3.1-3.3s-1.1-3-1.1-4.9s0.4-3.4,1.1-4.9
		c0.7-1.4,1.8-2.5,3.1-3.3s2.9-1.2,4.7-1.2C52.9,19,54.8,19.6,56.3,20.8z"/>
	<path class="st1" d="M73.2,34.2h-6.9l-1.1,3.4h-4.7l6.7-18.3h5.1l6.7,18.3h-4.7L73.2,34.2z M72,30.8L69.8,24l-2.3,6.8H72z"/>
	<path class="st1" d="M90.2,37.5l-4-6.9h-1v6.9h-4.4V19.1h7.6c1.5,0,2.7,0.3,3.7,0.8s1.8,1.2,2.3,2.1c0.5,0.9,0.8,1.9,0.8,3
		c0,1.3-0.4,2.5-1.1,3.4c-0.7,0.9-1.8,1.6-3.2,1.9l4.4,7.2H90.2z M85.2,27.5H88c0.9,0,1.5-0.2,2-0.6c0.4-0.4,0.6-1,0.6-1.7
		c0-0.7-0.2-1.3-0.6-1.7s-1.1-0.6-1.9-0.6h-2.8V27.5z"/>
	<path class="st1" d="M106.8,37.5l-4-6.9h-1v6.9h-4.4V19.1h7.6c1.5,0,2.7,0.3,3.7,0.8s1.8,1.2,2.3,2.1c0.5,0.9,0.8,1.9,0.8,3
		c0,1.3-0.4,2.5-1.1,3.4c-0.7,0.9-1.8,1.6-3.2,1.9l4.4,7.2H106.8z M101.8,27.5h2.8c0.9,0,1.5-0.2,2-0.6c0.4-0.4,0.6-1,0.6-1.7
		c0-0.7-0.2-1.3-0.6-1.7c-0.4-0.4-1.1-0.6-1.9-0.6h-2.8V27.5z"/>
	<path class="st1" d="M118.3,22.7v3.8h6.2v3.4h-6.2V34h7v3.6h-11.4V19.1h11.4v3.5H118.3z"/>
	<path class="st1" d="M132.3,19.1v18.4h-4.4V19.1H132.3z"/>
	<path class="st1" d="M144.8,37.5l-4-6.9h-1v6.9h-4.4V19.1h7.6c1.5,0,2.7,0.3,3.7,0.8c1,0.5,1.8,1.2,2.3,2.1c0.5,0.9,0.8,1.9,0.8,3
		c0,1.3-0.4,2.5-1.1,3.4c-0.7,0.9-1.8,1.6-3.2,1.9l4.4,7.2H144.8z M139.8,27.5h2.8c0.9,0,1.5-0.2,2-0.6c0.4-0.4,0.6-1,0.6-1.7
		c0-0.7-0.2-1.3-0.6-1.7s-1.1-0.6-1.9-0.6h-2.8V27.5z"/>
	<path class="st1" d="M163.3,34.2h-6.9l-1.1,3.4h-4.7l6.7-18.3h5.1l6.7,18.3h-4.7L163.3,34.2z M162.1,30.8l-2.3-6.8l-2.3,6.8H162.1z
		"/>
</g>
</svg>
