<svg xmlns="http://www.w3.org/2000/svg" width="110.276" height="123" viewBox="0 0 110.276 123"><defs><style>.a{fill:#96acf9;}.b{fill:#ebebeb;}.c{fill:#bbb;}.d{fill:#ff808b;}.e{fill:#fff;}.f{fill:#6a6aa8;}</style></defs><path class="a" d="M55.138,24,109,77.865a4.187,4.187,0,0,1,1.273,2.969V136.4a4.254,4.254,0,0,1-4.241,4.241H4.241A4.254,4.254,0,0,1,0,136.4V78.926a3.85,3.85,0,0,1,1.273-2.969Zm0,0" transform="translate(0 -17.638)"/><path class="b" d="M48,0h84.828V101.793H48Zm0,0" transform="translate(-35.276)"/><g transform="translate(21.207 44.534)"><path class="c" d="M264,168h19.086v4.241H264Zm0,0" transform="translate(-215.224 -168)"/><path class="c" d="M80,200H99.086v4.241H80Zm0,0" transform="translate(-80 -191.517)"/><path class="c" d="M80,232h67.862v4.241H80Zm0,0" transform="translate(-80 -215.034)"/><path class="c" d="M136,264h38.172v4.241H136Zm0,0" transform="translate(-121.155 -238.552)"/><path class="c" d="M168,200h44.534v4.241H168Zm0,0" transform="translate(-144.672 -191.517)"/><path class="c" d="M80,168h44.534v4.241H80Zm0,0" transform="translate(-80 -168)"/></g><path class="d" d="M181.69,46.845A14.845,14.845,0,1,1,166.845,32,14.844,14.844,0,0,1,181.69,46.845Zm0,0" transform="translate(-111.707 -23.517)"/><path class="e" d="M186.245,61.7,178.4,53.851l2.97-2.97,4.877,4.878L199.605,42.4l2.97,2.97Zm0,0" transform="translate(-131.107 -31.159)"/><path class="f" d="M57.259,255.339a4.494,4.494,0,0,1-4.029,0L.425,224.8A3.989,3.989,0,0,0,0,226.5v57.471a4.254,4.254,0,0,0,4.241,4.241H106.034a4.254,4.254,0,0,0,4.241-4.241V228.405c0-.636-.212-1.06-.212-1.484Zm0,0" transform="translate(0 -165.209)"/><path class="a" d="M32,408H48.966v4.241H32Zm0,0" transform="translate(-23.517 -299.845)"/></svg>