<svg xmlns="http://www.w3.org/2000/svg" width="19.901" height="24" viewBox="0 0 19.901 24"><defs><style>.a{fill:#ff808b;}</style></defs><g transform="translate(-548 -792.665)"><path class="a" d="M30.828,32.467v-4.99l2.187-1.809,2.955-.7.594-.168,3.184,6.068,3.483-5.9,3.705.7,1.915,1.809.369.868v4.33Z" transform="translate(518 783)"/><g transform="translate(548 792.665)"><g transform="translate(0 0)"><path class="a" d="M140.239,14.836a4.742,4.742,0,0,0,4.369-3.666,6.842,6.842,0,0,0,1.375-4.209,4.805,4.805,0,0,0-5.805-4.6A4.506,4.506,0,0,1,137.32,2a.663.663,0,0,0-.737.113A6.664,6.664,0,0,0,134.5,7.032a6.819,6.819,0,0,0,1.379,4.147A4.727,4.727,0,0,0,140.239,14.836Zm0-1.337c-1.8,0-3.274-1.8-3.274-4.02a4.52,4.52,0,0,1,.949-2.83A5.7,5.7,0,0,0,143.5,9.172c0,.1.009.2.009.307C143.513,11.695,142.044,13.5,140.239,13.5ZM137.188,3.39a5.825,5.825,0,0,0,3.255.274c2.154-.42,3.746,1.1,3.845,3.3-.014.354.468.9.425,1.21.052-.229.546-.492.518-.15-.03.006.182-.425-.158-.378-.663.149-.689-.119-.205-.993.221-.39-.614-1.288-1.277-2.414l-1.375-.992-1.773.357c-.208-.35-1.288-.255-1.6,0l-1.65-.211a6.063,6.063,0,0,0-1.715,3.259c-.039.218.5.782.407,1.115-.033-.241.127.124.127-.121A7.031,7.031,0,0,1,137.188,3.39Z" transform="translate(-130.291 -1.932)"/><path class="a" d="M62.651,304.5a21.092,21.092,0,0,0-14.6,0,4.1,4.1,0,0,0-2.65,3.85V312.3a.665.665,0,0,0,.666.666H64.635a.665.665,0,0,0,.666-.666v-3.949A4.111,4.111,0,0,0,62.651,304.5Zm-5.092.161-2.211,4.143-2.206-4.143A19.729,19.729,0,0,1,57.559,304.664Zm-8.909,6.972H46.727v-3.278a2.794,2.794,0,0,1,.964-2.112,9.642,9.642,0,0,1,.954,4.185v1.2Zm12.06-1.209v1.209H49.987v-1.209a11,11,0,0,0-1.11-4.795,19.737,19.737,0,0,1,2.867-.76l3.018,5.668a.665.665,0,0,0,1.176,0l3.018-5.668a19.737,19.737,0,0,1,2.867.76A10.936,10.936,0,0,0,60.71,310.427Zm3.259,1.209H62.047v-1.209A9.71,9.71,0,0,1,63,306.242a2.794,2.794,0,0,1,.964,2.112v3.283Z" transform="translate(-45.4 -288.969)"/></g></g></g></svg>