<svg xmlns="http://www.w3.org/2000/svg" width="15.212" height="20" viewBox="0 0 15.212 20"><defs><style>.a{fill:#767676;}</style></defs><g transform="translate(-41.895)"><path class="a" d="M108.541,9.553c2.212,0,4.006-2.138,4.006-4.776S111.958,0,108.541,0s-4.006,2.138-4.006,4.776S106.329,9.553,108.541,9.553Z" transform="translate(-59.04)"/><path class="a" d="M41.9,300.457c0-.166,0-.047,0,0Z" transform="translate(0 -283.224)"/><path class="a" d="M308.085,301.637c0-.045,0-.315,0,0Z" transform="translate(-250.979 -284.274)"/><path class="a" d="M57.11,184.674c-.075-4.732-.689-6.081-5.392-6.934a3.289,3.289,0,0,1-4.41,0c-4.651.844-5.3,2.173-5.389,6.781-.007.376-.01.4-.012.352,0,.082,0,.233,0,.5,0,0,1.12,2.27,7.6,2.27s7.6-2.27,7.6-2.27c0-.17,0-.288,0-.368A3.055,3.055,0,0,1,57.11,184.674Z" transform="translate(-0.012 -167.64)"/></g></svg>