<svg xmlns="http://www.w3.org/2000/svg" width="8.752" height="10.939" viewBox="0 0 8.752 10.939"><defs><style>.a{fill:#fea29c;}.b{fill:#fff;}</style></defs><g transform="translate(0.374)"><path class="a" d="M189.127,2.452h2.9L194.567,0h-2.9Z" transform="translate(-186.446)"/><path class="a" d="M161.952,89.569h-3.128v-1.8Zm-2.773-.467H161.6v-.864h-2.417Z" transform="translate(-156.402 -85.81)"/><path class="a" d="M79.652,2.452h-2.9L74.188,0h2.919Z" transform="translate(-74.188)"/></g><g transform="translate(0 2.188)"><path class="a" d="M4.376,0A4.376,4.376,0,1,1,0,4.376,4.376,4.376,0,0,1,4.376,0Z"/><path class="b" d="M125.931,176.588l.626,1.765h2.007l-1.64,1.1.626,1.765-1.619-1.1-1.619,1.1.626-1.765-1.64-1.1h2.007Z" transform="translate(-121.439 -174.508)"/></g></svg>