<svg xmlns="http://www.w3.org/2000/svg" width="135" height="135" viewBox="0 0 135 135"><defs><style>.a,.b{fill:#96acf9;}.a{opacity:0.1;}</style></defs><g transform="translate(-646 -454)"><circle class="a" cx="67.5" cy="67.5" r="67.5" transform="translate(646 454)"/><g transform="translate(679 487)"><path class="b" d="M228.171,0H201.533A8.727,8.727,0,0,0,192.8,8.732V48.689a2.074,2.074,0,0,0,3.316,1.658l8.327-6.245h23.727A8.727,8.727,0,0,0,236.9,35.37V8.732A8.727,8.727,0,0,0,228.171,0ZM214.851,34.112a2.072,2.072,0,1,1,2.072-2.072A2.073,2.073,0,0,1,214.851,34.112Zm2.072-9.165v.433a2.072,2.072,0,0,1-4.145,0v-2.22a2.073,2.073,0,0,1,2.072-2.072,3.477,3.477,0,1,0-3.477-3.479,2.072,2.072,0,1,1-4.145,0v0a7.622,7.622,0,1,1,9.694,7.338Zm0,0" transform="translate(-166.902)"/><path class="b" d="M44.019,250.785a9.8,9.8,0,1,1-9.8-9.8A9.8,9.8,0,0,1,44.019,250.785Zm0,0" transform="translate(-21.051 -208.174)"/><path class="b" d="M13.171,382.8A13.172,13.172,0,0,0,0,395.976v2.606a2.072,2.072,0,0,0,2.072,2.072h22.2a2.073,2.073,0,0,0,2.072-2.072v-2.606A13.172,13.172,0,0,0,13.171,382.8Zm0,0" transform="translate(0 -330.655)"/></g></g></svg>