<svg xmlns="http://www.w3.org/2000/svg" width="8.068" height="11.647" viewBox="0 0 8.068 11.647"><defs><style>.a{fill:#4d4cac;stroke:#4d4cac;stroke-width:0.4px;}</style></defs><path class="a" d="M128.2,94.6a.475.475,0,0,0-.475-.475h-6.709a.475.475,0,1,0,0,.95h1.92a2.407,2.407,0,0,1,2.357,1.929h-4.276a.475.475,0,1,0,0,.95h4.276a2.408,2.408,0,0,1-2.357,1.929h-1.92a.475.475,0,0,0-.326.82l4.8,4.534a.475.475,0,1,0,.652-.69l-3.931-3.715h.726a3.358,3.358,0,0,0,3.319-2.879h1.47a.475.475,0,1,0,0-.95h-1.47a3.349,3.349,0,0,0-.985-1.929h2.455A.475.475,0,0,0,128.2,94.6Zm0,0" transform="translate(-120.33 -93.929)"/></svg>