<svg xmlns="http://www.w3.org/2000/svg" width="28.86" height="39.542" viewBox="0 0 28.86 39.542"><defs><style>.a{fill:#96ACF9;}.b{fill:#96ACF9;}</style></defs><g transform="translate(0)"><path class="a" d="M102.926,8.184A3.208,3.208,0,0,1,99.738,5V0H80.14a1.14,1.14,0,0,0-1.12,1.12v37.3a1.14,1.14,0,0,0,1.12,1.12H106.8a1.1,1.1,0,0,0,1.077-1.12V8.184Zm-14.6,11.759a3.067,3.067,0,0,1-2.154.6H84.748v2.2c0,1.292-1.551,1.292-1.551,0V16.8c0-.689.3-.948.991-.948a21.082,21.082,0,0,1,3.36.129C89.444,16.5,89.444,19.039,88.324,19.943Zm8.529.991a2.97,2.97,0,0,1-2.5,2.541l-2.972.086c-.818,0-.991-.345-.991-1.12V16.8c0-.689.3-.948.948-.948a17.589,17.589,0,0,1,3.4.129C96.723,16.5,97.283,19,96.852,20.934Zm6.633-4.049a.731.731,0,0,1-.56.172H99.867v1.981h2.584c.948,0,.948,1.163,0,1.163H99.867v2.541c0,1.12-.991,1.12-1.335.732a1.232,1.232,0,0,1-.215-.732V16.8c0-.689.3-.948.948-.948h3.661C103.787,15.851,103.787,16.627,103.486,16.885Z" transform="translate(-79.02)"/><path class="a" d="M164.851,251.716h-1.034v2.369h-.043c1.12,0,2.757.215,2.757-1.206C166.531,251.931,165.885,251.716,164.851,251.716Z" transform="translate(-158.046 -234.701)"/><path class="a" d="M271.23,253.627H270.2v5.212a9.365,9.365,0,0,0,2.24-.129c1.465-.517,1.378-3.36.861-4.221C272.824,253.714,272.134,253.627,271.23,253.627Z" transform="translate(-257.274 -236.484)"/><path class="b" d="M414.276,24.708h3.618l-4.953-4.954v3.618A1.315,1.315,0,0,0,414.276,24.708Z" transform="translate(-390.37 -18.42)"/></g></svg>