<svg xmlns="http://www.w3.org/2000/svg" width="18" height="15" viewBox="0 0 18 15"><defs><style>.a{fill:#767676;}</style></defs><g transform="translate(0 -42.667)"><g transform="translate(0 42.667)"><g transform="translate(0 0)"><circle class="a" cx="3.033" cy="3.033" r="3.033" transform="translate(5.967 5.271)"/><path class="a" d="M16.5,44.917H14.121a1.119,1.119,0,0,1-.8-.33l-1.371-1.371a1.863,1.863,0,0,0-1.326-.549H7.371a1.863,1.863,0,0,0-1.326.549L4.674,44.587a1.119,1.119,0,0,1-.8.33H1.5a1.5,1.5,0,0,0-1.5,1.5v9.75a1.5,1.5,0,0,0,1.5,1.5h15a1.5,1.5,0,0,0,1.5-1.5v-9.75A1.5,1.5,0,0,0,16.5,44.917ZM9,55.417a4.5,4.5,0,1,1,4.5-4.5A4.5,4.5,0,0,1,9,55.417Zm6-6.75a.75.75,0,1,1,.75-.75A.751.751,0,0,1,15,48.667Z" transform="translate(0 -42.667)"/></g></g></g></svg>