<svg xmlns="http://www.w3.org/2000/svg" width="13.01" height="11.943" viewBox="0 0 13.01 11.943"><defs><style>.a{fill:#ff808b;stroke:#ff808b;stroke-width:0.2px;}</style></defs><g transform="translate(0.1 -21.155)"><g transform="translate(0 21.255)"><path class="a" d="M10.279,21.333a2.514,2.514,0,0,0-1.79.741L2.656,27.908A1.777,1.777,0,1,0,5.168,30.42L10.6,24.991a.267.267,0,0,0-.377-.377L4.791,30.043a1.243,1.243,0,1,1-1.758-1.758l5.833-5.833a2,2,0,0,1,2.825,2.825L5.233,31.736A2.753,2.753,0,0,1,1.34,27.843l6.055-6.055a.267.267,0,1,0-.377-.377L.963,27.466A3.286,3.286,0,0,0,5.61,32.113l6.459-6.459a2.531,2.531,0,0,0-1.79-4.321Z" transform="translate(0 -21.333)"/></g></g></svg>