<svg xmlns="http://www.w3.org/2000/svg" width="45.396" height="45.42" viewBox="0 0 45.396 45.42"><defs><style>.a{opacity:0.35;}.b{fill:#fff;}</style></defs><g class="a"><path class="b" d="M9.885,412.054H3.207A3.211,3.211,0,0,0,0,415.26v3.067a1.33,1.33,0,0,0,.722,1.181,12.794,12.794,0,0,0,11.671,0,1.33,1.33,0,0,0,.722-1.181v-3.064a3.164,3.164,0,0,0-.938-2.253A3.275,3.275,0,0,0,9.885,412.054Zm0,0" transform="translate(0 -375.5)"/><path class="b" d="M24.925,300.908a4.772,4.772,0,1,0-4.772-4.772,4.772,4.772,0,0,0,4.772,4.772Zm0,0" transform="translate(-18.365 -265.518)"/><path class="b" d="M191.327,412.054h-6.678a3.211,3.211,0,0,0-3.208,3.21v3.067a1.33,1.33,0,0,0,.722,1.181,12.794,12.794,0,0,0,11.671,0,1.33,1.33,0,0,0,.722-1.181v-3.064a3.164,3.164,0,0,0-.938-2.253,3.274,3.274,0,0,0-2.291-.96Zm0,0" transform="translate(-165.347 -375.5)"/><path class="b" d="M201.594,296.136a4.772,4.772,0,1,0,4.772-4.772,4.772,4.772,0,0,0-4.772,4.772Zm0,0" transform="translate(-183.711 -265.518)"/><path class="b" d="M376.1,413.011a3.274,3.274,0,0,0-2.3-.957h-6.678a3.21,3.21,0,0,0-3.208,3.21v3.067a1.33,1.33,0,0,0,.722,1.181,12.794,12.794,0,0,0,11.671,0,1.33,1.33,0,0,0,.722-1.181v-3.065a3.165,3.165,0,0,0-.929-2.255Zm0,0" transform="translate(-331.633 -375.5)"/><path class="b" d="M384.063,296.136a4.773,4.773,0,1,0,4.772-4.772A4.773,4.773,0,0,0,384.063,296.136Zm0,0" transform="translate(-349.994 -265.518)"/><path class="b" d="M63.314,4.447h.532V22.36a1.33,1.33,0,0,0,1.33,1.33H93.2a1.33,1.33,0,0,0,1.33-1.33V4.447h.532a1.33,1.33,0,1,0,0-2.66H80.518V1.33a1.33,1.33,0,1,0-2.66,0v.457H63.314a1.33,1.33,0,0,0,0,2.66Zm5.61,8.666a1.33,1.33,0,0,1,1.881-.024l2.351,2.292,7.191-7.009a1.33,1.33,0,0,1,1.857,0l3.431,3.344L87.571,9.83a1.33,1.33,0,0,1,1.857,1.9l-2.864,2.792a1.33,1.33,0,0,1-1.857,0l-3.431-3.344-7.19,7.009a1.33,1.33,0,0,1-1.857,0l-3.28-3.2a1.33,1.33,0,0,1-.025-1.878Zm0,0" transform="translate(-56.486 0)"/></g></svg>