<svg xmlns="http://www.w3.org/2000/svg" width="61.908" height="81.903" viewBox="0 0 61.908 81.903"><defs><style>.a{opacity:0.19;}.b{fill:#4d4cac;opacity:0.3;}.c{fill:#554545;}</style></defs><g class="a" transform="translate(-8.002 1.511) rotate(-7)"><g transform="translate(8.062 0)"><path class="b" d="M4.326,2.488A2.174,2.174,0,1,1,2.487.023,2.174,2.174,0,0,1,4.326,2.488Z" transform="translate(0 0.002)"/><path class="b" d="M4.326,2.488A2.174,2.174,0,1,1,2.488.023,2.175,2.175,0,0,1,4.326,2.488Z" transform="translate(11.092 1.364)"/><path class="b" d="M4.326,2.488A2.174,2.174,0,1,1,2.488.023,2.174,2.174,0,0,1,4.326,2.488Z" transform="translate(22.184 2.727)"/><path class="b" d="M4.326,2.488A2.174,2.174,0,1,1,2.487.023,2.175,2.175,0,0,1,4.326,2.488Z" transform="translate(33.276 4.088)"/><path class="b" d="M4.327,2.488A2.174,2.174,0,1,1,2.488.023,2.174,2.174,0,0,1,4.327,2.488Z" transform="translate(44.368 5.449)"/><path class="b" d="M4.327,2.488A2.174,2.174,0,1,1,2.488.023,2.174,2.174,0,0,1,4.327,2.488Z" transform="translate(55.46 6.811)"/></g><g transform="translate(6.45 15.075)"><path class="b" d="M4.326,2.488A2.174,2.174,0,1,1,2.488.023,2.174,2.174,0,0,1,4.326,2.488Z" transform="translate(0.019 -0.157)"/><path class="b" d="M4.327,2.488A2.174,2.174,0,1,1,2.488.023,2.175,2.175,0,0,1,4.327,2.488Z" transform="translate(11.111 1.205)"/><path class="b" d="M4.325,2.488A2.174,2.174,0,1,1,2.488.023,2.173,2.173,0,0,1,4.325,2.488Z" transform="translate(22.205 2.568)"/><path class="b" d="M4.325,2.488A2.174,2.174,0,1,1,2.487.023,2.174,2.174,0,0,1,4.325,2.488Z" transform="translate(33.297 3.929)"/><path class="b" d="M4.326,2.488A2.174,2.174,0,1,1,2.488.023,2.173,2.173,0,0,1,4.326,2.488Z" transform="translate(44.388 5.29)"/><path class="b" d="M4.326,2.488A2.174,2.174,0,1,1,2.488.023,2.173,2.173,0,0,1,4.326,2.488Z" transform="translate(55.48 6.652)"/></g><g transform="translate(4.838 30.15)"><path class="b" d="M4.326,2.489A2.174,2.174,0,1,1,2.487.023,2.174,2.174,0,0,1,4.326,2.489Z" transform="translate(0.039 -0.315)"/><path class="b" d="M4.326,2.488A2.174,2.174,0,1,1,2.488.023,2.173,2.173,0,0,1,4.326,2.488Z" transform="translate(11.131 1.048)"/><path class="b" d="M4.326,2.489A2.174,2.174,0,1,1,2.488.023,2.175,2.175,0,0,1,4.326,2.489Z" transform="translate(22.223 2.41)"/><path class="b" d="M4.326,2.488A2.174,2.174,0,1,1,2.487.023,2.174,2.174,0,0,1,4.326,2.488Z" transform="translate(33.315 3.772)"/><path class="b" d="M4.326,2.489A2.174,2.174,0,1,1,2.488.023,2.174,2.174,0,0,1,4.326,2.489Z" transform="translate(44.407 5.134)"/><path class="c" d="M4.326,2.489A2.174,2.174,0,1,1,2.488.023,2.174,2.174,0,0,1,4.326,2.489Z" transform="translate(55.307 8.062)"/></g><g transform="translate(3.225 45.225)"><path class="b" d="M4.326,2.488A2.174,2.174,0,1,1,2.488.023,2.175,2.175,0,0,1,4.326,2.488Z" transform="translate(0.058 -0.472)"/><path class="b" d="M4.327,2.488A2.174,2.174,0,1,1,2.488.023,2.174,2.174,0,0,1,4.327,2.488Z" transform="translate(11.15 0.891)"/><path class="b" d="M4.326,2.488A2.174,2.174,0,1,1,2.488.023,2.175,2.175,0,0,1,4.326,2.488Z" transform="translate(22.243 2.253)"/><path class="b" d="M4.325,2.488A2.173,2.173,0,1,1,2.487.023,2.173,2.173,0,0,1,4.325,2.488Z" transform="translate(33.335 3.615)"/><path class="b" d="M4.326,2.488A2.174,2.174,0,1,1,2.488.023,2.174,2.174,0,0,1,4.326,2.488Z" transform="translate(44.426 4.977)"/><path class="c" d="M4.327,2.487A2.174,2.174,0,1,1,2.488.023,2.175,2.175,0,0,1,4.327,2.487Z" transform="translate(55.307 8.062)"/></g><g transform="translate(1.613 60.3)"><path class="b" d="M4.326,2.488A2.174,2.174,0,1,1,2.487.023,2.173,2.173,0,0,1,4.326,2.488Z" transform="translate(0.077 -0.631)"/><path class="b" d="M4.326,2.488A2.174,2.174,0,1,1,2.488.023,2.174,2.174,0,0,1,4.326,2.488Z" transform="translate(11.169 0.733)"/><path class="b" d="M4.326,2.488A2.174,2.174,0,1,1,2.488.023,2.173,2.173,0,0,1,4.326,2.488Z" transform="translate(22.262 2.094)"/><path class="b" d="M4.326,2.488A2.174,2.174,0,1,1,2.487.023,2.175,2.175,0,0,1,4.326,2.488Z" transform="translate(33.354 3.455)"/><path class="b" d="M4.326,2.488A2.174,2.174,0,1,1,2.488.023,2.174,2.174,0,0,1,4.326,2.488Z" transform="translate(44.445 4.818)"/><path class="c" d="M4.326,2.489A2.174,2.174,0,1,1,2.487.023,2.175,2.175,0,0,1,4.326,2.489Z" transform="translate(55.307 8.061)"/></g><g transform="translate(0 75.376)"><path class="b" d="M4.326,2.488A2.174,2.174,0,1,1,2.488.023,2.174,2.174,0,0,1,4.326,2.488Z" transform="translate(0.097 -0.79)"/><path class="b" d="M4.326,2.488A2.174,2.174,0,1,1,2.488.023,2.175,2.175,0,0,1,4.326,2.488Z" transform="translate(11.189 0.574)"/><path class="b" d="M4.326,2.488A2.174,2.174,0,1,1,2.488.023,2.174,2.174,0,0,1,4.326,2.488Z" transform="translate(22.282 1.935)"/><path class="b" d="M4.325,2.488A2.173,2.173,0,1,1,2.487.023,2.175,2.175,0,0,1,4.325,2.488Z" transform="translate(33.374 3.297)"/><path class="b" d="M4.326,2.488A2.174,2.174,0,1,1,2.488.023,2.173,2.173,0,0,1,4.326,2.488Z" transform="translate(44.466 4.659)"/><path class="c" d="M4.327,2.488A2.174,2.174,0,1,1,2.488.023,2.176,2.176,0,0,1,4.327,2.488Z" transform="translate(55.307 8.061)"/></g></g></svg>