<svg xmlns="http://www.w3.org/2000/svg" width="35.454" height="43.635" viewBox="0 0 35.454 43.635"><defs><style>.a{opacity:0.35;}.b{fill:#fff;}.c{fill:#528ee7;}</style></defs><g class="a"><path class="b" d="M5.454,32H30a5.454,5.454,0,0,1,5.454,5.454v30A5.454,5.454,0,0,1,30,72.908H5.454A5.454,5.454,0,0,1,0,67.453v-30A5.454,5.454,0,0,1,5.453,32Zm0,0" transform="translate(0 -29.273)"/><path class="b" d="M138.909,8.182h-8.182A2.727,2.727,0,0,1,128,5.454V0h13.636V5.454A2.727,2.727,0,0,1,138.909,8.182Zm0,0" transform="translate(-117.091)"/><path class="b" d="M138.909,34.727h-8.182A2.727,2.727,0,0,1,128,32v2.727a2.727,2.727,0,0,0,2.727,2.727h8.182a2.727,2.727,0,0,0,2.727-2.727V32A2.727,2.727,0,0,1,138.909,34.727Zm0,0" transform="translate(-117.091 -29.273)"/><path class="c" d="M70.3,144.363H65.364a1.364,1.364,0,1,1,0-2.727h3.248l2.727-5.454h3.954l1.364-4.091h4.091L82.111,128h5.07a1.364,1.364,0,0,1,0,2.727H84.073l-1.364,4.091h-4.09l-1.364,4.091H73.029Zm0,0" transform="translate(-58.546 -117.091)"/><g transform="translate(5.455 16.363)"><path class="c" d="M128,416h2.727v2.727H128Zm0,0" transform="translate(-122.547 -396.91)"/><path class="c" d="M192,416h2.727v2.727H192Zm0,0" transform="translate(-181.092 -396.91)"/><path class="c" d="M256,416h2.727v2.727H256Zm0,0" transform="translate(-239.638 -396.91)"/><path class="c" d="M320,416h2.727v2.727H320Zm0,0" transform="translate(-298.183 -396.91)"/><path class="c" d="M65.364,352a1.364,1.364,0,0,1,1.364,1.364v5.454a1.364,1.364,0,0,1-2.727,0v-5.454A1.364,1.364,0,0,1,65.364,352Zm0,0" transform="translate(-64.001 -338.364)"/><path class="c" d="M128,352h2.727v2.727H128Zm0,0" transform="translate(-122.547 -338.364)"/><path class="c" d="M193.364,288a1.364,1.364,0,0,1,1.364,1.364v5.454a1.364,1.364,0,0,1-2.727,0v-5.454A1.364,1.364,0,0,1,193.364,288Zm0,0" transform="translate(-181.092 -279.818)"/><path class="c" d="M257.364,240a1.364,1.364,0,0,1,1.364,1.364v9.545a1.364,1.364,0,0,1-2.727,0v-9.545A1.364,1.364,0,0,1,257.364,240Zm0,0" transform="translate(-239.638 -235.909)"/><path class="c" d="M321.364,192a1.364,1.364,0,0,1,1.364,1.364V207A1.364,1.364,0,0,1,320,207V193.364A1.364,1.364,0,0,1,321.364,192Zm0,0" transform="translate(-298.183 -192)"/></g></g></svg>