<svg xmlns="http://www.w3.org/2000/svg" width="745" height="366.871" viewBox="0 0 745 366.871"><defs><style>.a{fill:#f7f9ff;stroke-linecap:square;stroke-dasharray:10 10;opacity:0.43;}.b,.c{stroke:none;}.c{fill:#9096b3;}</style></defs><g class="a" transform="translate(2 2)"><path class="b" d="M5.52,0H735.48A5.573,5.573,0,0,1,741,5.626V357.245a5.573,5.573,0,0,1-5.52,5.626H5.52A5.573,5.573,0,0,1,0,357.245V5.626A5.573,5.573,0,0,1,5.52,0Z"/><path class="c" d="M 4.51947021484375 -2.00006103515625 L 5.51947021484375 -2.00006103515625 L 15.51947021484375 -2.00006103515625 L 16.51947021484375 -2.00006103515625 L 16.51947021484375 -6.103515625e-05 L 15.51947021484375 -6.103515625e-05 C 15.51947021484375 -6.103515625e-05 5.51947021484375 -6.103515625e-05 5.51947021484375 -6.103515625e-05 L 4.51947021484375 -6.103515625e-05 L 4.51947021484375 -2.00006103515625 Z M 24.51947021484375 -2.00006103515625 L 25.51947021484375 -2.00006103515625 L 35.51947021484375 -2.00006103515625 L 36.51947021484375 -2.00006103515625 L 36.51947021484375 -6.103515625e-05 L 35.51947021484375 -6.103515625e-05 C 35.51947021484375 -6.103515625e-05 25.51947021484375 -6.103515625e-05 25.51947021484375 -6.103515625e-05 L 24.51947021484375 -6.103515625e-05 L 24.51947021484375 -2.00006103515625 Z M 44.51947021484375 -2.00006103515625 L 45.51947021484375 -2.00006103515625 L 55.51947021484375 -2.00006103515625 L 56.51947021484375 -2.00006103515625 L 56.51947021484375 -6.103515625e-05 L 55.51947021484375 -6.103515625e-05 C 55.51947021484375 -6.103515625e-05 45.51947021484375 -6.103515625e-05 45.51947021484375 -6.103515625e-05 L 44.51947021484375 -6.103515625e-05 L 44.51947021484375 -2.00006103515625 Z M 64.51947021484375 -2.00006103515625 L 65.51947021484375 -2.00006103515625 L 75.51947021484375 -2.00006103515625 L 76.51947021484375 -2.00006103515625 L 76.51947021484375 -6.103515625e-05 L 75.51947021484375 -6.103515625e-05 C 75.51947021484375 -6.103515625e-05 65.51947021484375 -6.103515625e-05 65.51947021484375 -6.103515625e-05 L 64.51947021484375 -6.103515625e-05 L 64.51947021484375 -2.00006103515625 Z M 84.51947021484375 -2.00006103515625 L 85.51947021484375 -2.00006103515625 L 95.51947021484375 -2.00006103515625 L 96.51947021484375 -2.00006103515625 L 96.51947021484375 -6.103515625e-05 L 95.51947021484375 -6.103515625e-05 C 95.51947021484375 -6.103515625e-05 85.51947021484375 -6.103515625e-05 85.51947021484375 -6.103515625e-05 L 84.51947021484375 -6.103515625e-05 L 84.51947021484375 -2.00006103515625 Z M 104.5194702148438 -2.00006103515625 L 105.5194702148438 -2.00006103515625 L 115.5194702148438 -2.00006103515625 L 116.5194702148438 -2.00006103515625 L 116.5194702148438 -6.103515625e-05 L 115.5194702148438 -6.103515625e-05 C 115.5194702148438 -6.103515625e-05 105.5194702148438 -6.103515625e-05 105.5194702148438 -6.103515625e-05 L 104.5194702148438 -6.103515625e-05 L 104.5194702148438 -2.00006103515625 Z M 124.5194702148438 -2.00006103515625 L 125.5194702148438 -2.00006103515625 L 135.5194702148438 -2.00006103515625 L 136.5194702148438 -2.00006103515625 L 136.5194702148438 -6.103515625e-05 L 135.5194702148438 -6.103515625e-05 C 135.5194702148438 -6.103515625e-05 125.5194702148438 -6.103515625e-05 125.5194702148438 -6.103515625e-05 L 124.5194702148438 -6.103515625e-05 L 124.5194702148438 -2.00006103515625 Z M 144.5194702148438 -2.00006103515625 L 145.5194702148438 -2.00006103515625 L 155.5194702148438 -2.00006103515625 L 156.5194702148438 -2.00006103515625 L 156.5194702148438 -6.103515625e-05 L 155.5194702148438 -6.103515625e-05 C 155.5194702148438 -6.103515625e-05 145.5194702148438 -6.103515625e-05 145.5194702148438 -6.103515625e-05 L 144.5194702148438 -6.103515625e-05 L 144.5194702148438 -2.00006103515625 Z M 164.5194702148438 -2.00006103515625 L 165.5194702148438 -2.00006103515625 L 175.5194702148438 -2.00006103515625 L 176.5194702148438 -2.00006103515625 L 176.5194702148438 -6.103515625e-05 L 175.5194702148438 -6.103515625e-05 C 175.5194702148438 -6.103515625e-05 165.5194702148438 -6.103515625e-05 165.5194702148438 -6.103515625e-05 L 164.5194702148438 -6.103515625e-05 L 164.5194702148438 -2.00006103515625 Z M 184.5194702148438 -2.00006103515625 L 185.5194702148438 -2.00006103515625 L 195.5194702148438 -2.00006103515625 L 196.5194702148438 -2.00006103515625 L 196.5194702148438 -6.103515625e-05 L 195.5194702148438 -6.103515625e-05 C 195.5194702148438 -6.103515625e-05 185.5194702148438 -6.103515625e-05 185.5194702148438 -6.103515625e-05 L 184.5194702148438 -6.103515625e-05 L 184.5194702148438 -2.00006103515625 Z M 204.5194702148438 -2.00006103515625 L 205.5194702148438 -2.00006103515625 L 215.5194702148438 -2.00006103515625 L 216.5194702148438 -2.00006103515625 L 216.5194702148438 -6.103515625e-05 L 215.5194702148438 -6.103515625e-05 C 215.5194702148438 -6.103515625e-05 205.5194702148438 -6.103515625e-05 205.5194702148438 -6.103515625e-05 L 204.5194702148438 -6.103515625e-05 L 204.5194702148438 -2.00006103515625 Z M 224.5194702148438 -2.00006103515625 L 225.5194702148438 -2.00006103515625 L 235.5195007324219 -2.00006103515625 L 236.5195007324219 -2.00006103515625 L 236.5195007324219 -6.103515625e-05 L 235.5195007324219 -6.103515625e-05 C 235.5195007324219 -6.103515625e-05 225.5194702148438 -6.103515625e-05 225.5194702148438 -6.103515625e-05 L 224.5194702148438 -6.103515625e-05 L 224.5194702148438 -2.00006103515625 Z M 244.5195007324219 -2.00006103515625 L 245.5195007324219 -2.00006103515625 L 255.5195007324219 -2.00006103515625 L 256.5195007324219 -2.00006103515625 L 256.5195007324219 -6.103515625e-05 L 255.5195007324219 -6.103515625e-05 C 255.5195007324219 -6.103515625e-05 245.5195007324219 -6.103515625e-05 245.5195007324219 -6.103515625e-05 L 244.5195007324219 -6.103515625e-05 L 244.5195007324219 -2.00006103515625 Z M 264.5195007324219 -2.00006103515625 L 265.5195007324219 -2.00006103515625 L 275.5195007324219 -2.00006103515625 L 276.5195007324219 -2.00006103515625 L 276.5195007324219 -6.103515625e-05 L 275.5195007324219 -6.103515625e-05 C 275.5195007324219 -6.103515625e-05 265.5195007324219 -6.103515625e-05 265.5195007324219 -6.103515625e-05 L 264.5195007324219 -6.103515625e-05 L 264.5195007324219 -2.00006103515625 Z M 284.5195007324219 -2.00006103515625 L 285.5195007324219 -2.00006103515625 L 295.5195007324219 -2.00006103515625 L 296.5195007324219 -2.00006103515625 L 296.5195007324219 -6.103515625e-05 L 295.5195007324219 -6.103515625e-05 C 295.5195007324219 -6.103515625e-05 285.5195007324219 -6.103515625e-05 285.5195007324219 -6.103515625e-05 L 284.5195007324219 -6.103515625e-05 L 284.5195007324219 -2.00006103515625 Z M 304.5195007324219 -2.00006103515625 L 305.5195007324219 -2.00006103515625 L 315.5195007324219 -2.00006103515625 L 316.5195007324219 -2.00006103515625 L 316.5195007324219 -6.103515625e-05 L 315.5195007324219 -6.103515625e-05 C 315.5195007324219 -6.103515625e-05 305.5195007324219 -6.103515625e-05 305.5195007324219 -6.103515625e-05 L 304.5195007324219 -6.103515625e-05 L 304.5195007324219 -2.00006103515625 Z M 324.5195007324219 -2.00006103515625 L 325.5195007324219 -2.00006103515625 L 335.5195007324219 -2.00006103515625 L 336.5195007324219 -2.00006103515625 L 336.5195007324219 -6.103515625e-05 L 335.5195007324219 -6.103515625e-05 C 335.5195007324219 -6.103515625e-05 325.5195007324219 -6.103515625e-05 325.5195007324219 -6.103515625e-05 L 324.5195007324219 -6.103515625e-05 L 324.5195007324219 -2.00006103515625 Z M 344.5195007324219 -2.00006103515625 L 345.5195007324219 -2.00006103515625 L 355.5195007324219 -2.00006103515625 L 356.5195007324219 -2.00006103515625 L 356.5195007324219 -6.103515625e-05 L 355.5195007324219 -6.103515625e-05 C 355.5195007324219 -6.103515625e-05 345.5195007324219 -6.103515625e-05 345.5195007324219 -6.103515625e-05 L 344.5195007324219 -6.103515625e-05 L 344.5195007324219 -2.00006103515625 Z M 364.5195007324219 -2.00006103515625 L 365.5195007324219 -2.00006103515625 L 375.5195007324219 -2.00006103515625 L 376.5195007324219 -2.00006103515625 L 376.5195007324219 -6.103515625e-05 L 375.5195007324219 -6.103515625e-05 C 375.5195007324219 -6.103515625e-05 365.5195007324219 -6.103515625e-05 365.5195007324219 -6.103515625e-05 L 364.5195007324219 -6.103515625e-05 L 364.5195007324219 -2.00006103515625 Z M 384.5195007324219 -2.00006103515625 L 385.5195007324219 -2.00006103515625 L 395.5195007324219 -2.00006103515625 L 396.5195007324219 -2.00006103515625 L 396.5195007324219 -6.103515625e-05 L 395.5195007324219 -6.103515625e-05 C 395.5195007324219 -6.103515625e-05 385.5195007324219 -6.103515625e-05 385.5195007324219 -6.103515625e-05 L 384.5195007324219 -6.103515625e-05 L 384.5195007324219 -2.00006103515625 Z M 404.5195007324219 -2.00006103515625 L 405.5195007324219 -2.00006103515625 L 415.5195007324219 -2.00006103515625 L 416.5195007324219 -2.00006103515625 L 416.5195007324219 -6.103515625e-05 L 415.5195007324219 -6.103515625e-05 C 415.5195007324219 -6.103515625e-05 405.5195007324219 -6.103515625e-05 405.5195007324219 -6.103515625e-05 L 404.5195007324219 -6.103515625e-05 L 404.5195007324219 -2.00006103515625 Z M 424.5195007324219 -2.00006103515625 L 425.5195007324219 -2.00006103515625 L 435.5195007324219 -2.00006103515625 L 436.5195007324219 -2.00006103515625 L 436.5195007324219 -6.103515625e-05 L 435.5195007324219 -6.103515625e-05 C 435.5195007324219 -6.103515625e-05 425.5195007324219 -6.103515625e-05 425.5195007324219 -6.103515625e-05 L 424.5195007324219 -6.103515625e-05 L 424.5195007324219 -2.00006103515625 Z M 444.5195007324219 -2.00006103515625 L 445.5195007324219 -2.00006103515625 L 455.5195007324219 -2.00006103515625 L 456.5195007324219 -2.00006103515625 L 456.5195007324219 -6.103515625e-05 L 455.5195007324219 -6.103515625e-05 C 455.5195007324219 -6.103515625e-05 445.5195007324219 -6.103515625e-05 445.5195007324219 -6.103515625e-05 L 444.5195007324219 -6.103515625e-05 L 444.5195007324219 -2.00006103515625 Z M 464.5195007324219 -2.00006103515625 L 465.5195007324219 -2.00006103515625 L 475.5195007324219 -2.00006103515625 L 476.5195007324219 -2.00006103515625 L 476.5195007324219 -6.103515625e-05 L 475.5195007324219 -6.103515625e-05 C 475.5195007324219 -6.103515625e-05 465.5195007324219 -6.103515625e-05 465.5195007324219 -6.103515625e-05 L 464.5195007324219 -6.103515625e-05 L 464.5195007324219 -2.00006103515625 Z M 484.5195007324219 -2.00006103515625 L 485.5195007324219 -2.00006103515625 L 495.5195007324219 -2.00006103515625 L 496.5195007324219 -2.00006103515625 L 496.5195007324219 -6.103515625e-05 L 495.5195007324219 -6.103515625e-05 C 495.5195007324219 -6.103515625e-05 485.5195007324219 -6.103515625e-05 485.5195007324219 -6.103515625e-05 L 484.5195007324219 -6.103515625e-05 L 484.5195007324219 -2.00006103515625 Z M 504.5195007324219 -2.00006103515625 L 505.5195007324219 -2.00006103515625 L 515.51953125 -2.00006103515625 L 516.51953125 -2.00006103515625 L 516.51953125 -6.103515625e-05 L 515.51953125 -6.103515625e-05 C 515.51953125 -6.103515625e-05 505.5195007324219 -6.103515625e-05 505.5195007324219 -6.103515625e-05 L 504.5195007324219 -6.103515625e-05 L 504.5195007324219 -2.00006103515625 Z M 524.51953125 -2.00006103515625 L 525.51953125 -2.00006103515625 L 535.51953125 -2.00006103515625 L 536.51953125 -2.00006103515625 L 536.51953125 -6.103515625e-05 L 535.51953125 -6.103515625e-05 C 535.51953125 -6.103515625e-05 525.51953125 -6.103515625e-05 525.51953125 -6.103515625e-05 L 524.51953125 -6.103515625e-05 L 524.51953125 -2.00006103515625 Z M 544.51953125 -2.00006103515625 L 545.51953125 -2.00006103515625 L 555.51953125 -2.00006103515625 L 556.51953125 -2.00006103515625 L 556.51953125 -6.103515625e-05 L 555.51953125 -6.103515625e-05 C 555.51953125 -6.103515625e-05 545.51953125 -6.103515625e-05 545.51953125 -6.103515625e-05 L 544.51953125 -6.103515625e-05 L 544.51953125 -2.00006103515625 Z M 564.51953125 -2.00006103515625 L 565.51953125 -2.00006103515625 L 575.51953125 -2.00006103515625 L 576.51953125 -2.00006103515625 L 576.51953125 -6.103515625e-05 L 575.51953125 -6.103515625e-05 C 575.51953125 -6.103515625e-05 565.51953125 -6.103515625e-05 565.51953125 -6.103515625e-05 L 564.51953125 -6.103515625e-05 L 564.51953125 -2.00006103515625 Z M 584.51953125 -2.00006103515625 L 585.51953125 -2.00006103515625 L 595.51953125 -2.00006103515625 L 596.51953125 -2.00006103515625 L 596.51953125 -6.103515625e-05 L 595.51953125 -6.103515625e-05 C 595.51953125 -6.103515625e-05 585.51953125 -6.103515625e-05 585.51953125 -6.103515625e-05 L 584.51953125 -6.103515625e-05 L 584.51953125 -2.00006103515625 Z M 604.51953125 -2.00006103515625 L 605.51953125 -2.00006103515625 L 615.51953125 -2.00006103515625 L 616.51953125 -2.00006103515625 L 616.51953125 -6.103515625e-05 L 615.51953125 -6.103515625e-05 C 615.51953125 -6.103515625e-05 605.51953125 -6.103515625e-05 605.51953125 -6.103515625e-05 L 604.51953125 -6.103515625e-05 L 604.51953125 -2.00006103515625 Z M 624.51953125 -2.00006103515625 L 625.51953125 -2.00006103515625 L 635.51953125 -2.00006103515625 L 636.51953125 -2.00006103515625 L 636.51953125 -6.103515625e-05 L 635.51953125 -6.103515625e-05 C 635.51953125 -6.103515625e-05 625.51953125 -6.103515625e-05 625.51953125 -6.103515625e-05 L 624.51953125 -6.103515625e-05 L 624.51953125 -2.00006103515625 Z M 644.51953125 -2.00006103515625 L 645.51953125 -2.00006103515625 L 655.51953125 -2.00006103515625 L 656.51953125 -2.00006103515625 L 656.51953125 -6.103515625e-05 L 655.51953125 -6.103515625e-05 C 655.51953125 -6.103515625e-05 645.51953125 -6.103515625e-05 645.51953125 -6.103515625e-05 L 644.51953125 -6.103515625e-05 L 644.51953125 -2.00006103515625 Z M 664.51953125 -2.00006103515625 L 665.51953125 -2.00006103515625 L 675.51953125 -2.00006103515625 L 676.51953125 -2.00006103515625 L 676.51953125 -6.103515625e-05 L 675.51953125 -6.103515625e-05 C 675.51953125 -6.103515625e-05 665.51953125 -6.103515625e-05 665.51953125 -6.103515625e-05 L 664.51953125 -6.103515625e-05 L 664.51953125 -2.00006103515625 Z M 684.51953125 -2.00006103515625 L 685.51953125 -2.00006103515625 L 695.51953125 -2.00006103515625 L 696.51953125 -2.00006103515625 L 696.51953125 -6.103515625e-05 L 695.51953125 -6.103515625e-05 C 695.51953125 -6.103515625e-05 685.51953125 -6.103515625e-05 685.51953125 -6.103515625e-05 L 684.51953125 -6.103515625e-05 L 684.51953125 -2.00006103515625 Z M 704.51953125 -2.00006103515625 L 705.51953125 -2.00006103515625 L 715.51953125 -2.00006103515625 L 716.51953125 -2.00006103515625 L 716.51953125 -6.103515625e-05 L 715.51953125 -6.103515625e-05 C 715.51953125 -6.103515625e-05 705.51953125 -6.103515625e-05 705.51953125 -6.103515625e-05 L 704.51953125 -6.103515625e-05 L 704.51953125 -2.00006103515625 Z M 724.51953125 -2.00006103515625 L 725.5194702148438 -2.00006103515625 L 735.4805297851562 -2.00006103515625 L 735.53369140625 -1.999847412109375 L 736.53369140625 -1.996337890625 L 736.5195922851562 0.003662109375 L 735.5195922851562 6.103515625e-05 C 735.506591796875 -6.103515625e-05 735.4935302734375 -6.103515625e-05 735.4805297851562 -6.103515625e-05 C 735.4805297851562 -6.103515625e-05 725.5194702148438 -6.103515625e-05 725.5194702148438 -6.103515625e-05 L 724.51953125 -6.103515625e-05 L 724.51953125 -2.00006103515625 Z M 741 5.9100341796875 L 743 5.9100341796875 L 743 6.9100341796875 L 743 16.9100341796875 L 743 17.9100341796875 L 741 17.9100341796875 L 741 5.9100341796875 Z M 741 25.9100341796875 L 743 25.9100341796875 L 743 26.9100341796875 L 743 36.9100341796875 L 743 37.9100341796875 L 741 37.9100341796875 L 741 25.9100341796875 Z M 741 45.9100341796875 L 743 45.9100341796875 L 743 46.9100341796875 L 743 56.9100341796875 L 743 57.9100341796875 L 741 57.9100341796875 L 741 45.9100341796875 Z M 741 65.9100341796875 L 743 65.9100341796875 L 743 66.9100341796875 L 743 76.9100341796875 L 743 77.9100341796875 L 741 77.9100341796875 L 741 65.9100341796875 Z M 741 85.9100341796875 L 743 85.9100341796875 L 743 86.9100341796875 L 743 96.9100341796875 L 743 97.9100341796875 L 741 97.9100341796875 L 741 85.9100341796875 Z M 741 105.9100341796875 L 743 105.9100341796875 L 743 106.9100494384766 L 743 116.9100494384766 L 743 117.9100494384766 L 741 117.9100494384766 L 741 105.9100341796875 Z M 741 125.9100494384766 L 743 125.9100494384766 L 743 126.9100494384766 L 743 136.9100494384766 L 743 137.9100494384766 L 741 137.9100494384766 L 741 125.9100494384766 Z M 741 145.9100494384766 L 743 145.9100494384766 L 743 146.9100494384766 L 743 156.9100494384766 L 743 157.9100494384766 L 741 157.9100494384766 L 741 145.9100494384766 Z M 741 165.9100494384766 L 743 165.9100494384766 L 743 166.9100494384766 L 743 176.9100494384766 L 743 177.9100494384766 L 741 177.9100494384766 L 741 165.9100494384766 Z M 741 185.9100494384766 L 743 185.9100494384766 L 743 186.9100494384766 L 743 196.9100494384766 L 743 197.9100494384766 L 741 197.9100494384766 L 741 185.9100494384766 Z M 741 205.9100494384766 L 743 205.9100494384766 L 743 206.9100494384766 L 743 216.9100494384766 L 743 217.9100494384766 L 741 217.9100494384766 L 741 205.9100494384766 Z M 741 225.9100494384766 L 743 225.9100494384766 L 743 226.9100494384766 L 743 236.9100494384766 L 743 237.9100494384766 L 741 237.9100494384766 L 741 225.9100494384766 Z M 741 245.9100494384766 L 743 245.9100494384766 L 743 246.9100494384766 L 743 256.9100341796875 L 743 257.9100341796875 L 741 257.9100341796875 L 741 245.9100494384766 Z M 741 265.9100341796875 L 743 265.9100341796875 L 743 266.9100341796875 L 743 276.9100341796875 L 743 277.9100341796875 L 741 277.9100341796875 L 741 265.9100341796875 Z M 741 285.9100341796875 L 743 285.9100341796875 L 743 286.9100341796875 L 743 296.9100341796875 L 743 297.9100341796875 L 741 297.9100341796875 L 741 285.9100341796875 Z M 741 305.9100341796875 L 743 305.9100341796875 L 743 306.9100341796875 L 743 316.9100341796875 L 743 317.9100341796875 L 741 317.9100341796875 L 741 305.9100341796875 Z M 741 325.9100341796875 L 743 325.9100341796875 L 743 326.9100341796875 L 743 336.9100341796875 L 743 337.9100341796875 L 741 337.9100341796875 L 741 325.9100341796875 Z M 741 345.9100341796875 L 743 345.9100341796875 L 743 346.9100341796875 L 743 356.9100341796875 L 743 357.9100341796875 L 741 357.9100341796875 L 741 357.2451477050781 C 741 357.2451477050781 741 357.2451477050781 741 357.2451477050781 L 741 345.9100341796875 Z M 723.5703735351562 362.8710327148438 L 735.4805297851562 362.8710327148438 C 735.4805297851562 362.8710327148438 735.4805297851562 362.8710327148438 735.4805297851562 362.8710327148438 L 735.5703735351562 362.8710327148438 L 735.5703735351562 364.8710327148438 L 734.5703735351562 364.8710327148438 L 724.5703735351562 364.8710327148438 L 723.5703735351562 364.8710327148438 L 723.5703735351562 362.8710327148438 Z M 703.5703735351562 362.8710327148438 L 715.5703735351562 362.8710327148438 L 715.5703735351562 364.8710327148438 L 714.5703735351562 364.8710327148438 L 704.5703735351562 364.8710327148438 L 703.5703735351562 364.8710327148438 L 703.5703735351562 362.8710327148438 Z M 683.5703735351562 362.8710327148438 L 695.5703735351562 362.8710327148438 L 695.5703735351562 364.8710327148438 L 694.5703735351562 364.8710327148438 L 684.5703735351562 364.8710327148438 L 683.5703735351562 364.8710327148438 L 683.5703735351562 362.8710327148438 Z M 663.5703735351562 362.8710327148438 L 675.5703735351562 362.8710327148438 L 675.5703735351562 364.8710327148438 L 674.5703735351562 364.8710327148438 L 664.5703735351562 364.8710327148438 L 663.5703735351562 364.8710327148438 L 663.5703735351562 362.8710327148438 Z M 643.5703735351562 362.8710327148438 L 655.5703735351562 362.8710327148438 L 655.5703735351562 364.8710327148438 L 654.5703735351562 364.8710327148438 L 644.5703735351562 364.8710327148438 L 643.5703735351562 364.8710327148438 L 643.5703735351562 362.8710327148438 Z M 623.5703735351562 362.8710327148438 L 635.5703735351562 362.8710327148438 L 635.5703735351562 364.8710327148438 L 634.5703735351562 364.8710327148438 L 624.5703735351562 364.8710327148438 L 623.5703735351562 364.8710327148438 L 623.5703735351562 362.8710327148438 Z M 603.5704345703125 362.8710327148438 L 615.5703735351562 362.8710327148438 L 615.5703735351562 364.8710327148438 L 614.5703735351562 364.8710327148438 L 604.5704345703125 364.8710327148438 L 603.5704345703125 364.8710327148438 L 603.5704345703125 362.8710327148438 Z M 583.5704345703125 362.8710327148438 L 595.5704345703125 362.8710327148438 L 595.5704345703125 364.8710327148438 L 594.5704345703125 364.8710327148438 L 584.5704345703125 364.8710327148438 L 583.5704345703125 364.8710327148438 L 583.5704345703125 362.8710327148438 Z M 563.5704345703125 362.8710327148438 L 575.5704345703125 362.8710327148438 L 575.5704345703125 364.8710327148438 L 574.5704345703125 364.8710327148438 L 564.5704345703125 364.8710327148438 L 563.5704345703125 364.8710327148438 L 563.5704345703125 362.8710327148438 Z M 543.5704345703125 362.8710327148438 L 555.5704345703125 362.8710327148438 L 555.5704345703125 364.8710327148438 L 554.5704345703125 364.8710327148438 L 544.5704345703125 364.8710327148438 L 543.5704345703125 364.8710327148438 L 543.5704345703125 362.8710327148438 Z M 523.5704345703125 362.8710327148438 L 535.5704345703125 362.8710327148438 L 535.5704345703125 364.8710327148438 L 534.5704345703125 364.8710327148438 L 524.5704345703125 364.8710327148438 L 523.5704345703125 364.8710327148438 L 523.5704345703125 362.8710327148438 Z M 503.5704040527344 362.8710327148438 L 515.5704345703125 362.8710327148438 L 515.5704345703125 364.8710327148438 L 514.5704345703125 364.8710327148438 L 504.5704040527344 364.8710327148438 L 503.5704040527344 364.8710327148438 L 503.5704040527344 362.8710327148438 Z M 483.5704040527344 362.8710327148438 L 495.5704040527344 362.8710327148438 L 495.5704040527344 364.8710327148438 L 494.5704040527344 364.8710327148438 L 484.5704040527344 364.8710327148438 L 483.5704040527344 364.8710327148438 L 483.5704040527344 362.8710327148438 Z M 463.5704040527344 362.8710327148438 L 475.5704040527344 362.8710327148438 L 475.5704040527344 364.8710327148438 L 474.5704040527344 364.8710327148438 L 464.5704040527344 364.8710327148438 L 463.5704040527344 364.8710327148438 L 463.5704040527344 362.8710327148438 Z M 443.5704040527344 362.8710327148438 L 455.5704040527344 362.8710327148438 L 455.5704040527344 364.8710327148438 L 454.5704040527344 364.8710327148438 L 444.5704040527344 364.8710327148438 L 443.5704040527344 364.8710327148438 L 443.5704040527344 362.8710327148438 Z M 423.5704040527344 362.8710327148438 L 435.5704040527344 362.8710327148438 L 435.5704040527344 364.8710327148438 L 434.5704040527344 364.8710327148438 L 424.5704040527344 364.8710327148438 L 423.5704040527344 364.8710327148438 L 423.5704040527344 362.8710327148438 Z M 403.5704040527344 362.8710327148438 L 415.5704040527344 362.8710327148438 L 415.5704040527344 364.8710327148438 L 414.5704040527344 364.8710327148438 L 404.5704040527344 364.8710327148438 L 403.5704040527344 364.8710327148438 L 403.5704040527344 362.8710327148438 Z M 383.5704040527344 362.8710327148438 L 395.5704040527344 362.8710327148438 L 395.5704040527344 364.8710327148438 L 394.5704040527344 364.8710327148438 L 384.5704040527344 364.8710327148438 L 383.5704040527344 364.8710327148438 L 383.5704040527344 362.8710327148438 Z M 363.5704040527344 362.8710327148438 L 375.5704040527344 362.8710327148438 L 375.5704040527344 364.8710327148438 L 374.5704040527344 364.8710327148438 L 364.5704040527344 364.8710327148438 L 363.5704040527344 364.8710327148438 L 363.5704040527344 362.8710327148438 Z M 343.5704040527344 362.8710327148438 L 355.5704040527344 362.8710327148438 L 355.5704040527344 364.8710327148438 L 354.5704040527344 364.8710327148438 L 344.5704040527344 364.8710327148438 L 343.5704040527344 364.8710327148438 L 343.5704040527344 362.8710327148438 Z M 323.5704040527344 362.8710327148438 L 335.5704040527344 362.8710327148438 L 335.5704040527344 364.8710327148438 L 334.5704040527344 364.8710327148438 L 324.5704040527344 364.8710327148438 L 323.5704040527344 364.8710327148438 L 323.5704040527344 362.8710327148438 Z M 303.5704040527344 362.8710327148438 L 315.5704040527344 362.8710327148438 L 315.5704040527344 364.8710327148438 L 314.5704040527344 364.8710327148438 L 304.5704040527344 364.8710327148438 L 303.5704040527344 364.8710327148438 L 303.5704040527344 362.8710327148438 Z M 283.5704040527344 362.8710327148438 L 295.5704040527344 362.8710327148438 L 295.5704040527344 364.8710327148438 L 294.5704040527344 364.8710327148438 L 284.5704040527344 364.8710327148438 L 283.5704040527344 364.8710327148438 L 283.5704040527344 362.8710327148438 Z M 263.5704040527344 362.8710327148438 L 275.5704040527344 362.8710327148438 L 275.5704040527344 364.8710327148438 L 274.5704040527344 364.8710327148438 L 264.5704040527344 364.8710327148438 L 263.5704040527344 364.8710327148438 L 263.5704040527344 362.8710327148438 Z M 243.5704040527344 362.8710327148438 L 255.5704040527344 362.8710327148438 L 255.5704040527344 364.8710327148438 L 254.5704040527344 364.8710327148438 L 244.5704040527344 364.8710327148438 L 243.5704040527344 364.8710327148438 L 243.5704040527344 362.8710327148438 Z M 223.5703735351562 362.8710327148438 L 235.5704040527344 362.8710327148438 L 235.5704040527344 364.8710327148438 L 234.5704040527344 364.8710327148438 L 224.5703735351562 364.8710327148438 L 223.5703735351562 364.8710327148438 L 223.5703735351562 362.8710327148438 Z M 203.5703735351562 362.8710327148438 L 215.5703735351562 362.8710327148438 L 215.5703735351562 364.8710327148438 L 214.5703735351562 364.8710327148438 L 204.5703735351562 364.8710327148438 L 203.5703735351562 364.8710327148438 L 203.5703735351562 362.8710327148438 Z M 183.5703735351562 362.8710327148438 L 195.5703735351562 362.8710327148438 L 195.5703735351562 364.8710327148438 L 194.5703735351562 364.8710327148438 L 184.5703735351562 364.8710327148438 L 183.5703735351562 364.8710327148438 L 183.5703735351562 362.8710327148438 Z M 163.5703735351562 362.8710327148438 L 175.5703735351562 362.8710327148438 L 175.5703735351562 364.8710327148438 L 174.5703735351562 364.8710327148438 L 164.5703735351562 364.8710327148438 L 163.5703735351562 364.8710327148438 L 163.5703735351562 362.8710327148438 Z M 143.5703735351562 362.8710327148438 L 155.5703735351562 362.8710327148438 L 155.5703735351562 364.8710327148438 L 154.5703735351562 364.8710327148438 L 144.5703735351562 364.8710327148438 L 143.5703735351562 364.8710327148438 L 143.5703735351562 362.8710327148438 Z M 123.5703735351562 362.8710327148438 L 135.5703735351562 362.8710327148438 L 135.5703735351562 364.8710327148438 L 134.5703735351562 364.8710327148438 L 124.5703735351562 364.8710327148438 L 123.5703735351562 364.8710327148438 L 123.5703735351562 362.8710327148438 Z M 103.5703735351562 362.8710327148438 L 115.5703735351562 362.8710327148438 L 115.5703735351562 364.8710327148438 L 114.5703735351562 364.8710327148438 L 104.5703735351562 364.8710327148438 L 103.5703735351562 364.8710327148438 L 103.5703735351562 362.8710327148438 Z M 83.57037353515625 362.8710327148438 L 95.57037353515625 362.8710327148438 L 95.57037353515625 364.8710327148438 L 94.57037353515625 364.8710327148438 L 84.57037353515625 364.8710327148438 L 83.57037353515625 364.8710327148438 L 83.57037353515625 362.8710327148438 Z M 63.57037353515625 362.8710327148438 L 75.57037353515625 362.8710327148438 L 75.57037353515625 364.8710327148438 L 74.57037353515625 364.8710327148438 L 64.57037353515625 364.8710327148438 L 63.57037353515625 364.8710327148438 L 63.57037353515625 362.8710327148438 Z M 43.57037353515625 362.8710327148438 L 55.57037353515625 362.8710327148438 L 55.57037353515625 364.8710327148438 L 54.57037353515625 364.8710327148438 L 44.57037353515625 364.8710327148438 L 43.57037353515625 364.8710327148438 L 43.57037353515625 362.8710327148438 Z M 23.57037353515625 362.8710327148438 L 35.57037353515625 362.8710327148438 L 35.57037353515625 364.8710327148438 L 34.57037353515625 364.8710327148438 L 24.57037353515625 364.8710327148438 L 23.57037353515625 364.8710327148438 L 23.57037353515625 362.8710327148438 Z M 3.5902099609375 362.6159362792969 L 4.5750732421875 362.7890319824219 C 4.739990234375 362.8179931640625 4.9073486328125 362.8395080566406 5.076904296875 362.8532104492188 C 5.0772705078125 362.8532409667969 5.07757568359375 362.853271484375 5.07794189453125 362.8533020019531 C 5.08319091796875 362.8537292480469 5.0885009765625 362.8541564941406 5.09381103515625 362.8545532226562 C 5.0943603515625 362.8546142578125 5.09503173828125 362.8546447753906 5.0955810546875 362.8547058105469 C 5.10113525390625 362.8551330566406 5.10675048828125 362.8555603027344 5.1123046875 362.85595703125 C 5.1123046875 362.85595703125 5.11236572265625 362.8559875488281 5.11236572265625 362.8559875488281 C 5.12957763671875 362.8572692871094 5.1468505859375 362.8584594726562 5.16412353515625 362.8595581054688 C 5.1650390625 362.859619140625 5.1658935546875 362.8596801757812 5.16680908203125 362.8597412109375 C 5.1715087890625 362.8600463867188 5.17620849609375 362.8603515625 5.180908203125 362.8606262207031 C 5.1820068359375 362.8606872558594 5.18316650390625 362.8607788085938 5.18426513671875 362.86083984375 C 5.1888427734375 362.8611145019531 5.19342041015625 362.8613891601562 5.19805908203125 362.8616638183594 C 5.19915771484375 362.8617248535156 5.20025634765625 362.8617858886719 5.20135498046875 362.8618469238281 C 5.206787109375 362.8621826171875 5.21221923828125 362.8624877929688 5.2176513671875 362.8627624511719 C 5.2176513671875 362.8627624511719 5.2178955078125 362.86279296875 5.2178955078125 362.86279296875 C 5.22369384765625 362.8630981445312 5.22955322265625 362.8634338378906 5.23541259765625 362.8637084960938 C 5.235595703125 362.8637390136719 5.23577880859375 362.8637390136719 5.2359619140625 362.8637390136719 C 5.24139404296875 362.8640441894531 5.246826171875 362.8642883300781 5.25225830078125 362.8645629882812 C 5.25335693359375 362.8646240234375 5.25421142578125 362.8646545410156 5.25531005859375 362.8647155761719 C 5.25982666015625 362.8649291992188 5.2642822265625 362.8651428222656 5.26873779296875 362.8653259277344 C 5.27020263671875 362.8654174804688 5.271728515625 362.865478515625 5.273193359375 362.8655395507812 C 5.2774658203125 362.86572265625 5.28173828125 362.8659057617188 5.2860107421875 362.8660888671875 C 5.28729248046875 362.8661499023438 5.2889404296875 362.8662109375 5.29022216796875 362.8662719726562 C 5.29443359375 362.866455078125 5.2987060546875 362.8666381835938 5.30291748046875 362.8667907714844 C 5.30438232421875 362.8668518066406 5.3057861328125 362.8669128417969 5.3072509765625 362.8669738769531 C 5.31842041015625 362.8674011230469 5.32965087890625 362.8677978515625 5.34088134765625 362.8681640625 C 5.34197998046875 362.8681945800781 5.3431396484375 362.8682250976562 5.34423828125 362.8682556152344 C 5.34857177734375 362.868408203125 5.3529052734375 362.8685302734375 5.35723876953125 362.86865234375 C 5.35906982421875 362.8687133789062 5.36090087890625 362.8687744140625 5.36273193359375 362.8688049316406 C 5.366455078125 362.8689270019531 5.37017822265625 362.8690185546875 5.37384033203125 362.8691101074219 C 5.3758544921875 362.8691711425781 5.37786865234375 362.8692321777344 5.37994384765625 362.8692932128906 C 5.3837890625 362.869384765625 5.38763427734375 362.8694763183594 5.39154052734375 362.8695678710938 C 5.3931884765625 362.8695983886719 5.39453125 362.86962890625 5.396240234375 362.8696594238281 C 5.400634765625 362.8697814941406 5.40509033203125 362.869873046875 5.40948486328125 362.8699340820312 C 5.41082763671875 362.8699645996094 5.4119873046875 362.8699951171875 5.41326904296875 362.8700256347656 C 5.4188232421875 362.8701171875 5.42437744140625 362.8702392578125 5.429931640625 362.8703308105469 C 5.4310302734375 362.8703308105469 5.43194580078125 362.870361328125 5.43304443359375 362.870361328125 C 5.4375 362.8704223632812 5.44189453125 362.8705139160156 5.4462890625 362.8705444335938 C 5.44818115234375 362.8705749511719 5.45037841796875 362.87060546875 5.45220947265625 362.8706359863281 C 5.4559326171875 362.8706665039062 5.4595947265625 362.8707275390625 5.46331787109375 362.8707580566406 C 5.46539306640625 362.8707885742188 5.4671630859375 362.8707885742188 5.46923828125 362.8708190917969 C 5.4727783203125 362.870849609375 5.47637939453125 362.8708801269531 5.47998046875 362.8709106445312 C 5.48199462890625 362.8709106445312 5.48419189453125 362.8709411621094 5.48626708984375 362.8709411621094 C 5.489990234375 362.8709716796875 5.49371337890625 362.8709716796875 5.4974365234375 362.8710021972656 C 5.4991455078125 362.8710021972656 5.501220703125 362.8710021972656 5.5029296875 362.8710327148438 C 5.5084228515625 362.8710327148438 5.51397705078125 362.8710327148438 5.51947021484375 362.8710327148438 C 5.51947021484375 362.8710327148438 5.51947021484375 362.8710327148438 5.51947021484375 362.8710327148438 L 15.57037353515625 362.8710327148438 L 15.57037353515625 364.8710327148438 L 14.57037353515625 364.8710327148438 L 5.51947021484375 364.8710327148438 C 5.0869140625 364.8710327148438 4.6527099609375 364.833251953125 4.22900390625 364.7588500976562 L 3.24407958984375 364.5857543945312 L 3.5902099609375 362.6159362792969 Z M -2 344.0508422851562 L 0 344.0508422851562 L 0 345.0508422851562 C 0 345.0508422851562 0 355.0508422851562 0 355.0508422851562 L 0 356.0508422851562 L -2 356.0508422851562 L -2 355.0508422851562 L -2 345.0508422851562 L -2 344.0508422851562 Z M -2 324.0508422851562 L 0 324.0508422851562 L 0 325.0508422851562 C 0 325.0508422851562 0 335.0508422851562 0 335.0508422851562 L 0 336.0508422851562 L -2 336.0508422851562 L -2 335.0508422851562 L -2 325.0508422851562 L -2 324.0508422851562 Z M -2 304.0508422851562 L 0 304.0508422851562 L 0 305.0508422851562 C 0 305.0508422851562 0 315.0508422851562 0 315.0508422851562 L 0 316.0508422851562 L -2 316.0508422851562 L -2 315.0508422851562 L -2 305.0508422851562 L -2 304.0508422851562 Z M -2 284.0508422851562 L 0 284.0508422851562 L 0 285.0508422851562 C 0 285.0508422851562 0 295.0508422851562 0 295.0508422851562 L 0 296.0508422851562 L -2 296.0508422851562 L -2 295.0508422851562 L -2 285.0508422851562 L -2 284.0508422851562 Z M -2 264.0508422851562 L 0 264.0508422851562 L 0 265.0508422851562 C 0 265.0508422851562 0 275.0508422851562 0 275.0508422851562 L 0 276.0508422851562 L -2 276.0508422851562 L -2 275.0508422851562 L -2 265.0508422851562 L -2 264.0508422851562 Z M -2 244.0508422851562 L 0 244.0508422851562 L 0 245.0508422851562 C 0 245.0508422851562 0 255.0508422851562 0 255.0508422851562 L 0 256.0508422851562 L -2 256.0508422851562 L -2 255.0508422851562 L -2 245.0508422851562 L -2 244.0508422851562 Z M -2 224.0508422851562 L 0 224.0508422851562 L 0 225.0508422851562 C 0 225.0508422851562 0 235.0508422851562 0 235.0508422851562 L 0 236.0508422851562 L -2 236.0508422851562 L -2 235.0508422851562 L -2 225.0508422851562 L -2 224.0508422851562 Z M -2 204.0508422851562 L 0 204.0508422851562 L 0 205.0508422851562 C 0 205.0508422851562 0 215.0508422851562 0 215.0508422851562 L 0 216.0508422851562 L -2 216.0508422851562 L -2 215.0508422851562 L -2 205.0508422851562 L -2 204.0508422851562 Z M -2 184.0508422851562 L 0 184.0508422851562 L 0 185.0508422851562 C 0 185.0508422851562 0 195.0508422851562 0 195.0508422851562 L 0 196.0508422851562 L -2 196.0508422851562 L -2 195.0508422851562 L -2 185.0508422851562 L -2 184.0508422851562 Z M -2 164.0508422851562 L 0 164.0508422851562 L 0 165.0508422851562 C 0 165.0508422851562 0 175.0508422851562 0 175.0508422851562 L 0 176.0508422851562 L -2 176.0508422851562 L -2 175.0508422851562 L -2 165.0508422851562 L -2 164.0508422851562 Z M -2 144.0508422851562 L 0 144.0508422851562 L 0 145.0508422851562 C 0 145.0508422851562 0 155.0508422851562 0 155.0508422851562 L 0 156.0508422851562 L -2 156.0508422851562 L -2 155.0508422851562 L -2 145.0508422851562 L -2 144.0508422851562 Z M -2 124.0508422851562 L 0 124.0508422851562 L 0 125.0508422851562 C 0 125.0508422851562 0 135.0508422851562 0 135.0508422851562 L 0 136.0508422851562 L -2 136.0508422851562 L -2 135.0508422851562 L -2 125.0508422851562 L -2 124.0508422851562 Z M -2 104.0508422851562 L 0 104.0508422851562 L 0 105.0508422851562 C 0 105.0508422851562 0 115.0508422851562 0 115.0508422851562 L 0 116.0508422851562 L -2 116.0508422851562 L -2 115.0508422851562 L -2 105.0508422851562 L -2 104.0508422851562 Z M -2 84.05084228515625 L 0 84.05084228515625 L 0 85.05084228515625 C 0 85.05084228515625 0 95.05084228515625 0 95.05084228515625 L 0 96.05084228515625 L -2 96.05084228515625 L -2 95.05084228515625 L -2 85.05084228515625 L -2 84.05084228515625 Z M -2 64.05084228515625 L 0 64.05084228515625 L 0 65.05084228515625 C 0 65.05084228515625 0 75.05084228515625 0 75.05084228515625 L 0 76.05084228515625 L -2 76.05084228515625 L -2 75.05084228515625 L -2 65.05084228515625 L -2 64.05084228515625 Z M -2 44.05084228515625 L 0 44.05084228515625 L 0 45.05084228515625 C 0 45.05084228515625 0 55.05084228515625 0 55.05084228515625 L 0 56.05084228515625 L -2 56.05084228515625 L -2 55.05084228515625 L -2 45.05084228515625 L -2 44.05084228515625 Z M -2 24.05084228515625 L 0 24.05084228515625 L 0 25.05084228515625 C 0 25.05084228515625 0 35.05084228515625 0 35.05084228515625 L 0 36.05084228515625 L -2 36.05084228515625 L -2 35.05084228515625 L -2 25.05084228515625 L -2 24.05084228515625 Z M -1.86279296875 3.858734130859375 L 0.12738037109375 4.056640625 L 0.02880859375 5.04754638671875 C 0.02691650390625 5.06658935546875 0.025146484375 5.08526611328125 0.0234375 5.104339599609375 C 0.00787353515625 5.276092529296875 0 5.450103759765625 0 5.625946044921875 C 0 5.625946044921875 0 15.05084228515625 0 15.05084228515625 L 0 16.05084228515625 L -2 16.05084228515625 L -2 15.05084228515625 L -2 5.625946044921875 C -2 5.368560791015625 -1.98712158203125 5.108734130859375 -1.9617919921875 4.853851318359375 L -1.86279296875 3.858734130859375 Z"/></g></svg>