<svg xmlns="http://www.w3.org/2000/svg" width="17.991" height="17.157" viewBox="0 0 17.991 17.157"><defs><style>.a{fill:#fac81d;}.b{fill:#fdae00;}</style></defs><path class="a" d="M67.115,21.889l-5.827-.54-2.315-5.375a.467.467,0,0,0-.858,0L55.8,21.349l-5.827.541a.467.467,0,0,0-.265.816l4.4,3.863-1.287,5.709a.467.467,0,0,0,.694.5l5.032-2.988,5.032,2.988a.467.467,0,0,0,.694-.5l-1.287-5.709,4.4-3.863A.467.467,0,0,0,67.115,21.889Z" transform="translate(-49.548 -15.692)"/><path class="b" d="M59.814,17.928l-.842-1.955a.467.467,0,0,0-.858,0L55.8,21.349l-5.827.541a.467.467,0,0,0-.265.816l4.4,3.863-1.287,5.709a.467.467,0,0,0,.694.5l.67-.4A36.252,36.252,0,0,1,59.814,17.928Z" transform="translate(-49.548 -15.692)"/></svg>