<svg xmlns="http://www.w3.org/2000/svg" width="30.2" height="30.2" viewBox="0 0 30.2 30.2"><defs><style>.a{opacity:1;}.b,.c{fill:#767676;stroke:#767676;}.b{stroke-width:0.2px;}</style></defs><g class="a" transform="translate(0.1 0.1)"><g transform="translate(2.512)"><path class="b" d="M47.536,0A7.536,7.536,0,0,0,40,7.536v5.526a3.521,3.521,0,0,0,3.517,3.517h.5l.386-2.036L42.4,11.24c-1.387,0,.784,1.837-.36.813l2.368-4.3c4.1-1.639,1.823-.417,4.865-2.352s3.1.469,3.1,4.076l1.7,3.58c0,1.387.661-4.541-.725-4.539l-2.878,6.021.589,2.036h.5a3.521,3.521,0,0,0,3.517-3.517V7.536A7.536,7.536,0,0,0,47.536,0Z" transform="translate(-40)"/></g><g transform="translate(2.512 22.417)"><path class="b" d="M41.631,360.365l.367-.578-.849-.539-.367.579a5.008,5.008,0,0,0,.207,5.668v1.336h1v-1.507a.5.5,0,0,0-.11-.314A4,4,0,0,1,41.631,360.365Z" transform="translate(-40.003 -359.248)"/></g><g transform="translate(18.445)"><path class="b" d="M305.043,0h-6.531A2.515,2.515,0,0,0,296,2.512V7.536a2.515,2.515,0,0,0,2.512,2.512h1v2.01a.5.5,0,0,0,.31.464.5.5,0,0,0,.192.038.5.5,0,0,0,.355-.147l2.365-2.365h2.3a2.515,2.515,0,0,0,2.512-2.512V2.512A2.515,2.515,0,0,0,305.043,0Zm1.507,7.536a1.507,1.507,0,0,1-1.507,1.507h-2.512a.5.5,0,0,0-.355.147l-1.654,1.654v-1.3a.5.5,0,0,0-.5-.5h-1.507A1.507,1.507,0,0,1,297,7.536V2.512A1.507,1.507,0,0,1,298.512,1h6.531a1.507,1.507,0,0,1,1.507,1.507Z" transform="translate(-296)"/></g><g transform="translate(21.792 3.966)"><rect class="c" width="1.488"/></g><g transform="translate(24 3.966)"><g transform="translate(0 0)"><rect class="c" width="2.975"/></g></g><g transform="translate(21.792 5.937)"><g transform="translate(0 0)"><rect class="b" width="3.027" height="1"/></g></g><g transform="translate(15.509 22.417)"><path class="b" d="M249.44,359.827l-.367-.579-.849.539.367.579a4,4,0,0,1-.254,4.644.5.5,0,0,0-.11.314v1.507h1V365.5A5.008,5.008,0,0,0,249.44,359.827Z" transform="translate(-248.224 -359.248)"/></g><g transform="translate(0 4.386)"><path class="b" d="M29.5,82.471H25a3.5,3.5,0,0,0-3.493,3.355L20,88.536V86.468a3.5,3.5,0,0,0-3.5-3.5H14.672l-.014-.011-.009.011H13.5a1,1,0,0,1-1-1V80.8a5,5,0,0,0,2.5-4.32v-4a5,5,0,0,0-.6-2.371.5.5,0,0,0-.65-.215L5.287,73.872A.5.5,0,0,0,5,74.324v2.152A5,5,0,0,0,7.5,80.8v1.176a1,1,0,0,1-1,1h-3a3.5,3.5,0,0,0-3.5,3.5V95.46H1V86.468a2.5,2.5,0,0,1,2.5-2.5H5.091l4.5,6.286a.5.5,0,0,0,.4.209H10a.5.5,0,0,0,.4-.2l4.75-6.295H16.5a2.5,2.5,0,0,1,2.5,2.5v4a.5.5,0,0,0,.937.242l2.357-4.239H25.16L20.285,95.46h1.137L26.3,86.468h.2a3.5,3.5,0,0,0,3.5-3.5A.5.5,0,0,0,29.5,82.471Zm-23.5-6V74.641l7.72-3.63A3.994,3.994,0,0,1,14,72.479v4a4,4,0,0,1-8,0Zm4.01,12.646H10.4l1.235-2.154Zm2.381-3.153H7.75l-1.431-2H6.5a2,2,0,0,0,2-2v-.73a5,5,0,0,0,3,0v.73a2,2,0,0,0,2,2h.4Zm14.108-.5,3-2c.239-1.162-5.688,0-4.5,0h3.95C27.1,84.434,27.687,85.467,26.5,85.468Z" transform="translate(0 -69.847)"/></g></g></svg>