<svg xmlns="http://www.w3.org/2000/svg" width="30.2" height="30.2" viewBox="0 0 30.2 30.2"><defs><style>.a{opacity:1;}.b{fill:#767676;stroke:#767676;stroke-width:0.2px;}</style></defs><g class="a" transform="translate(0.1 0.1)"><path class="b" d="M25.193,19.387a5.811,5.811,0,0,0-5.782,5.323h-3.9V23.359l-1.275-.3a7.7,7.7,0,0,0-.668-1.612l.69-1.114-.955-.955,8.141-8.141a5.815,5.815,0,1,0-.685-.684l-8.141,8.141-.955-.955-1.114.69a7.7,7.7,0,0,0-1.612-.669l-.3-1.275H7.29v-3.9a5.806,5.806,0,1,0-.968,0v3.9H4.972l-.3,1.275a7.7,7.7,0,0,0-1.632.679l-.952-.5H1V31H14.064V29.912l-.5-.952a7.683,7.683,0,0,0,.679-1.632l1.275-.3V25.677h3.9a5.8,5.8,0,1,0,5.782-6.29Zm-2.9-8.718a2.906,2.906,0,0,1,2.9-2.894c1.6,0-2.558-.7-2.9,2.894-.81.61,3.992.976,2.9.976A4.807,4.807,0,0,1,22.291,10.669Zm1.451-5.314c0-.8.026,1.452.826,1.452s.626-.45.626.35.8-.35,0-.35A1.453,1.453,0,0,1,23.742,5.355Zm1.452-3.387a4.833,4.833,0,0,1,3.774,7.859,3.882,3.882,0,0,0-2.175-2.671,2.419,2.419,0,1,0-3.2,0,3.882,3.882,0,0,0-2.175,2.671,4.833,4.833,0,0,1,3.774-7.859ZM7.028,7.156c0-.8-.538,0,.262,0s.968-2.6.968-1.8A1.453,1.453,0,0,1,6.806,6.806C6.006,6.806,7.028,7.957,7.028,7.156Zm-.221,4.489a4.807,4.807,0,0,1-2.9-.976,2.906,2.906,0,0,1,2.9-2.894c1.6,0-2.5-.8-2.9,2.894C3.094,11.279,7.9,11.645,6.806,11.645ZM1.968,6.806A4.839,4.839,0,1,1,10.58,9.827,3.882,3.882,0,0,0,8.405,7.156a2.419,2.419,0,1,0-3.2,0A3.882,3.882,0,0,0,3.032,9.827,4.815,4.815,0,0,1,1.968,6.806Zm0,23.226V25.193a4.839,4.839,0,1,1,4.839,4.839Zm12.581-3.77-1.1.259-.071.288a6.721,6.721,0,0,1-.783,1.889l-.142.234.581,1.1V28.016c1.567-1.04-.42-.8-.42-2.822a5.8,5.8,0,0,0-10.645-3.2L7.875,19.4l.53-.854-5.338,1L3.3,19.4c.587-.357,1,.306,1.67.142l.91-.17,2.645.285-.651-2.211.259.975.508,1.341c.666.163.78.6,1.368.961l2.618,5.785.68,1.5.142-4.056-.413-3.485-.595.961.154.254a6.732,6.732,0,0,1,.783,1.889l.071.288V26.6Zm7.742,2.794a2.906,2.906,0,0,1,2.9-2.894c1.6,0-2.523-.373-2.9,2.894-.81.61,3.992.976,2.9.976A4.807,4.807,0,0,1,22.291,29.056Zm1.451-5.314c0-.8-.225,1.452.575,1.452s.877-.45.877.35.8-.35,0-.35A1.453,1.453,0,0,1,23.742,23.742Zm5.225,4.472a3.882,3.882,0,0,0-2.175-2.671,2.419,2.419,0,1,0-3.2,0,3.882,3.882,0,0,0-2.175,2.671,4.839,4.839,0,1,1,7.548,0Z" transform="translate(-1 -1)"/><path class="b" d="M8,56H9.107v1.107H8Z" transform="translate(-4.125 -30.917)"/><path class="b" d="M12,56h1.107v1.107H12Z" transform="translate(-6.703 -30.917)"/><path class="b" d="M16,56h1.107v1.107H16Z" transform="translate(-8.777 -30.917)"/><path class="b" d="M8,52h5.535v1.107H8Z" transform="translate(-4.125 -28.348)"/><path class="b" d="M8,44h5.535v1.107H8Z" transform="translate(-4.125 -22.387)"/></g></svg>