<svg xmlns="http://www.w3.org/2000/svg" width="65" height="62.214" viewBox="0 0 65 62.214"><defs><style>.a{fill:#ffdc64;}.b{fill:#fff082;}.c{fill:#ffc850;}</style></defs><path class="a" d="M100.642,33.718,83.692,32.146,76.959,16.513a1.358,1.358,0,0,0-2.495,0L67.732,32.146,50.782,33.718a1.358,1.358,0,0,0-.771,2.373L62.8,47.325,59.057,63.93A1.358,1.358,0,0,0,61.076,65.4l14.636-8.691L90.348,65.4a1.358,1.358,0,0,0,2.018-1.466L88.624,47.325l12.788-11.234A1.358,1.358,0,0,0,100.642,33.718Z" transform="translate(-43.212 -11.652)"/><g transform="translate(0 0)"><path class="b" d="M92.863,11.86c.872,1.211,3.333,6.412,4.739,9.442a.475.475,0,0,1-.758.546c-2.428-2.3-6.579-6.279-7.451-7.49a2.138,2.138,0,1,1,3.47-2.5Z" transform="translate(-77.705 -10.971)"/><path class="b" d="M360.072,11.86c-.872,1.211-3.333,6.412-4.739,9.442a.475.475,0,0,0,.758.546c2.428-2.3,6.579-6.279,7.451-7.49a2.138,2.138,0,1,0-3.47-2.5Z" transform="translate(-310.23 -10.971)"/><path class="b" d="M425.619,284.371c-1.419-.463-7.121-1.227-10.436-1.646a.476.476,0,0,0-.29.888c2.925,1.616,7.981,4.36,9.4,4.823a2.138,2.138,0,1,0,1.326-4.065Z" transform="translate(-362.094 -248.246)"/><path class="b" d="M1.476,284.371c1.419-.463,7.121-1.227,10.436-1.646a.476.476,0,0,1,.29.888c-2.925,1.616-7.981,4.36-9.4,4.823a2.138,2.138,0,0,1-1.326-4.065Z" transform="translate(0 -248.246)"/><path class="b" d="M239.794,410.521c0-1.492,1.042-7.15,1.671-10.432a.476.476,0,0,1,.934,0c.629,3.282,1.671,8.94,1.671,10.432a2.138,2.138,0,0,1-4.276,0Z" transform="translate(-209.367 -350.445)"/></g><path class="c" d="M79.676,22.2l-2.47-5.685a1.375,1.375,0,0,0-2.517,0L67.9,32.146l-17.1,1.572a1.355,1.355,0,0,0-.778,2.373l12.9,11.234L59.143,63.93A1.368,1.368,0,0,0,61.179,65.4l1.966-1.157A104.917,104.917,0,0,1,79.676,22.2Z" transform="translate(-43.212 -11.652)"/></svg>