<svg xmlns="http://www.w3.org/2000/svg" width="42.988" height="42.988" viewBox="0 0 42.988 42.988"><defs><style>.a{opacity:0.267;}.b{fill:#fff;}.c{fill:#412dae;}.d{fill:#482fb0;}.e{fill:#e4edfb;}</style></defs><g class="a"><path class="b" d="M138.747,0,128,21.494l10.747,21.494a21.494,21.494,0,1,0,0-42.988Z" transform="translate(-117.253)"/><path class="b" d="M21.494,0A21.5,21.5,0,0,0,2.879,32.245L0,42.988,10.743,40.11a21.394,21.394,0,0,0,10.751,2.878Z"/><path class="c" d="M166.228,60,158,76.456l8.228,16.456a16.456,16.456,0,0,0,0-32.913Z" transform="translate(-144.734 -54.962)"/><path class="d" d="M60,76.456A16.456,16.456,0,0,0,76.457,92.913V60A16.456,16.456,0,0,0,60,76.456Z" transform="translate(-54.962 -54.962)"/><path class="e" d="M197.144,127.5l-5.394,10.789,5.394,10.789a10.789,10.789,0,0,0,0-21.578Z" transform="translate(-175.651 -116.795)"/><path class="b" d="M127.5,138.289a10.789,10.789,0,0,0,10.789,10.789V127.5A10.789,10.789,0,0,0,127.5,138.289Z" transform="translate(-116.795 -116.795)"/><path class="c" d="M228.061,195l-2.561,5.122,2.561,5.122a5.122,5.122,0,1,0,0-10.243Z" transform="translate(-206.567 -178.628)"/><path class="c" d="M195,200.122a5.122,5.122,0,0,0,5.122,5.122V195A5.122,5.122,0,0,0,195,200.122Z" transform="translate(-178.628 -178.628)"/></g></svg>