<svg xmlns="http://www.w3.org/2000/svg" width="55.361" height="40.185" viewBox="0 0 55.361 40.185"><defs><style>.a{opacity:0.351;}.b{fill:#fff;}</style></defs><g class="a"><path class="b" d="M28.909,202.127a6.419,6.419,0,0,0-6.25-6.25,6.419,6.419,0,0,0-6.25,6.25c-.146,2.053,0,5.357-.893,7.143,0,0,.893,1.786,4.186,2.681h5.933c3.275-.893,4.168-2.679,4.168-2.679C28.909,207.484,29.055,204.18,28.909,202.127Z" transform="translate(-14.621 -182.483)"/><path class="b" d="M21.766,203.049c-3.441-1.72-2.733-5.091-.281-6.134a6.531,6.531,0,0,0-5.076,6.134c-.146,2.053,0,5.357-.893,7.143,0,0,.893,1.786,4.186,2.681h2.82Z" transform="translate(-14.621 -183.405)"/><path class="b" d="M22.091,313.823,19.2,312.378a1.786,1.786,0,0,1-.987-1.6V308.1H12.857v2.679a1.786,1.786,0,0,1-.987,1.6l-2.89,1.445a2.678,2.678,0,0,0-1.481,2.4v6.169H23.572v-6.169a2.679,2.679,0,0,0-1.481-2.4Z" transform="translate(-7.498 -282.208)"/><path class="b" d="M23.572,347.785a2.679,2.679,0,0,0-1.481-2.4L19.2,343.944a1.773,1.773,0,0,1-.44-.319l-1.025,1.141a2.9,2.9,0,0,1-4.4,0l-1.025-1.141a1.775,1.775,0,0,1-.44.319l-2.89,1.445a2.678,2.678,0,0,0-1.481,2.4v6.17H23.573V347.79Z" transform="translate(-7.499 -313.774)"/><path class="b" d="M39.629,254.066h0a5.356,5.356,0,0,1-4.727-2.834,2.612,2.612,0,0,1,.85-3.333,6.928,6.928,0,0,0,.622-.493A5.155,5.155,0,0,0,37.6,245.8a.879.879,0,0,1,1-.487,15.382,15.382,0,0,1,6.069,3.11.852.852,0,0,1,.3.707,5.358,5.358,0,0,1-5.34,4.936Z" transform="translate(-31.592 -226.386)"/><path class="b" d="M44.894,248.423a15.383,15.383,0,0,0-6.065-3.109.884.884,0,0,0-1.007.489,5.111,5.111,0,0,1-.816,1.191h0a4.776,4.776,0,0,1-.4.414,6.239,6.239,0,0,1-.6.475,2.657,2.657,0,0,0-.677,3.685A5.368,5.368,0,0,0,39.044,254a3.885,3.885,0,0,1-1.866-3.5v-.69c.2-.15.407-.3.612-.482a7.112,7.112,0,0,0,1.277-1.506,13.483,13.483,0,0,1,4.654,2.532c.169.148.406.358.9.819a5.372,5.372,0,0,0,.579-2.042.853.853,0,0,0-.306-.708Z" transform="translate(-31.819 -226.39)"/><g transform="translate(0.002 32.401)"><path class="b" d="M8.044,366.522a2.672,2.672,0,0,0-.544,1.609V374.3h3.572v-4.5a1.786,1.786,0,0,0-.67-1.394Z" transform="translate(-7.5 -366.522)"/><path class="b" d="M122.753,366.522a2.673,2.673,0,0,1,.544,1.609V374.3h-3.572v-4.5a1.786,1.786,0,0,1,.67-1.394Z" transform="translate(-107.226 -366.522)"/></g><path class="b" d="M368.226,206.573v.627a7.142,7.142,0,0,0,.367,2.258l1.419,4.259h2.679v-9.822H370.9a2.678,2.678,0,0,0-2.674,2.678Z" transform="translate(-328.045 -189.607)"/><path class="b" d="M394.766,201.064l-1.58,5.529-7.143-6.25a1.786,1.786,0,0,1-1.786-1.786h0a2.679,2.679,0,0,1,2.679-2.679h8.036v3.714A5.351,5.351,0,0,1,394.766,201.064Z" transform="translate(-342.291 -182.484)"/><rect class="b" width="5.358" height="5.358" transform="translate(43.753 26.787)"/><path class="b" d="M360.093,336.8l-4.307-1.231-2.678,3.191-2.679-3.191-4.307,1.231a2.679,2.679,0,0,0-1.943,2.576V346.8h17.857v-7.421a2.679,2.679,0,0,0-1.943-2.576Z" transform="translate(-306.675 -306.612)"/><path class="b" d="M381.6,245.866h0a5.357,5.357,0,0,1-5.357-5.357h0a4.312,4.312,0,0,1,1.263-3.049l.879-.879a1.765,1.765,0,0,1,1.3-.525c2.854.09,5.381.7,6.762,2.05a1.763,1.763,0,0,1,.514,1.265v1.138a5.357,5.357,0,0,1-5.361,5.357Z" transform="translate(-335.168 -218.186)"/><path class="b" d="M378.92,240.509a1.782,1.782,0,0,1,1.893-1.783,18.832,18.832,0,0,1,6.118,1.206,4.974,4.974,0,0,0-.49-1.825c-1.381-1.349-3.907-1.96-6.762-2.05h0a1.766,1.766,0,0,0-1.3.525l-.879.879a4.311,4.311,0,0,0-1.263,3.048h0a5.356,5.356,0,0,0,3.873,5.144,5.313,5.313,0,0,1-1.194-3.359v-1.786Z" transform="translate(-335.167 -218.186)"/><path class="b" d="M472.435,360.175a2.678,2.678,0,0,1,.784-1.894l2.3-2.3a2.668,2.668,0,0,1,.489,1.532v7.421h-3.571Z" transform="translate(-420.647 -324.756)"/><path class="b" d="M147.733,326.852l-7.471-2.717-5.357,1.786-5.357-1.786-7.471,2.717a3.571,3.571,0,0,0-2.351,3.356v6.427h30.357v-6.427a3.571,3.571,0,0,0-2.35-3.356Z" transform="translate(-107.224 -296.455)"/><path class="b" d="M348.573,356.812a3.567,3.567,0,0,1,.961,2.433v6.427h-5.357v-2.985a3.572,3.572,0,0,1,1.046-2.525Z" transform="translate(-306.675 -325.492)"/><path class="b" d="M187.465,84.9V77.42a1.786,1.786,0,0,0-1.786-1.786H174.965a7.143,7.143,0,0,0-7.143,7.143V84.9a8.928,8.928,0,0,0,.458,2.823l.3.892a2.68,2.68,0,0,1,.137.847v.458h17.857v-.458a2.679,2.679,0,0,1,.137-.847l.3-.892a8.928,8.928,0,0,0,.454-2.823Z" transform="translate(-149.963 -75.634)"/><path class="b" d="M207.9,79.262a3.627,3.627,0,0,0,3.627,3.627h.5l.242,7.031h9.914v-.458a2.681,2.681,0,0,1,.137-.847l.3-.892a8.929,8.929,0,0,0,.458-2.823V77.42a1.786,1.786,0,0,0-1.786-1.786H211.53a3.627,3.627,0,0,0-3.63,3.628Z" transform="translate(-185.579 -75.634)"/><rect class="b" width="10.714" height="8.035" transform="translate(22.323 21.429)"/><path class="b" d="M207.9,272.063a11.559,11.559,0,0,0,10.714,0v-4.041H207.9Z" transform="translate(-185.579 -246.592)"/><g transform="translate(20.537 26.193)"><path class="b" d="M199.014,314.061l-2.848,2.848a.893.893,0,0,1-1.343-.092l-2.953-3.891.772-1.628a.893.893,0,0,1,1.275-.377Z" transform="translate(-191.87 -310.788)"/><path class="b" d="M256,314.061l2.848,2.848a.893.893,0,0,0,1.343-.092l2.953-3.891-.772-1.628a.893.893,0,0,0-1.275-.377Z" transform="translate(-248.856 -310.788)"/></g><path class="b" d="M184.768,157.495h0a8.929,8.929,0,0,1-8.929-8.929v-.893l1.486-.991a2.679,2.679,0,0,0,1.193-2.229v-3.031s7.143-2.679,12.5,1.786v1.244a2.679,2.679,0,0,0,1.193,2.229l1.486.991v.893a8.929,8.929,0,0,1-8.93,8.93Z" transform="translate(-157.087 -133.386)"/><path class="b" d="M120.687,356.812a3.567,3.567,0,0,0-.961,2.433v6.427h5.357v-2.985a3.571,3.571,0,0,0-1.046-2.525Z" transform="translate(-107.224 -325.492)"/><path class="b" d="M182.767,143.568a16.5,16.5,0,0,1,8.251.884v-1.244c-5.357-4.465-12.5-1.786-12.5-1.786v3.031a2.679,2.679,0,0,1-1.193,2.229l-1.486.991v.893a8.926,8.926,0,0,0,7.85,8.857h0a8.891,8.891,0,0,1-2.493-6.179v-5.9a1.787,1.787,0,0,1,1.571-1.776Z" transform="translate(-157.087 -133.385)"/></g></svg>