<svg xmlns="http://www.w3.org/2000/svg" width="17" height="17" viewBox="0 0 17 17"><defs><style>.a{fill:#8e8e8e;}</style></defs><g transform="translate(1.032)"><path class="a" d="M45.122,1.135h-6.4V.516a.534.534,0,0,0-1.067,0v.619h-6.4a.516.516,0,0,0-.533.516v8.654H45.656V1.652A.516.516,0,0,0,45.122,1.135Z" transform="translate(-30.72)"/></g><g transform="translate(0 11.65)"><path class="a" d="M16.469,332.288H.531A.537.537,0,0,0,0,332.8a.515.515,0,0,0,.531.516H7.42l-3.134,3.217a.5.5,0,0,0,.018.723.54.54,0,0,0,.744-.017l2.922-2.993v2.873a.531.531,0,0,0,1.063,0v-2.873l2.922,2.993a.524.524,0,0,0,.744.017.489.489,0,0,0,.018-.723L9.58,333.32h6.889a.516.516,0,1,0,0-1.032Z" transform="translate(0 -332.288)"/></g></svg>