<svg xmlns="http://www.w3.org/2000/svg" xmlns:xlink="http://www.w3.org/1999/xlink" width="154.461" height="116.332" viewBox="0 0 154.461 116.332"><defs><style>.a,.c{fill:#b598d8;}.a,.f,.r{opacity:0.1;}.b{fill:none;stroke:#535461;stroke-miterlimit:10;stroke-width:2px;}.d,.f,.s{fill:#303030;}.d{opacity:0.25;}.e{fill:#c8cad7;}.g{fill:#474157;}.h{fill:#f4f4f7;}.i{fill:#fff;}.j{fill:#ededf4;}.k{fill:#65617d;}.l{fill:#5a5773;opacity:0.2;}.m{fill:url(#a);}.n{fill:#fbbebe;}.o{fill:#e7effd;}.p{fill:#3f3d56;}.q{fill:#e3a79f;}</style><linearGradient id="a" x1="-1.791" y1="1" x2="-1.791" gradientUnits="objectBoundingBox"><stop offset="0" stop-color="gray" stop-opacity="0.251"/><stop offset="0.54" stop-color="gray" stop-opacity="0.122"/><stop offset="1" stop-color="gray" stop-opacity="0.102"/></linearGradient></defs><path class="a" d="M180.887,104.951q-.217.148-.443.286a15.544,15.544,0,0,1-1.733.928,37.9,37.9,0,0,1-10.811,2.652,250.972,250.972,0,0,1-25.757,1.5c-23.292.56-46.644,1.121-69.874-.172-9.178-.51-18.562-1.364-26.88-3.982q-1.788-.563-3.507-1.238a29.9,29.9,0,0,1-6.395-3.357,12.634,12.634,0,0,1-3.994-4.3c-1.757-3.389-.827-7.2,1.18-10.518a32.469,32.469,0,0,1,2.819-3.861c1.544-1.865,3.253-3.687,4.812-5.55,5.548-6.653,9.167-15.053,4.047-21.867-1.477-1.958-3.6-3.676-4.8-5.721-1.532-2.613-1.412-5.515-.926-8.335.063-.356.134-.712.2-1.063.838-4.181,2.4-8.679,7.217-11.3,5.007-2.712,12.117-2.575,18.333-1.611,9.667,1.509,18.584,4.66,27.591,7.508S110.4,40.4,120.309,40.683c8.744.246,18.943-1.6,24.746-6.408,5.639-4.666,16.232-5.021,23.872-2.2,5.236,1.933,9.151,5.42,10.8,9.341a11.009,11.009,0,0,1,.72,2.433,9.879,9.879,0,0,1,.134,2.293,10.091,10.091,0,0,1-.134,1.125C179.169,55,169.986,61.1,164.4,68.014c-2.728,3.375-4.653,7.429-2.778,11.07,2.861,5.546,12.81,7.519,18.822,11.646a13.359,13.359,0,0,1,2.954,2.658C186.3,97.057,185.227,102.025,180.887,104.951Z" transform="translate(-30.564 -25.261)"/><g transform="translate(4.955 0)"><path class="b" d="M145.085,169.652s-6.176-10.945-15.483-14.1a19.036,19.036,0,0,1-9.645-7.215,31.913,31.913,0,0,1-2.846-5.119" transform="translate(-110.445 -126.039)"/><path class="c" d="M68.282,98.516c1.061,1.028,6,2.093,6,2.093s-1.208-4.9-2.272-5.933a2.676,2.676,0,1,0-3.727,3.84Z" transform="translate(-67.47 -83.358)"/><path class="c" d="M80.453,160.064c1.449.287,6.176-1.5,6.176-1.5s-3.681-3.459-5.131-3.746a2.676,2.676,0,1,0-1.041,5.249Z" transform="translate(-76.847 -136.033)"/><path class="c" d="M146.629,232.379c1.4-.483,4.565-4.413,4.565-4.413s-4.925-1.126-6.32-.643a2.676,2.676,0,1,0,1.745,5.056Z" transform="translate(-132.852 -198.745)"/><path class="c" d="M219.51,272.792c1.458-.24,5.25-3.577,5.25-3.577s-4.658-1.948-6.121-1.708a2.678,2.678,0,1,0,.871,5.285Z" transform="translate(-196.401 -233.621)"/><path class="c" d="M136.5,136.887c0,1.477-2.672,5.763-2.672,5.763s-2.677-4.283-2.679-5.76a2.676,2.676,0,1,1,5.35,0Z" transform="translate(-122.596 -118.189)"/><path class="c" d="M218.12,182.028c-.442,1.41-4.275,4.7-4.275,4.7s-1.273-4.888-.832-6.3a2.676,2.676,0,0,1,5.1,1.6Z" transform="translate(-193.392 -156.723)"/><path class="c" d="M289.213,242.775c-.2,1.463-3.422,5.354-3.422,5.354s-2.081-4.6-1.88-6.067a2.676,2.676,0,1,1,5.3.713Z" transform="translate(-254.84 -209.602)"/><path class="d" d="M68.282,98.516c1.061,1.028,6,2.093,6,2.093s-1.208-4.9-2.272-5.933a2.676,2.676,0,1,0-3.727,3.84Z" transform="translate(-67.47 -83.358)"/><path class="d" d="M80.453,160.064c1.449.287,6.176-1.5,6.176-1.5s-3.681-3.459-5.131-3.746a2.676,2.676,0,1,0-1.041,5.249Z" transform="translate(-76.847 -136.033)"/><path class="d" d="M146.629,232.379c1.4-.483,4.565-4.413,4.565-4.413s-4.925-1.126-6.32-.643a2.676,2.676,0,1,0,1.745,5.056Z" transform="translate(-132.852 -198.745)"/><path class="d" d="M219.51,272.792c1.458-.24,5.25-3.577,5.25-3.577s-4.658-1.948-6.121-1.708a2.678,2.678,0,1,0,.871,5.285Z" transform="translate(-196.401 -233.621)"/><path class="d" d="M136.5,136.887c0,1.477-2.672,5.763-2.672,5.763s-2.677-4.283-2.679-5.76a2.676,2.676,0,1,1,5.35,0Z" transform="translate(-122.596 -118.189)"/><path class="d" d="M218.12,182.028c-.442,1.41-4.275,4.7-4.275,4.7s-1.273-4.888-.832-6.3a2.676,2.676,0,0,1,5.1,1.6Z" transform="translate(-193.392 -156.723)"/><path class="d" d="M289.213,242.775c-.2,1.463-3.422,5.354-3.422,5.354s-2.081-4.6-1.88-6.067a2.676,2.676,0,1,1,5.3.713Z" transform="translate(-254.84 -209.602)"/><path class="b" d="M226.982,109.551s-1.208-12.509-8.442-19.163a19.053,19.053,0,0,1-5.894-10.5,31.983,31.983,0,0,1-.526-5.834" transform="translate(-192.699 -66.156)"/><path class="c" d="M177.09,18.926c.553,1.369,4.636,4.347,4.636,4.347s.879-4.968.328-6.344a2.678,2.678,0,1,0-4.968,2Z" transform="translate(-162.2 -15.251)"/><path class="c" d="M163.28,80.1c1.208.85,6.253,1.128,6.253,1.128s-1.966-4.653-3.174-5.5A2.676,2.676,0,1,0,163.28,80.1Z" transform="translate(-149.432 -67.185)"/><path class="c" d="M194.7,173.074c1.477.124,5.967-2.183,5.967-2.183s-4.045-3.025-5.518-3.148a2.676,2.676,0,1,0-.448,5.332Z" transform="translate(-175.445 -147.256)"/><path class="c" d="M244.815,239.432c1.431.372,6.25-1.143,6.25-1.143s-3.476-3.665-4.906-4.036a2.675,2.675,0,0,0-1.343,5.178Z" transform="translate(-219.271 -204.776)"/><path class="c" d="M223.692,81.959c-.6,1.352-4.778,4.186-4.778,4.186s-.712-5-.114-6.352a2.676,2.676,0,1,1,4.893,2.166Z" transform="translate(-198.275 -69.748)"/><path class="c" d="M273.112,155.251c-.975,1.11-5.812,2.564-5.812,2.564s.816-4.985,1.792-6.1a2.676,2.676,0,1,1,4.02,3.531Z" transform="translate(-240.471 -132.61)"/><path class="c" d="M318.383,240.281c-.773,1.259-5.3,3.51-5.3,3.51s-.038-5.051.736-6.31a2.678,2.678,0,1,1,4.565,2.8Z" transform="translate(-280.111 -206.537)"/></g><ellipse class="a" cx="44.98" cy="2.26" rx="44.98" ry="2.26" transform="translate(40.945 111.813)"/><path class="c" d="M264.085,832.572s-5.677-.342-5.008,3.634a.969.969,0,0,0,.5,1.023s.009-.3.581-.195a2.683,2.683,0,0,0,.618.029,1.283,1.283,0,0,0,.753-.311h0a4.5,4.5,0,0,0,2.217-3.268s.459-.568.44-.714l-.957.4a1.714,1.714,0,0,1,.07,1.265s-.031-1.241-.215-1.208c-.038.007-.5.239-.5.239a2.828,2.828,0,0,1,.134,2.08s.161-1.484-.314-1.992l-.671.393a2.981,2.981,0,0,1,.212,2.258,4.231,4.231,0,0,0-.355-2.161l-.611.477a2.908,2.908,0,0,1,.242,2.066s-.05-1.811-.375-1.948a3.472,3.472,0,0,0-.615.671s.423.889.16,1.359c0,0-.161-1.209-.293-1.209a3.921,3.921,0,0,0-.588,1.343,2.9,2.9,0,0,1,.459-1.423,1.6,1.6,0,0,0-.816.422s.083-.565.948-.615a3.77,3.77,0,0,1,.557-.643,3.478,3.478,0,0,0-1.38.16,1.542,1.542,0,0,1,1.539-.291l.6-.493a4.992,4.992,0,0,0-1.611.016,1.96,1.96,0,0,1,1.774-.128l.653-.395a6.043,6.043,0,0,0-1.539-.134,2.363,2.363,0,0,1,1.732.028l.469-.211s-.706-.134-.913-.161-.219-.079-.219-.079a2.452,2.452,0,0,1,1.328.148A6.14,6.14,0,0,0,264.085,832.572Z" transform="translate(-228.349 -722.831)"/><ellipse class="a" cx="4.017" cy="0.679" rx="4.017" ry="0.679" transform="translate(27.808 114.066)"/><path class="c" d="M204.267,834.173s-3.2-.193-2.82,2.049a.546.546,0,0,0,.285.576s0-.165.328-.109a1.494,1.494,0,0,0,.348.016.715.715,0,0,0,.426-.176h0a2.534,2.534,0,0,0,1.249-1.842s.259-.32.248-.4l-.537.231a.969.969,0,0,1,.039.713s-.017-.7-.121-.682c-.021,0-.281.134-.281.134a1.593,1.593,0,0,1,.078,1.172s.091-.836-.177-1.122l-.385.221a1.681,1.681,0,0,1,.12,1.273,2.389,2.389,0,0,0-.2-1.218l-.345.269a1.629,1.629,0,0,1,.134,1.164s-.027-1.02-.211-1.1a2.066,2.066,0,0,0-.346.376s.238.5.09.765c0,0-.09-.679-.165-.683a2.257,2.257,0,0,0-.332.76,1.644,1.644,0,0,1,.259-.806.909.909,0,0,0-.46.238s.047-.318.537-.346a2.14,2.14,0,0,1,.314-.362,1.97,1.97,0,0,0-.777.09.871.871,0,0,1,.866-.164l.341-.278a2.805,2.805,0,0,0-.909.009,1.1,1.1,0,0,1,1-.072l.371-.222a3.394,3.394,0,0,0-.869-.075,1.335,1.335,0,0,1,.977.016l.269-.119s-.4-.078-.516-.09-.122-.044-.122-.044a1.367,1.367,0,0,1,.748.083A3.294,3.294,0,0,0,204.267,834.173Z" transform="translate(-178.478 -724.22)"/><ellipse class="a" cx="2.265" cy="0.383" rx="2.265" ry="0.383" transform="translate(21.32 112.391)"/><path class="c" d="M245.779,798.748s-3.864-.232-3.409,2.476a.661.661,0,0,0,.344.7s.007-.2.4-.134a1.762,1.762,0,0,0,.42.02.866.866,0,0,0,.51-.208h0a3.066,3.066,0,0,0,1.509-2.223s.312-.387.3-.487l-.651.279a1.173,1.173,0,0,1,.047.861s-.021-.843-.146-.824c-.025,0-.338.164-.338.164a1.931,1.931,0,0,1,.094,1.415s.109-1.01-.215-1.356l-.458.269a2.031,2.031,0,0,1,.144,1.537,2.91,2.91,0,0,0-.24-1.477l-.416.325a1.982,1.982,0,0,1,.164,1.406s-.034-1.232-.254-1.325a2.578,2.578,0,0,0-.42.452s.289.606.11.925c0,0-.11-.822-.2-.826a2.779,2.779,0,0,0-.4.917,1.984,1.984,0,0,1,.313-.969,1.094,1.094,0,0,0-.556.289s.056-.385.646-.419a2.516,2.516,0,0,1,.379-.438,2.379,2.379,0,0,0-.94.107,1.057,1.057,0,0,1,1.047-.2l.411-.336a3.415,3.415,0,0,0-1.1.011,1.335,1.335,0,0,1,1.208-.086l.447-.269a4.41,4.41,0,0,0-1.047-.09,1.6,1.6,0,0,1,1.179.019l.32-.144s-.481-.094-.622-.109-.149-.055-.149-.055a1.669,1.669,0,0,1,.9.1A3.854,3.854,0,0,0,245.779,798.748Z" transform="translate(-213.9 -693.55)"/><ellipse class="a" cx="2.735" cy="0.462" rx="2.735" ry="0.462" transform="translate(26.485 108.143)"/><path class="e" d="M507.329,721.8v1.05H476.28V722a10.2,10.2,0,0,0,.7-18.846h30.14a10.213,10.213,0,0,0,.207,18.649Z" transform="translate(-416.438 -610.792)"/><path class="f" d="M511.668,703.15a10.216,10.216,0,0,0-5.639,6.765h-18.86a10.216,10.216,0,0,0-5.639-6.765Z" transform="translate(-420.983 -610.792)"/><path class="e" d="M211.48,663.31V669.2A5.628,5.628,0,0,0,216.8,675.1H308.15a5.628,5.628,0,0,0,5.321-5.893V663.31Z" transform="translate(-187.19 -576.301)"/><path class="f" d="M507.329,835.1v1.05H476.28V835.3a10.218,10.218,0,0,0,2.4-1.275h26.75A10.209,10.209,0,0,0,507.329,835.1Z" transform="translate(-416.438 -724.091)"/><rect class="e" width="51.568" height="3.111" rx="1.555" transform="translate(49.582 110.257)"/><path class="g" d="M313.47,147.971a5.321,5.321,0,0,0-5.321-5.321H216.8a5.321,5.321,0,0,0-5.321,5.321V213.7H313.47Z" transform="translate(-187.19 -125.545)"/><path class="h" d="M328.625,183.109v56.474a2.618,2.618,0,0,1-2.619,2.619H234.819a2.618,2.618,0,0,1-2.619-2.619V183.109a2.619,2.619,0,0,1,2.619-2.619h91.186A2.619,2.619,0,0,1,328.625,183.109Z" transform="translate(-205.128 -158.305)"/><circle class="i" cx="1.228" cy="1.228" r="1.228" transform="translate(74.057 18.415)"/><ellipse class="i" cx="3.029" cy="3.029" rx="3.029" ry="3.029" transform="translate(72.256 90.12)"/><path class="i" d="M328.634,183.109H232.21a2.618,2.618,0,0,1,2.618-2.619h91.186a2.618,2.618,0,0,1,2.619,2.619Z" transform="translate(-205.137 -158.305)"/><ellipse class="j" cx="0.655" cy="0.655" rx="0.655" ry="0.655" transform="translate(29.036 22.835)"/><ellipse class="j" cx="0.655" cy="0.655" rx="0.655" ry="0.655" transform="translate(31 22.835)"/><ellipse class="j" cx="0.655" cy="0.655" rx="0.655" ry="0.655" transform="translate(32.966 22.835)"/><rect class="i" width="77.821" height="45.477" transform="translate(36.151 32.055)"/><path class="k" d="M398.85,522.915h2.869v.537H398.85Zm1.435-1.435a.358.358,0,1,0-.1-.7l-.748-.547-.044.04.548.746a.379.379,0,0,0-.015.1.357.357,0,0,0,.358.359Z" transform="translate(-349.403 -452.431)"/><path class="k" d="M394.5,509.5a2.332,2.332,0,0,0-1.838,3.767h.659l.046-.046.247-.247-.26-.256-.247.246a1.78,1.78,0,0,1-.395-.952h.349v-.36h-.349a1.78,1.78,0,0,1,.395-.952l.247.246.256-.256-.246-.247a1.782,1.782,0,0,1,.952-.395v.349h.359v-.349a1.79,1.79,0,0,1,.953.395l-.247.247.258.256.247-.246a1.791,1.791,0,0,1,.395.952h-.35v.36h.35a1.791,1.791,0,0,1-.395.952l-.247-.246-.258.256.248.247.044.046h.659A2.332,2.332,0,0,0,394.5,509.5Z" transform="translate(-343.621 -443.141)"/><path class="k" d="M405.641,435.82a1.207,1.207,0,0,1-.481-.122.086.086,0,0,0-.122.085l.039.572a.044.044,0,0,0,.071.031l.162-.123a.044.044,0,0,1,.063.012l.23.36a.044.044,0,0,0,.074,0l.231-.36a.044.044,0,0,1,.065-.005l.162.124a.044.044,0,0,0,.071-.031l.039-.572a.087.087,0,0,0-.122-.085,1.218,1.218,0,0,1-.481.122Z" transform="translate(-354.761 -379.241)"/><path class="k" d="M400.723,405.931l-.537-.55a3.209,3.209,0,0,0-1.045-2.551,3.21,3.21,0,0,0-1.055,2.551l-.537.55a.094.094,0,0,0-.026.079l.207,1.253a.086.086,0,0,0,.134.062l.753-.51a.851.851,0,0,0,.528.224.805.805,0,0,0,.517-.224l.752.51a.086.086,0,0,0,.134-.062l.208-1.254A.1.1,0,0,0,400.723,405.931ZM399.14,404.8a.36.36,0,1,1,.344-.358.352.352,0,0,1-.344.358Z" transform="translate(-348.254 -350.793)"/><path class="k" d="M398.748,306.792h-.056c-.074,0-.134-.009-.142-.083h0c-.164-1.523-1.124-1.552-1.124-1.911s.961-.388,1.124-1.911h0c.008-.074.068-.083.142-.083h.056a.161.161,0,0,0,.162-.149.158.158,0,0,0-.157-.165H395.17a.161.161,0,0,0-.161.149.157.157,0,0,0,.157.165h.062c.073,0,.134.009.142.083h0c.164,1.522,1.124,1.552,1.124,1.911s-.961.388-1.124,1.911h0c-.008.074-.07.083-.142.083h-.058a.161.161,0,0,0-.161.149.157.157,0,0,0,.157.165h3.587a.157.157,0,0,0,.157-.165A.163.163,0,0,0,398.748,306.792Zm-2.828-.383c.322-.9.891-.787.891-1.14v-.623c0-.217-.412-.369-.671-.722a.087.087,0,0,1,.072-.134h1.49a.087.087,0,0,1,.075.134c-.254.355-.671.506-.671.724v.623c0,.35.548.255.894,1.14.032.079.008.178-.077.178H396C395.911,306.586,395.891,306.49,395.92,306.409Z" transform="translate(-346.078 -263.925)"/><path class="l" d="M520.164,310.021a1.494,1.494,0,0,1-1.49,1.5H480.308a1.5,1.5,0,1,1,0-2.993h38.365A1.5,1.5,0,0,1,520.164,310.021Z" transform="translate(-418.59 -269.15)"/><path class="l" d="M520.742,413.2a1.494,1.494,0,0,1-1.49,1.5H480.886a1.5,1.5,0,0,1,0-2.993h38.365A1.5,1.5,0,0,1,520.742,413.2Z" transform="translate(-419.168 -358.481)"/><path class="l" d="M520.164,517.2a1.494,1.494,0,0,1-1.49,1.494H480.308a1.5,1.5,0,1,1,0-2.993h38.365A1.5,1.5,0,0,1,520.164,517.2Z" transform="translate(-418.59 -448.513)"/><path class="c" d="M512.464,308.526v2.993H480.308a1.5,1.5,0,1,1,0-2.993Z" transform="translate(-418.59 -269.15)"/><path class="c" d="M518.748,411.69v3H480.886a1.5,1.5,0,0,1,0-2.993Z" transform="translate(-419.168 -358.464)"/><path class="c" d="M504.139,515.708v2.99H480.308a1.5,1.5,0,1,1,0-2.993Z" transform="translate(-418.59 -448.513)"/><path class="m" d="M830.863,330.662c.074-.2-.477-1.313-.477-1.368s-.571-.671-.571-1.022-.753-1.1-.753-1.1a1.9,1.9,0,0,1-1.121-1.332c-.11-.912-1.208-.93-1.208-.93h0v-.209a3.086,3.086,0,0,0-.134-1.067,1.074,1.074,0,0,0-.626-.529,2.341,2.341,0,0,0-.33-.932,1.048,1.048,0,0,1-.256-.985c.11-.345-.146-1.222-.681-1.343s-1.138-.329-1.138-.329-.06.012-.148.024l-.074-.024a3.179,3.179,0,0,1-.385.048.476.476,0,0,1-.312-.1,6.137,6.137,0,0,0-1.947-.593,4.511,4.511,0,0,1-1.067-.366l-.789-.6a5.057,5.057,0,0,1-.69-.953l-.008-.013h0a3.433,3.433,0,0,1-.166-.481h0a4.376,4.376,0,0,0,.684-.94c.019-.035.035-.071.054-.107a.391.391,0,0,0,.118-.019l.05-.019a.806.806,0,0,0,.389-.466h0c.015-.04.025-.081.036-.121l.008-.04a.442.442,0,0,1,.018-.083l.008-.047c0-.028.01-.055.012-.083a.241.241,0,0,0,0-.046c0-.015.008-.07.013-.1h0a3.7,3.7,0,0,1,.058-.384h0a6.76,6.76,0,0,1,.619-1.372h0c.03-.066.059-.134.085-.2s.051-.146.073-.222a.316.316,0,0,1,.017-.068c.015-.055.027-.109.038-.165a.452.452,0,0,1,.013-.072c.012-.075.023-.152.029-.228a2.82,2.82,0,0,0-.189-1.282c-.134-.342-.342-.651-.482-.994-.211-.52-.268-1.108-.525-1.6a1.9,1.9,0,0,0-2.282-.933c-.4.149-.745.438-1.151.567a3.831,3.831,0,0,1-1.686-.035,2.1,2.1,0,0,0-1.635.282c-.521.423-.663,1.216-1.152,1.681-.205.195-.459.32-.671.5a1.094,1.094,0,0,0-.34.465.322.322,0,0,0-.012.039.267.267,0,0,0-.012.047.375.375,0,0,1-.009.055.181.181,0,0,0,0,.038.875.875,0,0,0,0,.1h0a.72.72,0,0,0,.015.091v.026a.516.516,0,0,0,.023.077v.015c.009.028.021.055.032.083a.36.36,0,0,0,.019.042.345.345,0,0,0,.015.033,2.262,2.262,0,0,1,.171.424.47.47,0,0,1-.017.281.856.856,0,0,1-.2.269,3.791,3.791,0,0,0-.83,1.328c-.021.056-.042.113-.059.171h0l.024.007a.986.986,0,0,0,.161.035c.031,0,.062.008.093.009a1.408,1.408,0,0,0,.375-.028l.094-.022a2.4,2.4,0,0,0,.372-.134v.175a4.341,4.341,0,0,0,2.417,3.882l.016.118.012.1-.05-.047s-.332-.165-.643.31a2.079,2.079,0,0,1-.9.693s-3.345.529-3.474.968l-1.561.091s-.552.072-.607,1.222-.349,1.259-.349,1.259a4.369,4.369,0,0,0-.588,1.716.952.952,0,0,1-.509.873l-.074,1.041a.706.706,0,0,0-.772.62,2.5,2.5,0,0,1-.459,1.04s-1.011.839-1.066,1.551l-.624.384s-1.453-.329-1.783-.913l-.1-.1a.068.068,0,0,1-.008-.013h0a5.3,5.3,0,0,0-.608-.537.445.445,0,0,1,.029.294l-.107-.121-.289-.31s-2.16-2.483-3.535-2.657h0a.874.874,0,0,0-.618.6c-.174.593-.357,1.576.1,2.06l2.172,2.321.056.042.473.607c-.079.191-.146.376-.2.544v.016c-.012.036-.023.072-.033.106l-.012.036c-.011.035-.02.068-.031.1s-.011.04-.017.06,0,.023-.009.035c-.052.183-.084.324-.1.4l-.122-.038.12.051a.1.1,0,0,0,0,.019.27.27,0,0,0-.008.039c.036.016.074.034.113.048.643.281,3.856,1.69,4.028,1.9a2.328,2.328,0,0,0,2.5.346,2.646,2.646,0,0,0,1.343-1.477,15.178,15.178,0,0,0,1.1-1.7c.036-.22.863-.474.863-.474a11.033,11.033,0,0,1-.349,3.339,42.043,42.043,0,0,0-1.208,4.855.564.564,0,0,1,.157-.009l-.047.228a.548.548,0,0,1,.195,0c-.059.45-.4,2.54-.4,2.54a5.285,5.285,0,0,1-.294,1.278,9.3,9.3,0,0,0-.2,2.043l-.294,1.241s.039.086.111.215h0a3.177,3.177,0,0,0,.847,1.093,2.244,2.244,0,0,1-.149.567,1.982,1.982,0,0,0-.146.877,11.1,11.1,0,0,0-.275,1.807,6.578,6.578,0,0,1-.2,1.387l-.33,3.175a29.93,29.93,0,0,0-.11,3.5,6.7,6.7,0,0,1-.074,1.77s.22,2.172.165,2.409a4.467,4.467,0,0,0-.165,1.825,9.9,9.9,0,0,1,.074,2.117s.11,2.045.238,2.7a4.69,4.69,0,0,1-.036,1.5,13.583,13.583,0,0,1-.184,1.4,1.527,1.527,0,0,0,.44,1.916c.977.949.369.806.369.806s-.772-.383-.681.4c.087.748.208.552.219.537l-.182.6.134.017c-.035.042-.07.085-.107.134a2.913,2.913,0,0,1-.369.385.787.787,0,0,0-.24.528,14.376,14.376,0,0,1-2.628,2.226,7.689,7.689,0,0,0-1.493,1c-.227.247-.189.447.28.6a7.174,7.174,0,0,0,3.988.074,4.67,4.67,0,0,0,1.948-1.259,2.782,2.782,0,0,1,1.561-.256c.772.146,2.316-.858,2.316-.858l-.028-.258-.082-.746a.591.591,0,0,1-.134-.455,2.349,2.349,0,0,0-.064-.657c-.013-.072-.027-.144-.04-.212l.141-.026s-.184-.93.148-1.114.238-2.572.238-2.572a2.916,2.916,0,0,0-.643-.639c-.222-.091-.019-1.223.019-1.368s.316-2.987.316-2.987A3.833,3.833,0,0,1,809.29,367a6.256,6.256,0,0,0-.184-1.861.341.341,0,0,1,.092-.4,8.3,8.3,0,0,0,.128-2.171s-.017-.986-.017-1.242a4.51,4.51,0,0,1,.422-1.5,2.908,2.908,0,0,0,.074-1.277h0l.011-.074a.818.818,0,0,1,.017-.1l.016-.1a14.034,14.034,0,0,1,.358-1.584c.239-.767.514-2.116.514-2.116l1.711-4.465.019-.052a6.994,6.994,0,0,1,.789,2.811,16.1,16.1,0,0,1,.148,2.061,24.47,24.47,0,0,0,.166,2.5s.238,2.954.238,3.088a17.927,17.927,0,0,0,.478,2.755,2.422,2.422,0,0,1-.294,1.515,23.3,23.3,0,0,0,.036,2.793s-.275,2.116-.33,2.551a10.442,10.442,0,0,0-.091,2.774c.184.657.11.748.11.748s.662.671.269.73a1.013,1.013,0,0,0-.736,1.332,17.378,17.378,0,0,0,.806,1.954l.3-.064v.218l.021,1.087a6.083,6.083,0,0,1,.056,1.278,13.531,13.531,0,0,0-.15,1.419c-.014.156-.022.261-.022.261s0,.967,2.041.671,2.411-1.092,2.411-1.092a.453.453,0,0,1,.016-.1c.03-.184.1-.576.15-.793a5.743,5.743,0,0,0-.588-1.611,3.357,3.357,0,0,0-.294-1.1.932.932,0,0,1-.148-.383c-.017-.074-.032-.15-.044-.226q.072.011.134.024s-.111-.638.313-.839a.6.6,0,0,0,.256-.806,6.171,6.171,0,0,1,.165-1.208.6.6,0,0,1,.148-.584,7.43,7.43,0,0,0,.459-2.043l.036-6.9a6.407,6.407,0,0,0-.017-1.716c-.152-.493-.294-1.441-.093-1.7s.019-1.442.019-1.442a14.574,14.574,0,0,1,.275-3.12,27.318,27.318,0,0,0,.184-4.543l.074-2.574s.6-.568.458-3.53a4.924,4.924,0,0,1,1.477.026c.2.164,1.506,1,2.282.474a10.136,10.136,0,0,0,.918-.712l-.324-5.471c.2.3.325.507.325.507,0-.767,2.168-3.248,2.168-3.248a34.972,34.972,0,0,1,2.462-2.92,9.213,9.213,0,0,0,1.3-1.954,7.951,7.951,0,0,1,.442-.912C831.456,331.739,830.785,330.864,830.863,330.662Zm-4.741,1.916a3.593,3.593,0,0,0-1.727,1.588,1.151,1.151,0,0,1-.245.49c-.009-.11-.019-.222-.027-.336a37.051,37.051,0,0,1-.207-3.769,11.059,11.059,0,0,0,.073-1.806h0l.02-.028a9.33,9.33,0,0,0,1.521,2.5s.2.584.442.6S826.122,332.578,826.122,332.578Z" transform="translate(-691.497 -267.617)"/><path class="k" d="M813.82,473.231s.671-3.514,2.82-3.531l1.575,3.241-1.05.725A9.841,9.841,0,0,1,813.82,473.231Z" transform="translate(-708.659 -408.685)"/><path class="f" d="M818.221,472.948l-1.051.725a12.33,12.33,0,0,1-2.752-.232,3.1,3.1,0,0,1-.6-.2.2.2,0,0,1,.012-.056.071.071,0,0,1,0-.013,7.948,7.948,0,0,1,.4-1.29,5,5,0,0,1,.223-.483,3.265,3.265,0,0,1,1.366-1.5,1.862,1.862,0,0,1,.718-.188h.1l.034.071.537,1.1Z" transform="translate(-708.659 -408.694)"/><path class="k" d="M969.249,537.742a12.1,12.1,0,0,1,2.462-.055c.2.162,1.485,1,2.246.471s.254-2.355.254-2.427-.072-2.662-.072-2.662l-1.359-1.829-1.7-3.206-3.477-.344.09,5.089-.018,2.606Z" transform="translate(-841.792 -458.889)"/><path class="f" d="M969.249,537.742a12.1,12.1,0,0,1,2.462-.055c.2.162,1.485,1,2.246.471s.254-2.355.254-2.427-.072-2.662-.072-2.662l-1.359-1.829-1.7-3.206-3.477-.344.09,5.089-.018,2.606Z" transform="translate(-841.792 -458.889)"/><path class="n" d="M798.216,447.5s-.18,2.21-1.557,2.246c0,0-.389-.235-.914-.627-1.208-.906-3.128-2.645-2.6-4.264.76-2.317,4.455,1.956,4.455,1.956l.285.318Z" transform="translate(-690.682 -386.583)"/><path class="f" d="M814.79,466.619s-.18,2.21-1.557,2.246c0,0-.389-.235-.914-.627l-.118-.152a1.785,1.785,0,0,0,.754.2,1.016,1.016,0,0,0,.984-.62,7.731,7.731,0,0,0,.383-.875,2.557,2.557,0,0,0,.134-.544Z" transform="translate(-707.256 -405.698)"/><path class="o" d="M814.819,469.408l-.31-.4-1.042-1.343-.537-.686a1.784,1.784,0,0,0,.755.2,1.018,1.018,0,0,0,.984-.62,7.685,7.685,0,0,0,.381-.877c.172-.489.169-.74.107-.824a5.605,5.605,0,0,1,.6.53l.008.008.1.1.036.074.525,1.049v.044C816.483,466.995,816.66,469.108,814.819,469.408Z" transform="translate(-707.888 -404.483)"/><path class="k" d="M842.844,827.343s-1.522,1-2.282.85a2.721,2.721,0,0,0-1.54.255,4.584,4.584,0,0,1-1.92,1.25,7.019,7.019,0,0,1-3.93-.074c-.463-.155-.5-.353-.277-.6a7.885,7.885,0,0,1,1.477-.995,14.2,14.2,0,0,0,2.585-2.2.789.789,0,0,1,.236-.525,3.033,3.033,0,0,0,.365-.381c.195-.231.377-.471.377-.471l4.473.146s.075.322.134.651a2.347,2.347,0,0,1,.063.652.587.587,0,0,0,.128.453l.079.74Z" transform="translate(-725.058 -715.806)"/><path class="k" d="M948.249,830.806c-.054.216-.118.6-.148.787-.009.062-.015.1-.015.1s-.363.8-2.372,1.086-2.014-.671-2.014-.671.008-.1.021-.259a13.882,13.882,0,0,1,.161-1.407,6.5,6.5,0,0,0-.055-1.269l-.022-1.074-.015-.75,3.335-.349a6.152,6.152,0,0,0,.107.742.992.992,0,0,0,.145.38,3.32,3.32,0,0,1,.291,1.086A5.718,5.718,0,0,1,948.249,830.806Z" transform="translate(-821.101 -718.013)"/><path class="f" d="M873.21,824.6s.075.322.134.651a9.44,9.44,0,0,1-3.124.2,8.243,8.243,0,0,0-1.88-.453l.022-.072c.195-.231.377-.471.377-.471Z" transform="translate(-755.859 -715.806)"/><path class="f" d="M947.82,827.745a13.1,13.1,0,0,0-3.425.352l-.015-.75,3.335-.346A6.206,6.206,0,0,0,947.82,827.745Z" transform="translate(-821.69 -718.013)"/><path class="p" d="M881.8,557.285l-.071,2.551a27.331,27.331,0,0,1-.181,4.51,14.534,14.534,0,0,0-.268,3.1s.181,1.176-.019,1.43-.055,1.195.091,1.684a6.55,6.55,0,0,1,.018,1.7l-.036,6.847a7.443,7.443,0,0,1-.452,2.029.592.592,0,0,0-.148.577,6.174,6.174,0,0,0-.164,1.195.6.6,0,0,1-.252.8c-.416.2-.309.832-.309.832a14.111,14.111,0,0,0-3.821.4,17.21,17.21,0,0,1-.8-1.937,1,1,0,0,1,.725-1.323c.38-.054-.269-.724-.269-.724s.073-.091-.109-.743a10.47,10.47,0,0,1,.09-2.754c.054-.435.328-2.536.328-2.536a23.235,23.235,0,0,1-.036-2.771,2.42,2.42,0,0,0,.29-1.5,18.034,18.034,0,0,1-.471-2.735c0-.127-.235-3.061-.235-3.061s-.219-2.046-.167-2.474a16.57,16.57,0,0,0-.146-2.047,6.964,6.964,0,0,0-.777-2.789l-.02.052-1.684,4.421s-.268,1.343-.506,2.1a13.787,13.787,0,0,0-.354,1.573l-.016.1a.586.586,0,0,1-.016.1l-.011.072h0a2.907,2.907,0,0,1-.073,1.269,4.515,4.515,0,0,0-.416,1.485c0,.254.017,1.231.017,1.231a8.291,8.291,0,0,1-.126,2.148.339.339,0,0,0-.091.4,6.23,6.23,0,0,1,.181,1.847,3.808,3.808,0,0,0-.035,1.268s-.29,2.807-.326,2.954-.236,1.267-.019,1.359a2.917,2.917,0,0,1,.634.634s.091,2.372-.235,2.551-.145,1.1-.145,1.1-2.626.508-3.222.217a8.252,8.252,0,0,0-1.88-.454l.18-.6c-.011.022-.134.215-.216-.526-.09-.779.671-.4.671-.4s.6.145-.363-.8a1.524,1.524,0,0,1-.435-1.9,12.373,12.373,0,0,0,.181-1.394,4.618,4.618,0,0,0,.036-1.486c-.128-.653-.239-2.68-.239-2.68a9.921,9.921,0,0,0-.073-2.1,4.488,4.488,0,0,1,.162-1.811c.054-.236-.162-2.391-.162-2.391a6.686,6.686,0,0,0,.073-1.755,29.845,29.845,0,0,1,.109-3.477l.326-3.153a6.654,6.654,0,0,0,.2-1.376,11.24,11.24,0,0,1,.268-1.792,1.985,1.985,0,0,1,.145-.87,6.688,6.688,0,0,0,.255-1.558l1.737-3.985.854-3.507,11.5-.109s.042.3.112.858.168,1.373.276,2.386c.1.918.211,2,.318,3.2C882.529,556.6,881.8,557.285,881.8,557.285Z" transform="translate(-753.788 -475.009)"/><path class="n" d="M936.579,372.765l-2.685,2.863s-3.44-1.378-3.079-1.848a2.731,2.731,0,0,0,.038-1.392c-.134-1-.4-2.158-.4-2.158s6.012-.979,5.5.035a1.673,1.673,0,0,0-.037,1.208A4.508,4.508,0,0,0,936.579,372.765Z" transform="translate(-809.63 -322.203)"/><path class="f" d="M935.989,370.256c-.185.371-.268.4-.158.806a4.452,4.452,0,0,1-3.029,1.766,4.277,4.277,0,0,1-1.918-.454c-.134-1-.4-2.158-.4-2.158S936.5,369.242,935.989,370.256Z" transform="translate(-809.656 -322.193)"/><path class="n" d="M924.282,331.472a4.311,4.311,0,1,1-8.622,0v-.062a4.311,4.311,0,1,1,8.621.062Z" transform="translate(-796.826 -285.257)"/><path class="f" d="M906.347,555.9c-.571,0-2.472.02-4.6.054h-.027l-.7.012H901c-2.52.04-5-.453-6-.359-2.119.2.76-1.956.76-1.956a17.7,17.7,0,0,0,4.833.487l.609-.031a26,26,0,0,0,4.871-.593C906.143,554.07,906.238,554.884,906.347,555.9Z" transform="translate(-778.267 -481.243)"/><path class="q" d="M906.347,555.086c-.571,0-2.472.02-4.6.054h-.027l-.7.012H901c-2.52.04-5-.453-6-.359-2.119.2.76-1.956.76-1.956a17.724,17.724,0,0,0,4.833.489l.609-.032a26.014,26.014,0,0,0,4.871-.593C906.143,553.26,906.238,554.074,906.347,555.086Z" transform="translate(-778.267 -480.541)"/><path class="f" d="M901.065,396.561l-3.332,1.558L895.16,418s1.521-.689,2.391-.254,3.55.036,3.55.036a8.24,8.24,0,0,1,2.245.109c.289.218,3.7-.906,3.7-.906s.616-1.376.145-1.594.145-2.354.145-2.354l-.29-14.345-.579-1.847-1.557-.94-1.6,1.267-.76.109Z" transform="translate(-779.078 -344.802)"/><path class="o" d="M901.065,394.976l-3.332,1.557-2.573,19.885s1.521-.689,2.4-.248,3.55.036,3.55.036a8.236,8.236,0,0,1,2.245.109c.289.217,3.7-.9,3.7-.9s.616-1.378.145-1.594.145-2.355.145-2.355l-.29-14.344-.579-1.847-1.557-.94-1.6,1.267-.76.109Z" transform="translate(-779.078 -343.434)"/><path class="f" d="M922.03,404.165s.96,1.14.94,1.376-.055.8-.055.8l-.714,1.47s-.4,1.829-.4,2.21-.636,3.68-.636,3.68l-.761,5.071-.96,6.647.979,1.684,1.158-.977,1.54-11.845.325-2.336s.345-4.2.345-4.637a14.706,14.706,0,0,0-.2-1.575,1.861,1.861,0,0,1,1.208-1.343c.972-.255-.073-.054-.073-.054l-.561-.452-.485.2S922.32,403.66,922.03,404.165Z" transform="translate(-800.098 -351.702)"/><path class="p" d="M921.176,403.323s.96,1.14.94,1.376-.055.8-.055.8l-.724,1.467s-.4,1.829-.4,2.21-.634,3.676-.634,3.676l-.761,5.071-.96,6.647.985,1.686,1.159-.977,1.537-11.847.326-2.336s.344-4.2.344-4.637a14.694,14.694,0,0,0-.2-1.575,1.862,1.862,0,0,1,1.209-1.343c.972-.255-.073-.055-.073-.055l-.561-.452-.489.2S921.467,402.815,921.176,403.323Z" transform="translate(-799.354 -350.966)"/><path class="f" d="M928.568,391s-.145.109-.181.834a14.674,14.674,0,0,1-.537,2.354s1.88-1.3,2.819-1.159Z" transform="translate(-807.379 -340.551)"/><path class="o" d="M928.568,389.42s-.145.109-.181.834a14.7,14.7,0,0,1-.537,2.355s1.88-1.305,2.819-1.16Z" transform="translate(-807.379 -339.184)"/><path class="f" d="M952.36,386.73l-2.97,2.607a29.282,29.282,0,0,1,2.82,1.847c.32.362.653-3.55.653-3.55Z" transform="translate(-826.027 -336.855)"/><path class="o" d="M953.17,385.11l-2.97,2.607a29.4,29.4,0,0,1,2.819,1.847c.321.363.653-3.55.653-3.55Z" transform="translate(-826.729 -335.452)"/><path class="f" d="M878.281,390.826s-.326-.163-.634.309a2.048,2.048,0,0,1-.888.687s-3.3.525-3.422.96l-1.54.091s-.544.072-.6,1.208-.344,1.25-.344,1.25a4.459,4.459,0,0,0-.579,1.712.957.957,0,0,1-.488.87l2.263,5.886a11.038,11.038,0,0,1-.344,3.314,42.357,42.357,0,0,0-1.2,4.817s.326-.073.309.145-.4,2.59-.4,2.59a5.225,5.225,0,0,1-.29,1.267,9.208,9.208,0,0,0-.2,2.029l-.29,1.232s.687,1.539,1.745,1.321,2.954-4.329,2.954-4.329l1.208-4.431.94-4.382.268-2.97.435-6.579.634-4.346S878.536,391.14,878.281,390.826Z" transform="translate(-756.985 -340.377)"/><path class="k" d="M877.473,389.246s-.326-.162-.634.309a2.047,2.047,0,0,1-.887.687s-3.3.526-3.422.96l-1.54.091s-.537.073-.6,1.208-.344,1.253-.344,1.253a4.364,4.364,0,0,0-.58,1.7.955.955,0,0,1-.489.87l2.264,5.886a11.042,11.042,0,0,1-.344,3.314,42.32,42.32,0,0,0-1.2,4.817s.326-.071.309.145-.4,2.59-.4,2.59a5.245,5.245,0,0,1-.29,1.269,9.212,9.212,0,0,0-.2,2.027l-.29,1.232s.688,1.539,1.739,1.321,2.954-4.329,2.954-4.329l1.208-4.431.94-4.384.268-2.97.435-6.579.634-4.346S877.726,389.554,877.473,389.246Z" transform="translate(-756.283 -339.009)"/><path class="f" d="M817.546,472.265l-1.051.725a12.336,12.336,0,0,1-2.752-.232l-.585-.259-.117-.051.121.038a2.383,2.383,0,0,0,1.449.051c1.486-.5,1.322-2.954,1.265-3.509a.482.482,0,0,0-.012-.106h0a.08.08,0,0,0,.008.013.765.765,0,0,0,.069.1c.02.024.043.048.066.071h0l.525,1.049v.044Z" transform="translate(-707.984 -408.01)"/><path class="k" d="M821.948,441.09l-.506.145-.072,1.033a.7.7,0,0,0-.761.615,2.5,2.5,0,0,1-.452,1.032s-1,.834-1.05,1.54l-.61.38s-1.431-.326-1.756-.9c0,0,.651,4.672-2.819,3.531,0,0,3.894,1.7,4.075,1.937a2.285,2.285,0,0,0,2.464.345,2.612,2.612,0,0,0,1.323-1.467,15.255,15.255,0,0,0,1.086-1.685c.036-.217.851-.47.851-.47l1.544-3.761Z" transform="translate(-708.746 -383.916)"/><path class="f" d="M966.072,387.5l.525-2.39a2.831,2.831,0,0,0,.471.96l.779.6a4.524,4.524,0,0,0,1.05.363,6.238,6.238,0,0,1,1.92.579c.181.2.906.055.906.055s.6.2,1.122.326.779.995.671,1.343a1.043,1.043,0,0,0,.254.977,2.332,2.332,0,0,1,.326.924,1.066,1.066,0,0,1,.615.525,3.733,3.733,0,0,1,.134,1.269l-2.7,3.8a11.05,11.05,0,0,1-.072,1.794c-.109.326.38,5.867.38,5.867l.561,9.533a10.167,10.167,0,0,1-.905.706,22.763,22.763,0,0,1-.326-3.491c0-.122-4.192-6.273-4.192-6.273a5.6,5.6,0,0,1-.561-1.1c0-.2-.525-2.029-.525-2.029l-.8-3.531Z" transform="translate(-840.156 -335.452)"/><path class="k" d="M976.465,392.86v.207l-2.7,3.8h0a11.066,11.066,0,0,1-.072,1.794c-.063.188.075,2.137.2,3.739.091,1.155.177,2.128.177,2.128l.239,4.041.322,5.486a10.139,10.139,0,0,1-.9.706,22.785,22.785,0,0,1-.326-3.491c0-.122-4.192-6.262-4.192-6.262a5.643,5.643,0,0,1-.561-1.1c0-.2-.525-2.029-.525-2.029l-.8-3.531.363-10.795.307-2.39a5.188,5.188,0,0,0,.689.959c.236.18.779.6.779.6a4.525,4.525,0,0,0,1.05.363,6.236,6.236,0,0,1,1.92.579c.181.2.906.055.906.055s.6.2,1.122.326.779,1,.671,1.343a1.045,1.045,0,0,0,.254.979,2.342,2.342,0,0,1,.325.924,1.066,1.066,0,0,1,.616.526A2.881,2.881,0,0,1,976.465,392.86Z" transform="translate(-841.559 -335.495)"/><path class="f" d="M870.48,801.93c.09,0,3.894.145,3.821.76S870.48,801.93,870.48,801.93Z" transform="translate(-757.712 -696.309)"/><path class="f" d="M876.82,809.62s2.551.416,1.88.8S876.82,809.62,876.82,809.62Z" transform="translate(-763.201 -702.967)"/><path class="f" d="M947.5,799s4.239.362,3.6.832a5.593,5.593,0,0,1-2.21.563C948.823,800.414,947.5,799,947.5,799Z" transform="translate(-824.391 -693.773)"/><path class="f" d="M943.72,812.85s2.355.4,2.427.851S943.72,812.85,943.72,812.85Z" transform="translate(-821.118 -705.763)"/><path class="f" d="M953.44,731.65s2.148.508,2.282.851Z" transform="translate(-829.534 -635.465)"/><path class="f" d="M888.233,743.25s-1.122.326-.036.977S888.233,743.25,888.233,743.25Z" transform="translate(-772.64 -645.508)"/><path class="f" d="M928.62,610.8c.126,0,2.1-.653,2.789-.363a4.6,4.6,0,0,0,1.54.29Z" transform="translate(-808.046 -530.466)"/><path class="f" d="M913.974,622.62l-.02.18-1.684,4.421s-.269,1.343-.506,2.1a13.767,13.767,0,0,0-.355,1.574l1.495-9.264Z" transform="translate(-793.146 -540.217)"/><path class="p" d="M942.775,558.966l-.7.012h-.023l-.411-1.826.61-.032Z" transform="translate(-819.318 -484.368)"/><path class="n" d="M966.713,543.189l-.45.372-1.505,1.239s-4.076,2.174-5.2.109c-.99-1.819,3.625-3.118,4.743-3.4l.238-.058Z" transform="translate(-834.712 -470.802)"/><path class="f" d="M884.1,421.8s.8.363.979.869S884.1,421.8,884.1,421.8Z" transform="translate(-769.503 -367.216)"/><path class="f" d="M860.593,462.27s-1.16,1.412-.689,1.955S860.593,462.27,860.593,462.27Z" transform="translate(-748.458 -402.253)"/><path class="f" d="M1012.833,427.73s-1.086.109-1.122,1.051Z" transform="translate(-879.98 -372.35)"/><path class="f" d="M945.07,515.8c.109-.109,2.609-3.8,3.187-3.477Z" transform="translate(-822.287 -445.564)"/><path class="f" d="M924.291,331.524a4.3,4.3,0,0,1-.51,2.035h-.032c-.269-.058-.415-.376-.624-.576a.849.849,0,0,0-.977-.134.993.993,0,0,0-.481.929c-.134-.58-.094-1.2-.229-1.778s-.537-1.169-1.094-1.179c-.239,0-.518.089-.691-.091-.1-.107-.126-.278-.2-.409-.4-.642-1.6-.317-2.1.012a12.859,12.859,0,0,1-1.68,1.137,4.311,4.311,0,1,1,8.622.062Z" transform="translate(-796.834 -285.309)"/><path class="p" d="M912.382,315.15c.078.134.1.3.2.41.172.18.451.087.692.091.554.009.96.6,1.094,1.179s.091,1.2.23,1.779a.991.991,0,0,1,.481-.929.851.851,0,0,1,.977.134c.209.2.352.518.624.575s.537-.2.635-.491a8.026,8.026,0,0,0,.157-.9,11.308,11.308,0,0,1,.7-1.565,2.835,2.835,0,0,0-.019-2.023c-.134-.34-.338-.646-.475-.985-.208-.517-.269-1.1-.517-1.591a1.876,1.876,0,0,0-2.256-.925c-.395.148-.736.434-1.136.563a3.736,3.736,0,0,1-1.661-.035,2.044,2.044,0,0,0-1.611.281c-.513.419-.653,1.208-1.135,1.668-.2.193-.454.317-.671.5a.884.884,0,0,0-.372.736c.031.375.4.716.269,1.063a.842.842,0,0,1-.2.269,3.781,3.781,0,0,0-.877,1.492c.969.3,2.014-.765,2.776-1.27C910.778,314.833,911.985,314.508,912.382,315.15Z" transform="translate(-789.77 -270.255)"/><path class="f" d="M997.74,543.189l-.45.372a13.483,13.483,0,0,0-2.03-1.984l.07-.068.238-.058Z" transform="translate(-865.739 -470.802)"/><path class="o" d="M998.906,538.753s-.161.4-.329.752-.35.671-.358.4c-.019-.507-2.119-2.21-2.119-2.21l.285-.277.33-.321Z" transform="translate(-866.466 -467.036)"/><path class="f" d="M999.061,515.718l.239,4.041c-.564-.874-2.108-3.118-3.1-3.045l2.409-2.771a3.189,3.189,0,0,0,.275-.353C998.975,514.745,999.061,515.718,999.061,515.718Z" transform="translate(-866.552 -446.682)"/><path class="f" d="M1000.742,538.779s-.161.4-.329.752a5.755,5.755,0,0,0-2.193-2.08l.33-.321Z" transform="translate(-868.301 -467.062)"/><path class="k" d="M1001.5,440.28l.652.507s1.086.017,1.195.924a1.881,1.881,0,0,0,1.105,1.321s.742.743.742,1.088.561.96.561,1.014a6.251,6.251,0,0,1,.471,1.359c-.066.2.579,1.074.38,1.394a8.207,8.207,0,0,0-.435.906,9.2,9.2,0,0,1-1.285,1.937,34.943,34.943,0,0,0-2.428,2.9s-2.138,2.462-2.138,3.222c0,0-2.082-3.477-3.313-3.387l2.415-2.77s.416-.452.435-.724a3.559,3.559,0,0,1,1.7-1.576s.09-.742-.145-.76-.435-.6-.435-.6-1.594-1.88-1.611-3.079S1001.5,440.28,1001.5,440.28Z" transform="translate(-867.254 -383.215)"/><path class="f" d="M1029.609,453.09s-1.521,1.124-1.195,1.485S1029.609,453.09,1029.609,453.09Z" transform="translate(-894.402 -394.305)"/><path class="f" d="M1038.15,485.033s2.82-.906,3.115,0Z" transform="translate(-902.87 -421.611)"/><path class="f" d="M842.844,844.424s-1.522,1-2.282.85a2.722,2.722,0,0,0-1.54.255,4.584,4.584,0,0,1-1.92,1.25,7.019,7.019,0,0,1-3.93-.074c-.463-.154-.5-.353-.277-.6,1.062.212,3.438.634,4.08.328A17.541,17.541,0,0,0,839,845.167s1.559-.205,1.776-.205a19.466,19.466,0,0,0,2.035-.781Z" transform="translate(-725.058 -732.887)"/><path class="f" d="M948.1,861.21c-.009.062-.015.1-.015.1s-.362.8-2.372,1.086-2.014-.671-2.014-.671.008-.1.022-.259A6.607,6.607,0,0,0,948.1,861.21Z" transform="translate(-821.101 -747.63)"/><path class="f" d="M886.786,451.47s0,4.13-.353,4.538S886.786,451.47,886.786,451.47Z" transform="translate(-771.437 -392.903)"/><path class="f" d="M1011.31,461.39l.525,1.477S1012.043,461.417,1011.31,461.39Z" transform="translate(-879.634 -401.491)"/><g class="r" transform="translate(117.737 43.031)"><path class="s" d="M913.865,336.788c.134-.34-.214-.671-.259-1.038a.671.671,0,0,0-.058.328,6.341,6.341,0,0,0,.279.784A.5.5,0,0,0,913.865,336.788Z" transform="translate(-912.733 -335.75)"/><path class="s" d="M914.633,348.08c-.134-.572-.092-1.176-.223-1.745s-.537-1.169-1.1-1.179c-.239,0-.518.089-.691-.091-.1-.107-.125-.278-.2-.41-.4-.642-1.6-.317-2.1.012-.741.493-1.759,1.523-2.708,1.289-.046.11-.089.22-.123.334.969.3,2.014-.765,2.776-1.27.494-.329,1.7-.654,2.1-.012.078.134.1.3.2.409.172.18.451.087.691.091.555.009.96.6,1.094,1.179s.091,1.2.23,1.779A1.024,1.024,0,0,1,914.633,348.08Z" transform="translate(-907.49 -343.14)"/><path class="s" d="M963.474,365.453c-.1.287-.357.55-.636.491s-.415-.375-.623-.575a.852.852,0,0,0-.978-.134.982.982,0,0,0-.48.877.939.939,0,0,1,.425-.524.852.852,0,0,1,.978.134c.209.2.352.518.624.575s.537-.2.635-.491a2.425,2.425,0,0,0,.1-.521A1.487,1.487,0,0,1,963.474,365.453Z" transform="translate(-953.605 -361.193)"/><path class="s" d="M982.5,346.529a11.5,11.5,0,0,0-.7,1.565c-.024.114-.039.231-.053.348a11.438,11.438,0,0,1,.694-1.56,2.824,2.824,0,0,0,.168-.752A2.9,2.9,0,0,1,982.5,346.529Z" transform="translate(-971.78 -344.736)"/></g></svg>