<svg xmlns="http://www.w3.org/2000/svg" width="135" height="135" viewBox="0 0 135 135"><defs><style>.a,.b{fill:#96acf9;}.a{opacity:0.1;}</style></defs><g transform="translate(-646 -454)"><circle class="a" cx="67.5" cy="67.5" r="67.5" transform="translate(646 454)"/><g transform="translate(675.008 499.72)"><g transform="translate(21.987 25.423)"><path class="b" d="M173.05,283.687a13.424,13.424,0,0,0-6.456-1.642h-5.557a13.494,13.494,0,0,0-13.5,13.5v4.164h32.551v-4.164A13.492,13.492,0,0,0,173.05,283.687Z" transform="translate(-147.54 -282.045)"/></g><g transform="translate(50.903 21.724)"><path class="b" d="M353.52,257.225H348.9a13.364,13.364,0,0,0-7.32,2.171,18,18,0,0,1,8.105,15.025v1.958h17.291v-5.7A13.472,13.472,0,0,0,353.52,257.225Z" transform="translate(-341.58 -257.225)"/></g><g transform="translate(0 21.724)"><path class="b" d="M18.076,257.225h-4.62A13.472,13.472,0,0,0,0,270.682v5.7H17.516v-1.958a18.011,18.011,0,0,1,7.994-14.95A13.369,13.369,0,0,0,18.076,257.225Z" transform="translate(0 -257.225)"/></g><g transform="translate(51.463 1.486)"><path class="b" d="M354.4,121.416h-.072a9.576,9.576,0,0,0,.086,19.121h.072a8.78,8.78,0,0,0,6.443-2.909,9.779,9.779,0,0,0,2.547-6.726A9.34,9.34,0,0,0,354.4,121.416Z" transform="translate(-345.337 -121.416)"/></g><g transform="translate(6.697 1.486)"><path class="b" d="M54,121.416h-.072a9.576,9.576,0,0,0,.086,19.121h.072a8.781,8.781,0,0,0,6.443-2.909,9.778,9.778,0,0,0,2.547-6.726A9.34,9.34,0,0,0,54,121.416Z" transform="translate(-44.938 -121.416)"/></g><g transform="translate(27.808)"><path class="b" d="M197.055,111.445c-5.766,0-10.455,4.955-10.455,11.047a11.118,11.118,0,0,0,5.986,9.984,9.943,9.943,0,0,0,8.938,0,11.118,11.118,0,0,0,5.986-9.984C207.511,116.4,202.821,111.445,197.055,111.445Z" transform="translate(-186.6 -111.445)"/></g></g></g></svg>