<svg xmlns="http://www.w3.org/2000/svg" width="15.21" height="18.999" viewBox="0 0 15.21 18.999"><defs><style>.a{fill:#767676;}</style></defs><g transform="translate(10560.999 17006)"><path class="a" d="M108.541,8.7a4.19,4.19,0,0,0,4.006-4.352c0-2.4-.589-4.352-4.006-4.352s-4.006,1.948-4.006,4.352A4.19,4.19,0,0,0,108.541,8.7Z" transform="translate(-10661.936 -17006)"/><path class="a" d="M57.11,184.674c-.075-4.732-.689-6.081-5.392-6.934a3.289,3.289,0,0,1-4.41,0c-4.651.844-5.3,2.173-5.389,6.781-.007.376-.01.4-.012.352,0,.082,0,.233,0,.5,0,0,1.12,2.27,7.6,2.27s7.6-2.27,7.6-2.27c0-.17,0-.288,0-.368A3.055,3.055,0,0,1,57.11,184.674Z" transform="translate(-10602.907 -17174.641)"/></g></svg>