<svg xmlns="http://www.w3.org/2000/svg" xmlns:xlink="http://www.w3.org/1999/xlink" width="444.016" height="266.027" viewBox="0 0 444.016 266.027"><defs><style>.a,.ac,.af,.ai,.ak,.am,.an,.ao,.b,.e,.g,.k,.r{fill:none;}.a,.b{stroke:#a9c6ea;}.a,.ac,.af,.ai,.am,.an,.b,.e,.g,.k,.l,.o,.r,.u,.v{stroke-miterlimit:10;}.a{stroke-dasharray:5 3.5;}.c{fill:#e4ecf9;}.d,.w{fill:#d7e3f4;}.ao,.e{stroke:#fff;}.f{fill:#b2cded;}.g,.u,.v{stroke:#648acc;}.h,.p{fill:#ffbfc5;}.i{fill:#e6c9c9;}.j,.l{fill:#4d4cac;}.k{stroke:#4d4cac;}.ac,.af,.ai,.ak,.am,.an,.k,.l,.o{stroke-width:0.75px;}.am,.l{stroke:#273b7a;}.ag,.m,.n,.o{fill:#ead6d6;}.n,.p,.t{fill-rule:evenodd;}.o{stroke:#bea7ae;}.q{fill:#0b0b3a;}.r{stroke:#0b0b3a;stroke-width:0.5px;}.ak,.ao,.r{stroke-linecap:round;}.s,.v{fill:#fff;}.t{fill:#fdbbc1;}.aj,.u{fill:#d9e4f4;}.w{opacity:0.45;}.x{fill:#648acc;}.y{fill:#ff808b;}.z{fill:#22252d;}.aa{fill:#212237;}.ab{fill:#28364c;}.ac{stroke:#28364c;}.ad{fill:#103bb2;}.ae{fill:#f2b18f;}.af{stroke:#0b2e6b;}.ag{opacity:0.4;}.ah{fill:url(#a);}.ai{stroke:#846a6a;}.ak{stroke:#00276f;stroke-linejoin:round;}.al{fill:#5957c6;}.an{stroke:#474b51;}.ao{stroke-width:0.2px;}</style><linearGradient id="a" x1="0.162" y1="0.711" x2="0.639" y2="0.406" gradientUnits="objectBoundingBox"><stop offset="0" stop-color="#f4ecec"/><stop offset="1" stop-color="#ead6d6"/></linearGradient></defs><g transform="translate(-111.498 -414.085)"><g transform="translate(115.149 414.085)"><path class="a" d="M93.615,294.408c-11.488-2.809-23-9.048-30.658-18.147C39.03,247.834,67.069,211.4,94.966,199.928c13.6-5.6,25.865-12.279,29.864-27.792,3.825-14.84-6.65-30.35-9.353-44.509-5.443-28.508,20.193-50.558,47.238-50.562,24.929,0,36.151,9.5,60.886,26.072,18.7,12.526,53.808,19.872,80.781,17.224,32.124-3.153,44.236-17.225,69.84-28.679,17.621-7.883,42.185-9.569,58.669,2.115,17.608,12.481,10.917,36.921,12.921,55.171a33.876,33.876,0,0,0,3.987,13.112c14.426,25.457,43.977,26.766,43.977,64.463,0,28.336-47.106,38.847-69.663,41.922" transform="translate(-53.913 -69.785)"/><line class="b" x2="9.616" transform="translate(32.962 82.538)"/><line class="b" x2="9.616" transform="translate(42.578 87.887)"/><line class="b" x2="9.616" transform="translate(326.415 40.53)"/><line class="b" x2="9.616" transform="translate(320.311 45.879)"/><line class="b" x2="13.068" transform="translate(334.966 43.327)"/><line class="b" x2="6.919" transform="translate(418.829 154.519)"/><line class="b" x2="9.616" transform="translate(412.555 149.231)"/><line class="b" x2="9.616" transform="translate(100.878 14.57)"/><line class="b" x2="15.812" transform="translate(85.214 130.452)"/><line class="b" x2="8.208" transform="translate(104.366 130.452)"/><path class="b" d="M479.7,228.346a3.1,3.1,0,1,1-3.1-3.1A3.1,3.1,0,0,1,479.7,228.346Z" transform="translate(-190.608 -118.06)"/><path class="b" d="M660.631,196.491a3.1,3.1,0,1,1-3.1-3.1A3.1,3.1,0,0,1,660.631,196.491Z" transform="translate(-249.552 -107.681)"/><path class="b" d="M489.728,97.246a3.1,3.1,0,1,1-3.1-3.1A3.1,3.1,0,0,1,489.728,97.246Z" transform="translate(-193.874 -75.348)"/><path class="b" d="M581.183,104.893a1.544,1.544,0,1,1-1.544-1.544A1.544,1.544,0,0,1,581.183,104.893Z" transform="translate(-224.685 -78.348)"/><path class="b" d="M441.163,276.966a1.544,1.544,0,1,1-1.544-1.544A1.544,1.544,0,0,1,441.163,276.966Z" transform="translate(-179.068 -134.407)"/><path class="b" d="M175.051,112.7a1.544,1.544,0,1,1-1.545-1.545A1.545,1.545,0,0,1,175.051,112.7Z" transform="translate(-92.372 -80.891)"/><path class="b" d="M71.542,255.806A1.544,1.544,0,1,1,70,254.262,1.544,1.544,0,0,1,71.542,255.806Z" transform="translate(-58.65 -127.514)"/><path class="b" d="M184.35,208.89a1.544,1.544,0,1,1-1.544-1.544A1.544,1.544,0,0,1,184.35,208.89Z" transform="translate(-95.402 -112.229)"/><g transform="translate(39.476 48.749)"><line class="b" y2="3.654" transform="translate(1.827)"/><line class="b" x1="3.654" transform="translate(0 1.827)"/></g><g transform="translate(253.254 0)"><line class="b" y2="3.654" transform="translate(1.827)"/><line class="b" x1="3.654" transform="translate(0 1.827)"/></g><g transform="translate(368.264 56.513)"><line class="b" y2="3.654" transform="translate(1.827)"/><line class="b" x1="3.654" transform="translate(0 1.827)"/></g><g transform="translate(428.01 105.356)"><line class="b" y2="3.654" transform="translate(1.827)"/><line class="b" x1="3.654" transform="translate(0 1.827)"/></g><g transform="translate(410.728 169.5)"><line class="b" y2="3.654" transform="translate(1.827)"/><line class="b" x1="3.654" transform="translate(0 1.827)"/></g><g transform="translate(250.47 83.032)"><path class="c" d="M482.9,235.391a30.724,30.724,0,0,0,4-13.752l-6.495-.9a24.094,24.094,0,0,0-.714-6.425l6.15-2.3a30.941,30.941,0,0,0-6.9-12.55l-5.235,3.961a24.086,24.086,0,0,0-5.042-4.047l2.721-5.965a30.716,30.716,0,0,0-13.753-4l-.9,6.494a24.093,24.093,0,0,0-6.425.715l-2.3-6.149a30.935,30.935,0,0,0-12.55,6.9l3.961,5.235a24.109,24.109,0,0,0-4.047,5.042l-5.965-2.721a30.71,30.71,0,0,0-4,13.752l6.494.9a24.1,24.1,0,0,0,.715,6.426l-6.149,2.3a30.928,30.928,0,0,0,6.9,12.55l5.234-3.961a24.088,24.088,0,0,0,5.042,4.047l-2.721,5.965a30.711,30.711,0,0,0,13.752,4l.9-6.494A24.1,24.1,0,0,0,462,243.7l2.3,6.149a30.927,30.927,0,0,0,12.55-6.9l-3.961-5.235a24.1,24.1,0,0,0,4.047-5.042Zm-31.08-.313A15.533,15.533,0,1,1,471.071,224.5,15.533,15.533,0,0,1,451.821,235.079Zm1.138-3.916a11.454,11.454,0,1,1,14.195-7.8A11.454,11.454,0,0,1,452.959,231.162Z" transform="translate(-425.413 -189.421)"/></g><g transform="translate(284.251 51.889)"><path class="c" d="M505.8,157.059a15.179,15.179,0,0,0-2.232-6.71l-2.892,1.456a11.931,11.931,0,0,0-2.092-2.411l1.855-2.658a15.275,15.275,0,0,0-6.323-3.165l-1.016,3.077a11.918,11.918,0,0,0-3.184-.23l-.566-3.188a15.178,15.178,0,0,0-6.71,2.232l1.456,2.892a11.893,11.893,0,0,0-2.411,2.092l-2.658-1.855a15.276,15.276,0,0,0-3.166,6.323l3.078,1.017a11.887,11.887,0,0,0-.231,3.184l-3.187.566a15.155,15.155,0,0,0,2.232,6.71l2.892-1.456a11.894,11.894,0,0,0,2.092,2.411L480.879,170a15.27,15.27,0,0,0,6.323,3.165l1.017-3.077a11.887,11.887,0,0,0,3.184.231l.567,3.187a15.155,15.155,0,0,0,6.71-2.232l-1.456-2.892a11.917,11.917,0,0,0,2.412-2.092l2.658,1.855a15.273,15.273,0,0,0,3.165-6.323l-3.077-1.017a11.942,11.942,0,0,0,.231-3.184Zm-13.1,7.435a6.454,6.454,0,1,1,4.086-8.161A6.454,6.454,0,0,1,492.7,164.494Z" transform="translate(-475.518 -143.23)"/></g><g transform="translate(108.946 22.707)"><path class="c" d="M261.846,121.111a23.2,23.2,0,0,0-3.416-10.269L254,113.07a18.209,18.209,0,0,0-3.2-3.69l2.839-4.068a23.371,23.371,0,0,0-9.678-4.845l-1.555,4.71a18.188,18.188,0,0,0-4.873-.353l-.868-4.879a23.214,23.214,0,0,0-10.269,3.417l2.228,4.426a18.189,18.189,0,0,0-3.69,3.2l-4.068-2.84a23.374,23.374,0,0,0-4.846,9.678l4.71,1.555a18.218,18.218,0,0,0-.353,4.873l-4.878.867a23.2,23.2,0,0,0,3.417,10.27l4.425-2.228a18.23,18.23,0,0,0,3.2,3.69l-2.839,4.068a23.372,23.372,0,0,0,9.678,4.846l1.555-4.71a18.193,18.193,0,0,0,4.873.353l.868,4.878a23.2,23.2,0,0,0,10.269-3.416l-2.228-4.426a18.231,18.231,0,0,0,3.69-3.2l4.068,2.839a23.371,23.371,0,0,0,4.845-9.678l-4.71-1.555a18.191,18.191,0,0,0,.353-4.873Zm-20.053,11.38A9.878,9.878,0,1,1,248.047,120,9.879,9.879,0,0,1,241.793,132.491Z" transform="translate(-215.503 -99.946)"/></g><g transform="translate(78.389 54.686)"><path class="c" d="M202.747,173.419a17.4,17.4,0,0,0,2.264-7.79l-3.679-.51a13.633,13.633,0,0,0-.4-3.64l3.484-1.3a17.525,17.525,0,0,0-3.908-7.11l-2.965,2.244a13.643,13.643,0,0,0-2.857-2.292l1.541-3.379a17.4,17.4,0,0,0-7.79-2.264l-.51,3.679a13.63,13.63,0,0,0-3.64.4l-1.3-3.484a17.517,17.517,0,0,0-7.11,3.908l2.244,2.965a13.64,13.64,0,0,0-2.292,2.857l-3.379-1.541a17.4,17.4,0,0,0-2.264,7.79l3.679.51a13.633,13.633,0,0,0,.4,3.64l-3.484,1.3a17.518,17.518,0,0,0,3.908,7.11l2.965-2.243a13.655,13.655,0,0,0,2.856,2.292l-1.541,3.379a17.4,17.4,0,0,0,7.79,2.264l.51-3.679a13.63,13.63,0,0,0,3.64-.4l1.3,3.484a17.526,17.526,0,0,0,7.11-3.908l-2.244-2.965a13.663,13.663,0,0,0,2.292-2.856Zm-17.606-.177a8.8,8.8,0,1,1,10.9-5.994A8.8,8.8,0,0,1,185.14,173.242Zm.645-2.218a6.489,6.489,0,1,1,8.041-4.421A6.488,6.488,0,0,1,185.786,171.024Z" transform="translate(-170.181 -147.378)"/></g></g><g transform="translate(131.751 553.188)"><g transform="translate(120.068 48.941)"><path class="d" d="M344.312,445.425c2.053-4.237,12.757-22.778,24.042-28.9a12.19,12.19,0,0,1,4.573-1.653,4.908,4.908,0,0,1,4.381,1.665,5.511,5.511,0,0,1,.737,4.276c-2.05,11.6-15.259,16.039-21.712,24.615" transform="translate(-285.192 -367.872)"/><path class="d" d="M339.445,433.626s10.62-20.963,20.988-33.45c4.908-5.911,8.279-16.862,3.119-20.143-7.468-4.746-14.805,5.827-18.167,11.077a110.1,110.1,0,0,0-11.709,25.679c-.418,1.3-4.227,16.836-4.3,16.836h10.072Z" transform="translate(-280.325 -356.142)"/><path class="e" d="M363.167,389.514c-9.792,12.381-17.915,30.71-23.312,47.59" transform="translate(-283.74 -359.62)"/><path class="f" d="M293.477,432.7s-1.233-32.254-15.5-47.167c-3.856-4.028-10.178-8.216-15.365-9.363-6.723-1.487-6.541,6.42-5.323,11.543,1.578,6.639,7,10.778,10.915,15.723,7.2,9.1,11.5,15.1,16.753,29.263" transform="translate(-256.624 -355.212)"/><path class="d" d="M304.072,422.991c3.853-7.05,2.5-37.192.566-46.635a48.174,48.174,0,0,0-7.866-18.205c-3.415-4.748-13.62-15.215-19.626-10.962-3.474,2.46,1.787,11.321,3.176,13.982a151.493,151.493,0,0,1,10.857,27.335,166.108,166.108,0,0,1,6.539,34.047c.011.146.021.292.031.438" transform="translate(-262.93 -345.507)"/><path class="f" d="M318.456,422.659c-1.27-16.878-.457-42.78,7.152-57.412,8.628-16.592,19.875-24.252,21.507-17.786,4.735,18.754-14.265,69.2-19.616,75.2" transform="translate(-276.609 -345.175)"/><path class="e" d="M262.7,384.243c15.357,10.706,25.956,30.983,27.93,51.144" transform="translate(-258.604 -357.903)"/><path class="e" d="M286.007,355.655c7.546,6.738,11.382,17.277,13.7,27.483a229.679,229.679,0,0,1,5.235,42.935" transform="translate(-266.197 -348.589)"/><path class="e" d="M345.1,359.094c-9.289,21.34-17.122,44.4-18.433,68.1" transform="translate(-279.445 -349.709)"/><path class="e" d="M375.379,420.885a80.033,80.033,0,0,0-23.049,26.439" transform="translate(-287.804 -369.84)"/></g><g transform="translate(293.355 29.266)"><path class="f" d="M592.549,413.178c2.016-26.658-.23-52.8,9.925-78.064,2.882-7.17,9.45-18.479,18.533-18.866,14.028-.6,5.439,27.587,2.9,38.134a156.921,156.921,0,0,1-6.6,20.014c-4.489,11.5-11.24,27.578-16.341,38.782" transform="translate(-539.351 -316.073)"/><path class="d" d="M567.784,413.1c-4.417-11.3-8.739-22.639-13.107-33.959-3.875-10.039-8.384-19.856-11.515-30.17-2.383-7.85-8.542-25.84.475-31.37,16.056-9.848,28.887,28.258,30.581,41.79,2.232,17.836,1.75,35.778,2.018,53.708" transform="translate(-521.869 -315.993)"/><path class="f" d="M546.8,427.139s-9.382-11.985-13.614-17.606c-9.453-12.556-21.108-26.193-19.369-40.306.4-3.248,1.591-6.864,4.855-8.786a11.346,11.346,0,0,1,6.74-1.285c7.681.732,14.563,11.887,18.019,17.606,6.767,11.2,17.247,50.378,17.247,50.378" transform="translate(-513.645 -330.035)"/><path class="e" d="M552.178,330.093c11.453,23.162,22.631,66.052,22.906,87.6" transform="translate(-526.199 -320.587)"/><path class="e" d="M525.771,369.547c10.077,19.359,30.572,61,30.572,61" transform="translate(-517.596 -333.44)"/><path class="e" d="M622.281,325.345c-8.223,18.338-19.493,58.087-24.031,90.853" transform="translate(-541.208 -319.04)"/><path class="d" d="M605.613,425.006s4.689-20.891,7.935-32.75c3.53-12.9,15.076-32.634,27.213-38.242,2.794-1.291,6.162-2.178,8.863-.7a7.693,7.693,0,0,1,3.387,4.352c2.066,6.033-8.041,25.084-11.516,30.431-6.805,10.47-16.553,27.1-24.281,36.914" transform="translate(-543.607 -327.901)"/><path class="e" d="M648.749,360.953c-14.349,12.459-33.545,52.183-38.912,66.792" transform="translate(-544.983 -330.64)"/></g><g transform="translate(0 0)"><path class="f" d="M122.513,399.473c-1.838-9.743-4.852-29.062-7.138-40.918-1.106-5.737-4.309-12.744-6.341-18.187-3.708-9.931-12.668-27.188-23.779-26.266-13.787,1.145-2.645,25.93.866,35.286a135.682,135.682,0,0,0,8.4,17.539c5.509,9.994,13.676,23.91,19.756,33.56" transform="translate(-78.537 -286.099)"/><path class="f" d="M154.327,383.259c-3.364-8.8-2.455-19.991-2.444-29.3.02-16.761,5.841-40.325,16.756-51.324,4.5-4.533,11.944-9.576,16.78-2.644,4.58,6.563-.715,24.4-2.383,32.069-3.267,15.011-18.914,42.814-23.434,57.348" transform="translate(-102.393 -280.4)"/><path class="e" d="M179.721,313c-7.755,20.116-18.18,56.819-20.84,78.213" transform="translate(-104.712 -285.753)"/><path class="e" d="M90.229,322.345c9.828,15.809,24.234,49.671,31.856,79.143" transform="translate(-82.346 -288.796)"/><path class="d" d="M136.742,364.656c4.136-6.767,9.04-28.734,10.158-36.585,1.574-11.04,1.743-22.7-.99-33.578-1.845-7.337-10.284-29.286-20.874-19.388-4.973,4.649-4.179,29.982-3.587,36.763,1.16,13.281,8.039,37.061,10.4,50.182" transform="translate(-92.374 -272.585)"/><path class="e" d="M135.681,284.72c7.271,18.939,5.43,66,3.157,82.461" transform="translate(-97.154 -276.539)"/></g></g><line class="g" x2="423.288" transform="translate(111.498 679.612)"/><g transform="translate(220.161 479.696)"><g transform="translate(30.579 0)"><path class="h" d="M301.888,172.915c2.068-2.042,7.09-8.939,7.66-8.769s-1.164,2.619-.669,2.671,3.418-3.536,3.943-3.215c.711.436-2.481,3.951-2.481,3.951s3.688-3.675,4.195-3.119c.359.394-2.326,3.329-3.212,4.579,1.132-1.233,3.2-3.013,3.568-2.6s-1.425,2.45-2.709,4.084c.9-.945,2.622-2.575,2.977-2.205s-3.966,6.946-7.923,11.746" transform="translate(-270.291 -163.582)"/><path class="h" d="M262.821,200.883a297.217,297.217,0,0,0,29.413-28.791l6.611,4.415a230.647,230.647,0,0,1-25.617,32" transform="translate(-257.563 -166.354)"/><path class="i" d="M255.023,217.912a60.051,60.051,0,0,1,9.641-8.983l10.662,8.62-9.357,10.978" transform="translate(-255.023 -178.355)"/></g><g transform="translate(4.867 78.814)"><g transform="translate(23.852 38.767)"><path class="j" d="M272.493,338.156l-5.645,74.331,6.678,4.252s-18.354.955-18.951.354.753-4.718.753-4.718l-3.064-74.4Z" transform="translate(-252.265 -337.979)"/><path class="j" d="M258.454,453.263l-2.733-2.687.386-1.412,4.2,4.106,2.022.007,7.124-3.517,7.734,4.841a1.048,1.048,0,0,1-.56,1.936l-10.4-.037-3.318-2.309-.942,0-.008,2.3-6.77-.024.011-3.208Z" transform="translate(-253.22 -374.202)"/></g><g transform="translate(0 38.547)"><path class="j" d="M246.232,337.653l-16.648,74.728,6.679,4.252s-18.354.955-18.951.354.753-4.718.753-4.718l4.865-74.615Z" transform="translate(-216.976 -337.653)"/><path class="j" d="M220.146,453.263l-2.733-2.687.387-1.412,4.2,4.106,2.022.007,7.124-3.517,7.734,4.841a1.048,1.048,0,0,1-.56,1.936l-10.4-.037-3.317-2.309-.942,0-.009,2.3-6.77-.024.012-3.208Z" transform="translate(-216.887 -373.982)"/></g><path class="j" d="M229.9,280.479c-9.158,16.118-9.141,46.105-9.141,46.105h42.456s-.585-26.338-5.326-41.178Z" transform="translate(-218.149 -280.479)"/><line class="k" x2="1.058" y2="44.656" transform="translate(25.94 1.449)"/><path class="l" d="M264.755,285.413s-2.146,5.44-9.395,7.321" transform="translate(-229.421 -282.086)"/></g><g transform="translate(14.193 35.249)"><path class="h" d="M323.859,257.233c2.79.812,11.261,1.839,11.39,2.42s-2.855.259-2.66.716,4.753,1.263,4.728,1.878c-.035.833-4.659-.243-4.659-.243s5.006,1.431,4.767,2.145c-.169.506-4.04-.411-5.563-.575,1.628.388,4.191,1.33,4,1.852s-2.834-.051-4.886-.378c1.261.324,3.526,1.036,3.376,1.526s-6.686-.442-12.805-1.561" transform="translate(-260.311 -229.341)"/><path class="m" d="M244.322,215.863s.7,1.794,4.51,1.794a4.464,4.464,0,0,0,3.666-1.4s.98.879,11.468,14.645c2.221,2.915,1.741,9.2-1.97,14.64a91.41,91.41,0,0,0-.862,18.808H230.779s-.529-21.809,1.57-33.7A20.178,20.178,0,0,1,244.322,215.863Z" transform="translate(-230.72 -215.863)"/><path class="h" d="M276.942,229.846c20.226,15.87,34.253,19.314,34.253,19.314l-1.65,7.776s-24.293-3.081-40.25-16.493" transform="translate(-243.287 -220.419)"/><path class="n" d="M261.4,217.233c5.189.873,13.153,8.511,13.153,8.511L266.1,238.15s-3.588-2.484-8.452-6.665" transform="translate(-239.494 -216.309)"/><path class="o" d="M265.752,244.337a53.857,53.857,0,0,1-9.178-6.681" transform="translate(-239.143 -222.963)"/></g><g transform="translate(0 15.738)"><path class="p" d="M260.807,194.057c2.11,3.488,2.983,6.976.026,8.765s-7.711,2.678-10.734-2.288c-2.12-3.482-1.424-7.766,1.533-9.554S258.7,190.569,260.807,194.057Z" transform="translate(-222.44 -187.991)"/><g transform="translate(35.889 6.649)"><path class="q" d="M262.92,197.1c.1.354.377.771.727.758a.219.219,0,0,0,.2-.156C264.055,197.1,262.715,196.358,262.92,197.1Z" transform="translate(-262.898 -196.787)"/></g><path class="r" d="M260.855,196.235a2.746,2.746,0,0,1,2-1.17" transform="translate(-226.344 -189.577)"/><path class="s" d="M266.821,201.821l-1.956.978s.69,1.688,1.748,1.372C267.5,203.907,266.821,201.821,266.821,201.821Z" transform="translate(-227.651 -191.778)"/><path class="p" d="M259.2,212.869a8.32,8.32,0,0,1-3.8.87,7.624,7.624,0,0,1-4.51-1.3l2.014-8.6,7.4.54Z" transform="translate(-223.099 -192.435)"/><path class="t" d="M265.517,196.159s2.529,1.691,2.618,2.141-.98,1.1-.98,1.1" transform="translate(-227.863 -189.933)"/><path class="q" d="M240.247,187.512c-.273.138-1.216-.117-1.559-.117a8,8,0,0,0-1.435.122c-2.82.514-4.925,2.847-6.253,5.248-.872,1.576-1.6,3.327-3.191,4.328-3.487,2.2-8.064,1.412-11.971,2.727-3.976,1.338-7.021,5.373-5.955,9.678.349,1.41,1.089,2.692,1.524,4.077.93,2.955.495,6.395,2.27,8.934a8.024,8.024,0,0,0,1.753,1.76,12.164,12.164,0,0,0,18.647-5.158c1.578-3.934,1.085-8.62,3.387-12.179,1.075-1.663,2.68-2.931,3.748-4.6a15.327,15.327,0,0,0,1.606-6.224c.027-.423-.732-3.947-.5-3.947a8.639,8.639,0,0,0,5.244-2.215A5.353,5.353,0,0,0,240.247,187.512Z" transform="translate(-209.668 -186.925)"/><path class="h" d="M256.994,201.109a1.229,1.229,0,0,0-1.758.307c-.9,1.346,1.269,3.047,2.313,3.126s1.017-1.055,1.017-1.055" transform="translate(-224.444 -191.464)"/></g></g><g transform="translate(163.333 483.712)"><g transform="translate(250.671 0)"><rect class="u" width="66.012" height="88.156"/><g transform="translate(9.86)"><rect class="v" width="66.012" height="88.156"/></g><rect class="w" width="48.469" height="11.524" rx="3.595" transform="translate(18.898 6.859)"/><rect class="w" width="27.896" height="32.397" rx="3.595" transform="translate(18.898 48.487)"/><g transform="translate(18.898 24.222)"><path class="f" d="M528.825,211.09h-1.471c-1.185,0-2.145-1.259-2.145-2.814s.96-2.813,2.145-2.813h1.471Z" transform="translate(-525.209 -205.464)"/><path class="d" d="M531.68,208.277c0,1.554-.96,2.814-2.145,2.814s-2.145-1.259-2.145-2.814.96-2.813,2.145-2.813S531.68,206.723,531.68,208.277Z" transform="translate(-525.92 -205.464)"/></g><g transform="translate(33.134 24.222)"><path class="f" d="M549.94,211.09h-1.471c-1.185,0-2.145-1.259-2.145-2.814s.96-2.813,2.145-2.813h1.471Z" transform="translate(-546.324 -205.464)"/><path class="d" d="M552.8,208.277c0,1.554-.96,2.814-2.145,2.814s-2.145-1.259-2.145-2.814.961-2.813,2.145-2.813S552.8,206.723,552.8,208.277Z" transform="translate(-547.035 -205.464)"/></g><g transform="translate(47.37 24.222)"><path class="f" d="M571.055,211.09h-1.471c-1.185,0-2.145-1.259-2.145-2.814s.961-2.813,2.145-2.813h1.471Z" transform="translate(-567.439 -205.464)"/><path class="d" d="M573.911,208.277c0,1.554-.961,2.814-2.145,2.814s-2.145-1.259-2.145-2.814.96-2.813,2.145-2.813S573.911,206.723,573.911,208.277Z" transform="translate(-568.15 -205.464)"/></g><g transform="translate(61.607 24.222)"><path class="f" d="M592.171,211.09H590.7c-1.185,0-2.145-1.259-2.145-2.814s.96-2.813,2.145-2.813h1.471Z" transform="translate(-588.555 -205.464)"/><path class="d" d="M595.026,208.277c0,1.554-.96,2.814-2.145,2.814s-2.145-1.259-2.145-2.814.961-2.813,2.145-2.813S595.026,206.723,595.026,208.277Z" transform="translate(-589.266 -205.464)"/></g><g transform="translate(18.898 37.848)"><path class="f" d="M528.825,231.3h-1.471c-1.185,0-2.145-1.26-2.145-2.814s.96-2.813,2.145-2.813h1.471Z" transform="translate(-525.209 -225.674)"/><path class="d" d="M531.68,228.487c0,1.553-.96,2.814-2.145,2.814s-2.145-1.26-2.145-2.814.96-2.813,2.145-2.813S531.68,226.933,531.68,228.487Z" transform="translate(-525.92 -225.674)"/></g><g transform="translate(33.134 37.848)"><path class="f" d="M549.94,231.3h-1.471c-1.185,0-2.145-1.26-2.145-2.814s.96-2.813,2.145-2.813h1.471Z" transform="translate(-546.324 -225.674)"/><path class="d" d="M552.8,228.487c0,1.553-.96,2.814-2.145,2.814s-2.145-1.26-2.145-2.814.961-2.813,2.145-2.813S552.8,226.933,552.8,228.487Z" transform="translate(-547.035 -225.674)"/></g><g transform="translate(47.37 37.848)"><path class="f" d="M571.055,231.3h-1.471c-1.185,0-2.145-1.26-2.145-2.814s.961-2.813,2.145-2.813h1.471Z" transform="translate(-567.439 -225.674)"/><path class="d" d="M573.911,228.487c0,1.553-.961,2.814-2.145,2.814s-2.145-1.26-2.145-2.814.96-2.813,2.145-2.813S573.911,226.933,573.911,228.487Z" transform="translate(-568.15 -225.674)"/></g><g transform="translate(61.607 37.848)"><path class="f" d="M592.171,231.3H590.7c-1.185,0-2.145-1.26-2.145-2.814s.96-2.813,2.145-2.813h1.471Z" transform="translate(-588.555 -225.674)"/><path class="d" d="M595.026,228.487c0,1.553-.96,2.814-2.145,2.814s-2.145-1.26-2.145-2.814.961-2.813,2.145-2.813S595.026,226.933,595.026,228.487Z" transform="translate(-589.266 -225.674)"/></g></g><g transform="translate(0 110.058)"><path class="v" d="M125.381,418.62H237.409V332.777H153.57l-28.189,32.964Z" transform="translate(-125.381 -332.777)"/><path class="u" d="M244.373,418.62H285.65V332.777H271.993l-27.62,32.965Z" transform="translate(-164.147 -332.777)"/><rect class="u" width="80.226" height="52.879" transform="translate(80.226 85.843) rotate(180)"/><g transform="translate(47.305 3.276)"><path class="f" d="M197.6,344.1c.768.7,2.34.23,3.51-1.056s1.5-2.9.727-3.6l-1.591-1.457-4.237,4.66Z" transform="translate(-195.696 -337.749)"/><path class="d" d="M195.959,342.621c.768.7,2.339.23,3.509-1.057s1.5-2.9.728-3.6-2.34-.229-3.509,1.057S195.191,341.918,195.959,342.621Z" transform="translate(-195.543 -337.636)"/></g><g transform="translate(34.063 3.276)"><path class="f" d="M177.962,344.1c.768.7,2.339.23,3.509-1.056s1.5-2.9.728-3.6l-1.592-1.457-4.237,4.66Z" transform="translate(-176.056 -337.749)"/><path class="d" d="M176.319,342.621c.767.7,2.339.23,3.509-1.057s1.5-2.9.728-3.6-2.339-.229-3.509,1.057S175.551,341.918,176.319,342.621Z" transform="translate(-175.903 -337.636)"/></g><path class="w" d="M209.889,369.972l4.452-5.768H146.554l-5.093,5.768Z" transform="translate(-130.619 -343.016)"/></g><path class="g" d="M328.808,313.278V384.97a6.279,6.279,0,0,1-6.279,6.279H282.646a6.279,6.279,0,0,1-6.278-6.279v-2.056" transform="translate(-174.57 -216.367)"/><path class="g" d="M332.039,318.158v81.907a6.4,6.4,0,0,1-6.4,6.4H262.228a6.279,6.279,0,0,1-6.279-6.279V384.5" transform="translate(-167.918 -217.956)"/><path class="g" d="M395.419,296.716v47.518a6.278,6.278,0,0,0,6.278,6.278h49.528a6.279,6.279,0,0,0,6.279-6.278v-81.4a6.279,6.279,0,0,1,6.278-6.279H484.2" transform="translate(-213.356 -197.886)"/><path class="g" d="M383.61,305.6v66.6a6.279,6.279,0,0,0,6.278,6.279H480.82A6.279,6.279,0,0,0,487.1,372.2v-92.59" transform="translate(-209.508 -205.398)"/><ellipse class="x" cx="1.279" cy="1.279" rx="1.279" ry="1.279" transform="translate(86.752 165.365)"/><ellipse class="x" cx="1.279" cy="1.279" rx="1.279" ry="1.279" transform="translate(100.519 165.365)"/><ellipse class="x" cx="1.279" cy="1.279" rx="1.279" ry="1.279" transform="translate(276.311 72.932)"/><ellipse class="x" cx="1.279" cy="1.279" rx="1.279" ry="1.279" transform="translate(283.517 72.932)"/><path class="x" d="M559.142,278.991a1.279,1.279,0,1,1-1.279-1.279A1.279,1.279,0,0,1,559.142,278.991Z" transform="translate(-265.861 -204.78)"/><ellipse class="x" cx="1.279" cy="1.279" rx="1.279" ry="1.279" transform="translate(269.569 57.387)"/></g><g transform="translate(284.755 422.941)"><ellipse class="y" cx="48.997" cy="48.997" rx="48.997" ry="48.997" transform="translate(0 37.801) rotate(-22.69)"/><ellipse class="s" cx="35.448" cy="35.448" rx="35.448" ry="35.448" transform="translate(21.685 37.394) rotate(-12.802)"/><path class="y" d="M449.23,372.5a24.348,24.348,0,1,0,24.348-24.348A24.349,24.349,0,0,0,449.23,372.5Z" transform="translate(-409.472 -308.399)"/><path class="s" d="M458.49,370.17a12.754,12.754,0,1,0,12.754-12.754A12.755,12.755,0,0,0,458.49,370.17Z" transform="translate(-407.139 -306.065)"/><g transform="matrix(-1, -0.017, 0.017, -1, 65.496, 127.998)"><g transform="translate(0 57.283)"><path class="z" d="M0,8.009H8.009L0,0Z"/></g><g transform="translate(51.934 4.195)"><path class="z" d="M0,9.164H9.164V6.854H2.311V0H0Z" transform="translate(0 0)"/></g><g transform="translate(56.128 0)"><path class="z" d="M0,9.164H9.164V6.854H2.31V0H0Z"/></g><g transform="translate(1.431 6.812)"><rect class="z" width="78.37" height="2.31" transform="translate(0 55.415) rotate(-44.999)"/></g></g></g><g transform="translate(435.33 495.443)"><g transform="translate(67.522 39.074)"><path class="h" d="M633.609,303.651c-.326,2.888-2.646,11.1-2.16,11.442s1.34-2.534,1.686-2.178-.668,4.873-.091,5.087c.782.289,1.573-4.392,1.573-4.392s-.611,5.171.14,5.225c.532.038,1.18-3.886,1.615-5.355-.27,1.652-.389,4.38.164,4.409s1.046-2.634,1.536-4.653c-.188,1.289-.4,3.653.106,3.7s2.17-6.34,3.5-12.417" transform="translate(-629.748 -264.036)"/><path class="h" d="M642.22,244.893s4.673,8.3,5.348,13.4c1.663,12.551-8.751,33.812-8.751,33.812s-7.567-2.064-7.567-3.014,5.274-23.289,5.274-23.289l-7.564-17.461" transform="translate(-628.959 -244.893)"/></g><g transform="translate(46.041 0)"><path class="h" d="M610.3,204.463l1.015,9.359s-5.612,4.758-10.577-.572l.607-6.161Z" transform="translate(-598.286 -192.647)"/><path class="h" d="M601.288,190.553s-6.075,8.366-3.594,11.5c1.831,2.314,6.635,2.577,8.12,1.667.319-1.714,4.256-7.377,3.625-8.636C607.026,190.271,601.288,190.553,601.288,190.553Z" transform="translate(-597.099 -188.115)"/><path class="aa" d="M611.415,190.823c-.2-3.163-3.315-4.088-9.3-3.732-.8.048-2.228-.5-2.6.216-.487.936-.573,2.83.367,3.683a3.448,3.448,0,0,0,1.873.885c1.085.253,2.19,1.286,1.613,2.422-.151.3-.509.8-.282,1.048a3.231,3.231,0,0,0,.65.34c.431.231.4.885.135,1.294s-.148.861-.418,1.268c-.641.964.119,2.741,1.114,3.331.881.522,3.769,1.393,5.884.3,1.835-.951,2.936-3.538,2.951-8.192C613.408,191.9,612.081,190.7,611.415,190.823Z" transform="translate(-597.77 -186.938)"/><path class="h" d="M603.819,199.348c.987-1.251,1.785-1.052,2.222-.365.581.916-.584,2.819-1.127,3.144-1.1.659-1.992.589-2.076-.3" transform="translate(-598.968 -190.684)"/><g transform="translate(1.98 6.651)"><path class="ab" d="M600.472,196.9c-.282.235-.546.661-.39.975a.219.219,0,0,0,.227.121C600.941,197.934,601.062,196.409,600.472,196.9Z" transform="translate(-600.035 -196.803)"/></g><path class="ac" d="M600.8,195.227a2.346,2.346,0,0,1,1.27,1" transform="translate(-598.305 -189.638)"/><path class="s" d="M599.874,203.206l-1.387-.742s-.912,1.7-.266,2.064C598.935,204.926,599.874,203.206,599.874,203.206Z" transform="translate(-597.389 -191.996)"/></g><g transform="translate(27.599 52.47)"><g transform="translate(0 111.925)"><rect class="ad" width="21.916" height="0.982" transform="matrix(-1, 0.001, -0.001, -1, 21.917, 19.757)"/><path class="z" d="M588.543,446.619l1.9.447s.725,2.477,1,4.2a20.152,20.152,0,0,1,.218,3.443l-21.916.016s.573-1.9,5.8-4.962a11.412,11.412,0,0,0,3.109-2.588Z" transform="translate(-569.745 -435.934)"/><path class="ae" d="M594.75,433.57l-.36,8.333s-.92,1.112-4.642,1.116a28.47,28.47,0,0,1-7.141-1.006l-.735-11.242" transform="translate(-573.696 -430.771)"/></g><g transform="translate(31.216 111.925)"><rect class="ad" width="21.916" height="0.982" transform="translate(21.917 19.757) rotate(179.956)"/><path class="z" d="M634.842,446.619l1.9.447s.726,2.477,1,4.2a20.156,20.156,0,0,1,.218,3.443l-21.916.016s.572-1.9,5.8-4.962a11.423,11.423,0,0,0,3.11-2.588Z" transform="translate(-616.045 -435.934)"/><path class="ae" d="M639.49,433.231l.739,8.672s-.919,1.112-4.641,1.116a28.463,28.463,0,0,1-7.141-1.006l-1.689-11.242" transform="translate(-619.535 -430.771)"/></g><path class="j" d="M627.573,292.918s3.418,7.118.671,20.739c1.4,30.41,4.648,75.356,4.648,75.356H615.1s-6.956-48.083-9.487-69.983c-2.82-24.394-4.583-54.269-4.583-54.269" transform="translate(-579.936 -264.762)"/><path class="af" d="M619.612,411.1s-4.258-43.945-6.789-65.845" transform="translate(-583.779 -290.985)"/><path class="j" d="M580.187,299.487s-2.218,32.059-2.218,47.444v45.052l17.606,3.189,10.365-77.787c6.431-7.7,5.962-24.42,4.412-30.929l-20.928-5.715Z" transform="translate(-572.424 -269.968)"/><path class="af" d="M613.06,368.477l4.312-39.958a22.377,22.377,0,0,0,5.394-13.606" transform="translate(-583.856 -281.1)"/><line class="af" x1="4.995" y2="93.888" transform="translate(7.174 26.299)"/><line class="af" x2="10.252" y2="0.205" transform="translate(26.031 34.759)"/><line class="af" y1="0.081" x2="3.897" transform="translate(43.59 34.355)"/></g><g transform="translate(0 16.641)"><path class="h" d="M546.379,228.134c-2.861-3.238-10.541-15.548-11.4-15.354s1.462,4,.723,4.03-4.712-5.592-5.523-5.168c-1.1.575,3.28,6.112,3.28,6.112s-1.714-2.352-2.523-1.578c-.573.549-.27,1.7.916,3.644-.8-1-1.547-1.171-2.13-.589s-.005,1.638.707,2.71c-.562-.7-1.382-1.056-1.592-.324-.276.958,2.048,5.927,7.543,14.03" transform="translate(-528.81 -211.62)"/><path class="m" d="M603.615,216.816s12.093.507,15.72,14.271c1.636,6.205,2.955,62.188,2.955,62.188l-44.878-6.024s1.009-46.171,2-54.5c1.806-15.222,13.792-16.172,13.792-16.172s.545,1.346,5.23,1.346S603.615,216.816,603.615,216.816Z" transform="translate(-544.644 -213.236)"/><path class="ag" d="M616.277,216.931c14.353,0,23.192,19.717,23.192,19.717l-9.026,4.533" transform="translate(-557.305 -213.35)"/><path class="h" d="M570.3,248.01s-7.66,11.022-13.844,11.621c-8.312.8-23.1-26.869-23.1-26.869l9.328-6.3,12.776,16.069,4.357-6.513" transform="translate(-530.291 -216.455)"/><path class="ah" d="M590.491,216.579c-12.358.68-21.4,19.09-21.4,19.09l14.47,10.386,8.213-10.713" transform="translate(-541.931 -213.236)"/><line class="ai" y1="9.104" x2="7" transform="translate(41.116 23.349)"/><path class="ai" d="M640.057,245.648a51.843,51.843,0,0,0-2.769-10.734" transform="translate(-564.151 -219.209)"/></g><path class="h" d="M598.994,197.991s-1.99.956-1.891,1.321a7.236,7.236,0,0,0,.7,1.247" transform="translate(-551.057 -190.539)"/><line class="af" x2="21.474" transform="translate(32.156 168.082)"/><line class="af" x2="20.886" transform="translate(59.621 168.264)"/></g><path class="aj" d="M232.327,316.5l-4.775,16.415-13.537,13.25h30.294l10.1-12.1,6.333-17.564Z" transform="translate(9.077 266.294)"/><g transform="translate(119.177 551.34)"><g transform="translate(60.227 0)"><path class="h" d="M161.683,294.792l-3.254,6.18a13.184,13.184,0,0,1-5.283-1.512,8.181,8.181,0,0,1-3.927-3.569l5.5-7.279" transform="translate(-149.218 -275.959)"/><path class="h" d="M170.828,278.822c3.027,1.783-1.973,13.078-4.7,13.792s-8.154-4.622-9.771-9.143,3.584-6.994,6.642-7.913S170.828,278.822,170.828,278.822Z" transform="translate(-151.443 -271.663)"/><path class="ak" d="M174.733,288.713l-.264.565" transform="translate(-157.444 -275.992)"/><path class="ak" d="M175.96,286.6a2.254,2.254,0,0,0-2.412-.647" transform="translate(-157.144 -275.069)"/><path class="s" d="M170.679,295.1l1.926,1.375s-.752,1.456-1.44.889S170.679,295.1,170.679,295.1Z" transform="translate(-156.201 -278.073)"/><path class="aa" d="M172.629,279.478a29.386,29.386,0,0,1-3.927-1.8,3.609,3.609,0,0,0-2.874,3.07c-.008.332-.042.785-.371.831-.227.032-.415-.19-.479-.411a5.556,5.556,0,0,0-.146-.672.966.966,0,0,0-1.187-.448,1.678,1.678,0,0,0-.937.979c-.46,1.1-.87,2.427.179,3.348a1.906,1.906,0,0,1,.459.457c.228.413-.041.915-.31,1.3a5.2,5.2,0,0,1-4.548,2.546c-1.729,0-4.6-2.281-4.792-3.42-.017-.1-1.672-7.083,1.4-11.524a8.662,8.662,0,0,1,7.573-3.864,8.786,8.786,0,0,1,4.414,1.969C172.127,272.766,173.209,277.964,172.629,279.478Z" transform="translate(-150.527 -269.845)"/><path class="h" d="M176.569,290.248s.446,3.386-.221,3.756-2.075-.594-2.075-.594" transform="translate(-157.381 -276.492)"/></g><g transform="translate(0 59.054)"><g transform="translate(77.193 45.12)"><path class="h" d="M178.485,425.613l-2.468,15.941-.129,4.8,18.821-.1a.832.832,0,0,0,.828-.836h0a.833.833,0,0,0-.537-.774l-8.117-3.732,3.211-16.559" transform="translate(-174.872 -424.357)"/><path class="al" d="M195.869,454.057a2.558,2.558,0,0,0-.9-1.433l-8.606-3.707c-4.744,1.923-10.885.453-10.885.453l-1.095,6.48a.388.388,0,0,0,.39.386l20.953-.107C196.147,456.127,195.875,454.076,195.869,454.057Z" transform="translate(-174.381 -432.358)"/><path class="am" d="M194.327,449.467a10.136,10.136,0,0,0-1.214,2.037" transform="translate(-180.484 -432.538)"/><path class="am" d="M196.038,450.428a8.935,8.935,0,0,0-1,1.733" transform="translate(-181.111 -432.851)"/><path class="am" d="M197.426,451.13a12.71,12.71,0,0,0-.935,1.59" transform="translate(-181.584 -433.079)"/><line class="am" y1="0.11" x2="21.466" transform="translate(0.111 22.369)"/><path class="am" d="M175.429,453s5.043.1,5.477,3.141" transform="translate(-174.722 -433.688)"/><path class="am" d="M201.495,453.288a16.34,16.34,0,0,0-1.665,2.887" transform="translate(-182.672 -433.782)"/></g><g transform="translate(0 47.538)"><path class="h" d="M83.181,431.451l-15.7-1.871-4.8-.129.1,18.821a.832.832,0,0,0,.837.827h0a.831.831,0,0,0,.773-.537l3.732-8.117,16.274,1.833" transform="translate(-60.797 -428.435)"/><path class="al" d="M62.068,449.432a2.556,2.556,0,0,0,1.433-.9l3.707-8.606c-1.923-4.744-.453-10.885-.453-10.885l-6.48-1.1a.388.388,0,0,0-.386.39L60,449.288C60,449.71,62.048,449.438,62.068,449.432Z" transform="translate(-59.888 -427.944)"/><path class="am" d="M69.209,447.89a10.148,10.148,0,0,0-2.037-1.214" transform="translate(-62.261 -434.047)"/><path class="am" d="M68.4,449.6a8.893,8.893,0,0,0-1.733-1" transform="translate(-62.095 -434.675)"/><path class="am" d="M67.764,450.99a12.811,12.811,0,0,0-1.59-.936" transform="translate(-61.936 -435.147)"/><line class="am" x2="0.11" y2="21.466" transform="translate(1.399 0.111)"/><path class="am" d="M65.145,428.993s-.1,5.042-3.14,5.476" transform="translate(-60.578 -428.286)"/><path class="am" d="M64.978,455.058a16.321,16.321,0,0,0-2.887-1.665" transform="translate(-60.606 -436.235)"/></g><path class="z" d="M96.071,364.233c-3.374,9.022,2.133,22.12,2.133,22.12l2.9,21.1-27.536-1.212.272,18.314s29.536,2.1,36.681,2.1,9.906-1.6,12-5.784c3.124-6.237-1.366-40.715-1.366-41.287l-4.9-22.147" transform="translate(-64.346 -357.435)"/><line class="an" x2="0.207" y2="18.394" transform="translate(12.53 48.949)"/><path class="z" d="M120.989,373.247s-3.126,15.974,12.743,19.407c7.091,1.534,25.123,2.037,25.123,2.037l-3.079,24.679h18.006s3.73-18.594,4.854-31.031c.747-8.275-2.811-11.975-9.5-12.8-5.663-.7-22.693-1.81-22.693-1.81l-2.863-3.594" transform="translate(-79.713 -361.571)"/><path class="an" d="M137.288,397.173s-13.354.04-16.549-14.925" transform="translate(-79.712 -365.519)"/><path class="an" d="M131.192,380.155a36.37,36.37,0,0,0,8.32.384" transform="translate(-83.118 -364.837)"/><path class="an" d="M105.325,377.016a26.58,26.58,0,0,0,5.874,1" transform="translate(-74.691 -363.814)"/><line class="an" x2="17.482" transform="translate(77.252 54.586)"/></g><g transform="translate(30.405 19.504)"><path class="j" d="M209.111,341.186l5.315.392a31.053,31.053,0,0,1,5.713-1.413,2.126,2.126,0,0,1,1.514.5v1.606c0,1.07,1.433,1.541,1.433.815v-.884c.017.059,2.944,1.45,1.228,2.774.805.167,1.232,1.3-.295,2.073a1.113,1.113,0,0,1-.075,1.984c.5.756-.514,1.589-1.317,1.762-1.52.328-13.68.073-13.68.073" transform="translate(-138.855 -312.258)"/><path class="j" d="M144.221,303.7c8.732,12.078,4.042,15.993-2.234,46.806a186.084,186.084,0,0,1-37-3.625,236.073,236.073,0,0,1,14.243-34.166c4.411-8.581,11.745-12.854,15.9-13.943" transform="translate(-104.985 -298.774)"/><path class="j" d="M143.532,319.665s13.493,21.133,19.905,22.07c10.181,1.488,27.018,1.071,27.018,1.071l1-14.867s-21.642-1.094-22.536-1.6c-2.9-1.648-12.145-20.252-12.145-20.252" transform="translate(-117.543 -301.156)"/><path class="l" d="M158.471,345.137a59.7,59.7,0,0,1-13.186-16.774" transform="translate(-118.114 -308.414)"/><line class="k" x1="1.275" y2="15.085" transform="translate(69.52 26.618)"/></g></g><path class="ao" d="M1.653-.421,25.332.11" transform="translate(236.364 599.788)"/></g></svg>