<svg xmlns="http://www.w3.org/2000/svg" width="20" height="20" viewBox="0 0 20 20"><defs><style>.a{fill:#f7f7f7;opacity:0.8;}.b,.c{stroke:none;}.c{fill:#767676;}</style></defs><g class="a"><path class="b" d="M 17.33333015441895 19.20000076293945 L 2.666670083999634 19.20000076293945 C 1.637380003929138 19.20000076293945 0.800000011920929 18.36261940002441 0.800000011920929 17.33333015441895 L 0.800000011920929 2.666670083999634 C 0.800000011920929 1.637380003929138 1.637380003929138 0.800000011920929 2.666670083999634 0.800000011920929 L 17.33333015441895 0.800000011920929 C 18.36261940002441 0.800000011920929 19.20000076293945 1.637380003929138 19.20000076293945 2.666670083999634 L 19.20000076293945 17.33333015441895 C 19.20000076293945 18.36261940002441 18.36261940002441 19.20000076293945 17.33333015441895 19.20000076293945 Z"/><path class="c" d="M 2.666669845581055 1.600000381469727 C 2.078510284423828 1.600000381469727 1.600000381469727 2.078510284423828 1.600000381469727 2.666669845581055 L 1.600000381469727 17.33333015441895 C 1.600000381469727 17.92148971557617 2.078510284423828 18.39999961853027 2.666669845581055 18.39999961853027 L 17.33333015441895 18.39999961853027 C 17.92148971557617 18.39999961853027 18.39999961853027 17.92148971557617 18.39999961853027 17.33333015441895 L 18.39999961853027 2.666669845581055 C 18.39999961853027 2.078510284423828 17.92148971557617 1.600000381469727 17.33333015441895 1.600000381469727 L 2.666669845581055 1.600000381469727 M 2.666669845581055 0 L 17.33333015441895 0 C 18.80608940124512 0 20 1.193910598754883 20 2.666669845581055 L 20 17.33333015441895 C 20 18.80608940124512 18.80608940124512 20 17.33333015441895 20 L 2.666669845581055 20 C 1.193910598754883 20 0 18.80608940124512 0 17.33333015441895 L 0 2.666669845581055 C 0 1.193910598754883 1.193910598754883 0 2.666669845581055 0 Z"/></g></svg>