<svg xmlns="http://www.w3.org/2000/svg" width="42.993" height="39.002" viewBox="0 0 42.993 39.002"><defs><style>.a,.b{fill:#4d4cac;}.a{opacity:0.1;}</style></defs><g transform="translate(0.001 0)"><path class="a" d="M48.392,27.115h-.079a12.106,12.106,0,0,0-24.054,0H24.18a8.071,8.071,0,0,0,0,16.142H48.392a8.071,8.071,0,0,0,0-16.142Zm0,0" transform="translate(-14.757 -15.016)"/><g transform="translate(-0.001 0)"><path class="b" d="M34.72,10.825a13.451,13.451,0,0,0-26.382-.008,9.416,9.416,0,0,0,1.084,18.77h6.725a1.345,1.345,0,1,0,0-2.69H9.423A6.726,6.726,0,1,1,9.5,13.445a1.345,1.345,0,0,0,1.337-1.2,10.761,10.761,0,0,1,21.379,0,1.426,1.426,0,0,0,1.416,1.2,6.726,6.726,0,1,1,0,13.451H26.909a1.345,1.345,0,1,0,0,2.69h6.726A9.416,9.416,0,0,0,34.72,10.825Zm0,0" transform="translate(0.001 0)"/><path class="b" d="M184.046,200.159a1.345,1.345,0,0,0,1.935-1.869l-.033-.033-5.7-5.706a1.345,1.345,0,0,0-1.9,0l0,0-5.7,5.706a1.345,1.345,0,1,0,1.869,1.935l.033-.033,3.41-3.411v16.93a1.345,1.345,0,1,0,2.69,0v-16.93Zm0,0" transform="translate(-157.761 -176.02)"/></g></g></svg>