<svg xmlns="http://www.w3.org/2000/svg" width="64" height="64" viewBox="0 0 64 64"><defs><style>.a{fill:rgba(77,76,172,0.08);}.b{fill:none;}.c{fill:#4d4cac;}</style></defs><g transform="translate(0.239 -0.013)"><path class="a" d="M32,0A32,32,0,1,1,0,32,32,32,0,0,1,32,0Z" transform="translate(-0.239 0.013)"/><g transform="translate(-64.239 -1130.986)"><rect class="b" width="24" height="24" transform="translate(84 1151)"/><g transform="translate(84 1150.999)"><path class="c" d="M24,136.375V129.2a1.244,1.244,0,0,0-1.286-1.2H1.286A1.244,1.244,0,0,0,0,129.2v7.178a1.244,1.244,0,0,0,1.286,1.2h9.429v-1.994a.415.415,0,0,1,.429-.4h1.714a.415.415,0,0,1,.429.4v1.994h9.429A1.244,1.244,0,0,0,24,136.375Zm0,0" transform="translate(0 -121.004)"/><path class="c" d="M216.8,291.589V288H216v3.589a.4.4,0,0,0,.8,0Zm0,0" transform="translate(-204.399 -272.671)"/><path class="c" d="M116.268,4.387v-1.6a1.717,1.717,0,0,0-1.817-1.6h-7.279a1.723,1.723,0,0,0-1.817,1.587l-.011,1.6H104V2.393A2.578,2.578,0,0,1,106.726,0H114.9a2.578,2.578,0,0,1,2.726,2.393V4.387Zm0,0" transform="translate(-98.816)"/><path class="c" d="M45.607,336H36.1v1.2a1.3,1.3,0,0,1-2.593,0V336H24v4.786a1.25,1.25,0,0,0,1.3,1.2H44.311a1.25,1.25,0,0,0,1.3-1.2Zm0,0" transform="translate(-22.804 -317.981)"/><path class="c" d="M96,104.4h1.994V104H96Zm0,0" transform="translate(-90.822 -98.521)"/><path class="c" d="M312,104h1.994v.4H312Zm0,0" transform="translate(-295.172 -98.521)"/></g></g></g></svg>