<svg xmlns="http://www.w3.org/2000/svg" width="18" height="22.599" viewBox="0 0 18 22.599"><defs><style>.a{fill:#fff;}</style></defs><g transform="translate(-42.657 1)"><g transform="translate(42.657 2.789)"><g transform="translate(0)"><path class="a" d="M60.593,89.85l-1.546-2.6a7.759,7.759,0,0,1-1.09-3.966V81.015a6.3,6.3,0,1,0-12.6,0v2.273a7.759,7.759,0,0,1-1.09,3.966l-1.546,2.6a.456.456,0,0,0-.006.456.451.451,0,0,0,.392.23h17.1a.451.451,0,0,0,.392-.23A.456.456,0,0,0,60.593,89.85ZM43.9,89.629l1.137-1.909a8.663,8.663,0,0,0,1.219-4.432V81.015a5.4,5.4,0,1,1,10.8,0v2.273a8.67,8.67,0,0,0,1.218,4.432l1.138,1.909Z" transform="translate(-42.657 -74.667)"/></g></g><g transform="translate(49.697 -1)"><g transform="translate(0)"><path class="a" d="M215.293,0a1.962,1.962,0,0,0-1.96,1.96v1.96a.49.49,0,0,0,.98,0V1.96a.98.98,0,1,1,1.96,0v1.96a.49.49,0,0,0,.98,0V1.96A1.962,1.962,0,0,0,215.293,0Z" transform="translate(-213.333)"/></g></g><g transform="translate(49.207 17.679)"><path class="a" d="M207.238,426.921a.491.491,0,0,0-.847.5,1.47,1.47,0,1,1-2.547,0,.491.491,0,0,0-.847-.5,2.452,2.452,0,1,0,4.24,0Z" transform="translate(-202.666 -426.68)"/></g></g></svg>